SplineFontDB: 3.2
FontName: OcticonsNF
FullName: OcticonsNF
FamilyName: OcticonsNF
Weight: Regular
Copyright: Copyright (c) 2020, kiera
UComments: "2020-6-14: Created with FontForge (http://fontforge.org)"
Version: 001.000
ItalicAngle: 0
UnderlinePosition: -100
UnderlineWidth: 50
Ascent: 800
Descent: 200
InvalidEm: 0
LayerCount: 2
Layer: 0 0 "Back" 1
Layer: 1 0 "Fore" 0
XUID: [1021 11 743341563 26548]
StyleMap: 0x0000
FSType: 0
OS2Version: 0
OS2_WeightWidthSlopeOnly: 0
OS2_UseTypoMetrics: 1
CreationTime: 1592138820
ModificationTime: 1592140966
OS2TypoAscent: 0
OS2TypoAOffset: 1
OS2TypoDescent: 0
OS2TypoDOffset: 1
OS2TypoLinegap: 90
OS2WinAscent: 0
OS2WinAOffset: 1
OS2WinDescent: 0
OS2WinDOffset: 1
HheadAscent: 0
HheadAOffset: 1
HheadDescent: 0
HheadDOffset: 1
MarkAttachClasses: 1
DEI: 91125
Encoding: UnicodeBmp
UnicodeInterp: none
NameList: AGL For New Fonts
DisplaySize: -48
AntiAlias: 1
FitToEm: 0
WinInfo: 62472 19 13
BeginPrivate: 0
EndPrivate
BeginChars: 65536 151

StartChar: uniF400
Encoding: 62464 62464 0
Width: 1000
VWidth: 981
Flags: HW
LayerCount: 2
Fore
SplineSet
500 792.765625 m 132
 719.215604762 792.765625 905.327702549 584.876361668 816.885742188 359.888671875 c 128
 790.809794914 287.675878574 697.925664386 234.110028324 684.471679688 154.950195312 c 0
 675.111705489 99.8784815317 584.381433954 105.999054373 592.48828125 168.08984375 c 0
 608.167264894 288.176041942 745.164820423 333.16678503 746.129882812 469.30859375 c 0
 748.332210231 599.086196441 635.080783259 700.276367188 500 700.276367188 c 128
 304.867160524 700.276367188 171.407571731 470.196842672 314.518554688 327.796875 c 1
 327.658203125 311.624023438 l 2
 366.635453995 264.72412593 407.51171875 225.80861769 407.51171875 163.037109375 c 0
 407.51171875 137.799928426 386.573845027 116.540039062 361.015625 116.540039062 c 0
 295.63181106 116.540039062 311.699060225 219.580943839 259.4296875 248.955078125 c 1
 259.4296875 256.536132812 l 1
 43.3150331625 428.623018795 216.056323124 792.765625 500 792.765625 c 132
423.178710938 -100.276367188 m 2
 576.821289062 -100.276367188 l 1
 636.523548152 -97.143075626 637.372751969 -192.765625 576.821289062 -192.765625 c 2
 423.178710938 -192.765625 l 1
 363.018230085 -196.093999409 363.09732957 -100.276367188 423.178710938 -100.276367188 c 2
638.984375 53.8701171875 m 2
 361.015625 53.8701171875 l 1
 300.964112284 56.4527987775 301.501823064 -39.123046875 361.015625 -39.123046875 c 2
 638.984375 -39.123046875 l 1
 698.10697449 -41.3097627802 699.442288079 53.8701171875 638.984375 53.8701171875 c 2
EndSplineSet
Validated: 524329
EndChar

StartChar: uniF401
Encoding: 62465 62465 1
Width: 1000
VWidth: 981
Flags: HW
LayerCount: 2
Fore
SplineSet
284.194335938 138.236328125 m 1
 202.072628997 134.538975808 224.600858589 42.905757334 253.870117188 1.2734375 c 257
 226.686711591 -104.868783238 130.552734375 -3.50535760024 130.552734375 76.0732421875 c 2
 130.552734375 631.001953125 l 2
 130.552734375 715.389137028 200.133701447 784.642578125 284.194335938 784.642578125 c 2
 823.456054688 784.642578125 l 2
 849.565361662 784.642578125 869.447265625 764.760877845 869.447265625 738.65234375 c 2
 869.447265625 -31.0732421875 l 2
 869.447265625 -56.3120706375 849.031571172 -77.5693359375 823.456054688 -77.5693359375 c 2
 669.30859375 -77.5693359375 l 1
 610.593357344 -80.5161873626 608.846334251 14.9189453125 669.30859375 14.9189453125 c 2
 776.958984375 14.9189453125 l 1
 776.958984375 138.236328125 l 1
 284.194335938 138.236328125 l 1
284.194335938 693.166015625 m 2
 250.078875968 693.166015625 223.041015625 665.091850785 223.041015625 631.001953125 c 2
 223.041015625 218.090820312 l 1
 242.247070312 226.513671875 262.629882812 230.725585938 284.194335938 230.725585938 c 2
 776.958984375 230.725585938 l 1
 776.958984375 693.166015625 l 1
 284.194335938 693.166015625 l 2
330.69140625 45.7490234375 m 2
 322.71037002 45.7490234375 314.518554688 39.1121922568 314.518554688 31.091796875 c 2
 314.518554688 -169.045898438 l 2
 314.518554688 -177.92336902 324.426130835 -187.724200378 332.966284157 -187.724200378 c 1
 438.089280031 -107.479614882 l 129
 544.012549233 -187.981673729 l 1
 552.555522789 -187.981673729 561.153320312 -177.894872372 561.153320312 -169.045898438 c 2
 561.153320312 31.091796875 l 2
 561.153320312 38.8440543569 554.092394741 45.7490234375 546.49609375 45.7490234375 c 2
 330.69140625 45.7490234375 l 2
EndSplineSet
Validated: 524329
EndChar

StartChar: uniF405
Encoding: 62469 62469 2
Width: 1000
VWidth: 981
Flags: HW
LayerCount: 2
Fore
SplineSet
53.7314453125 -23.4560546875 m 2
 27.6359346011 -23.4560546875 7.234375 -3.05432566844 7.234375 23.041015625 c 2
 7.234375 669.447265625 l 2
 7.234375 695.54296952 27.6355403181 715.944335938 53.7314453125 715.944335938 c 2
 315.528320312 715.944335938 l 2
 397.470583094 715.944335938 463.306777876 673.760642225 500 623.456054688 c 1
 538.130726701 674.691304753 601.412049959 715.944335938 685.481445312 715.944335938 c 2
 946.268554688 715.944335938 l 2
 972.365098884 715.944335938 992.765625 695.542314855 992.765625 669.447265625 c 2
 992.765625 23.041015625 l 2
 992.765625 -3.05498332888 972.36342142 -23.4560546875 946.268554688 -23.4560546875 c 2
 668.298828125 -23.4560546875 l 2
 630.225585938 -23.4560546875 597.7109375 -36.9326171875 570.756835938 -63.8876953125 c 2
 532.345703125 -102.297851562 l 1
 516.385364351 -120.756037279 484.885046562 -119.528163176 467.654296875 -102.297851562 c 2
 429.243164062 -63.8876953125 l 2
 402.2890625 -36.9326171875 369.774414062 -23.4560546875 331.701171875 -23.4560546875 c 2
 53.7314453125 -23.4560546875 l 2
685.481445312 623.456054688 m 2
 609.980287531 623.456054688 546.49609375 561.006422151 546.49609375 485.481445312 c 2
 546.49609375 33.654296875 l 1
 583.895507812 57.240234375 624.49609375 69.201171875 668.298828125 69.5380859375 c 2
 900.276367188 69.5380859375 l 1
 900.276367188 623.456054688 l 1
 685.481445312 623.456054688 l 2
453.50390625 485.481445312 m 2
 453.50390625 561.010677438 391.05448423 623.456054688 315.528320312 623.456054688 c 2
 99.7236328125 623.456054688 l 1
 99.7236328125 69.5380859375 l 1
 331.701171875 69.5380859375 l 2
 375.50390625 69.201171875 416.104492188 57.240234375 453.50390625 33.654296875 c 1
 453.50390625 485.481445312 l 2
EndSplineSet
Validated: 524321
EndChar

StartChar: uniF409
Encoding: 62473 62473 3
Width: 1000
VWidth: 981
Flags: HW
LayerCount: 2
Fore
SplineSet
549.0234375 459.986328125 m 2
 549.0234375 262.879882812 l 1
 698.569443735 410.533017378 l 129
 730.921358396 434.939251788 786.222981097 404.896521228 774.936523438 365.4765625 c 0
 770.667195957 350.565177711 547.31790503 98.1201171875 500 98.1201171875 c 128
 453.119077915 98.1201171875 231.266438949 349.447535537 226.073242188 365.4765625 c 0
 215.856822789 405.309052505 273.806405144 440.047845731 302.514200858 411.340405592 c 130
 450.9765625 262.879882812 l 1
 450.9765625 459.986328125 l 1
 456.979590389 632.109353341 435.5940674 666.090324115 473.213867188 706.62109375 c 0
 499.473793101 734.912977647 535.871752832 705.55123858 543.463867188 676.803710938 c 0
 547.170898438 664.336914062 549.0234375 592.064453125 549.0234375 459.986328125 c 2
792.626953125 -39.8544921875 m 1
 812.168213543 -59.0766837793 812.168785261 -82.293349246 792.626953125 -101.513671875 c 2
 777.969726562 -116.674804688 l 1
 222.030273438 -116.674804688 l 1
 207.373046875 -101.513671875 l 2
 187.831233974 -82.2917352991 187.831767902 -59.0750262571 207.373046875 -39.8544921875 c 1
 222.030273438 -23.6826171875 l 1
 777.969726562 -23.6826171875 l 1
 792.626953125 -39.8544921875 l 1
EndSplineSet
Validated: 524321
EndChar

StartChar: uniF40A
Encoding: 62474 62474 4
Width: 1000
VWidth: 981
Flags: HW
LayerCount: 2
Fore
SplineSet
549.0234375 355.088867188 m 2
 549.0234375 222.336914062 547.170898438 149.728515625 543.463867188 137.26171875 c 0
 540.007322009 91.9474959738 465.142345129 84.2737287208 457.545898438 137.26171875 c 0
 453.166015625 149.728515625 450.9765625 222 450.9765625 354.077148438 c 2
 450.9765625 551.18359375 l 1
 302.639732974 402.850438838 l 129
 72.0623668072 386.294837338 445.231884424 672.684525023 500 715.944335938 c 1
 565.50304203 685.591347379 741.013170171 503.90382535 777.969726562 441.005859375 c 1
 739.645452847 351.993300354 700.141696947 397.262840553 625.338867188 477.39453125 c 1
 549.0234375 552.1953125 l 1
 549.0234375 355.088867188 l 2
792.626953125 -39.123046875 m 1
 812.168766026 -58.3462306506 812.168232098 -81.5616487007 792.626953125 -100.782226562 c 2
 777.969726562 -115.944335938 l 1
 222.030273438 -115.944335938 l 1
 207.373046875 -100.782226562 l 2
 187.831786457 -81.5600445456 187.831214739 -58.3445696648 207.373046875 -39.123046875 c 1
 222.030273438 -22.951171875 l 1
 777.969726562 -22.951171875 l 1
 792.626953125 -39.123046875 l 1
EndSplineSet
Validated: 524321
EndChar

StartChar: uniF40C
Encoding: 62476 62476 5
Width: 1000
VWidth: 981
Flags: HW
LayerCount: 2
Fore
SplineSet
73.666015625 782.65625 m 0
 81.416015625 787.374023438 109.802734375 790.23828125 158.826171875 791.248046875 c 128
 207.850585938 792.259765625 321.986328125 792.765625 501.234375 792.765625 c 2
 565.421875 792.765625 l 2
 750.734375 792.765625 860.069335938 791.079101562 893.424804688 787.7109375 c 128
 926.782226562 784.341796875 951.041015625 773.22265625 966.203125 754.35546875 c 0
 968.8984375 750.984375 970.919921875 748.626953125 972.268554688 747.278320312 c 2
 990.967773438 724.030273438 l 1
 990.967773438 441.343424479 990.967773437 158.656575521 990.967773438 -124.030273438 c 1
 972.268554688 -147.278320312 l 2
 970.919921875 -148.626953125 968.8984375 -150.984375 966.203125 -154.35546875 c 0
 951.041015625 -173.559570312 926.782226562 -184.762695312 893.424804688 -187.963867188 c 128
 860.069335938 -191.165039062 750.734375 -192.765625 565.421875 -192.765625 c 2
 437.049804688 -192.765625 l 2
 251.736328125 -192.765625 142.317382812 -191.079101562 108.79296875 -187.7109375 c 128
 75.267578125 -184.341796875 51.0927734375 -173.22265625 36.267578125 -154.35546875 c 0
 33.5712890625 -150.984375 31.55078125 -148.626953125 30.203125 -147.278320312 c 2
 11.5029296875 -124.030273438 l 1
 9.4814453125 286.353515625 l 2
 8.1328125 558.932617188 9.818359375 703.140625 14.53515625 718.9765625 c 0
 22.2157415163 745.860837189 48.8440658331 770.536392606 73.666015625 782.65625 c 0
898.48046875 -97.2451171875 m 1
 898.48046875 167.584960937 898.48046875 432.415039063 898.48046875 697.245117188 c 1
 502.247070312 699.266601562 l 2
 238.08984375 700.614257812 105.338867188 698.591796875 103.991210938 693.201171875 c 0
 101.969726562 688.484375 101.294921875 555.395507812 101.969726562 293.935546875 c 2
 103.991210938 -97.2451171875 l 1
 368.820963542 -97.2451171875 633.650716146 -97.2451171875 898.48046875 -97.2451171875 c 1
287.451171875 384.907226562 m 0
 317.877937984 415.325977191 357.272487112 452.174882818 363.008789062 456.673828125 c 128
 394.980848882 481.74852837 447.1230469 452.506996012 437.049804688 413.209960938 c 0
 433.6796875 401.416015625 416.665039062 379.853515625 386.00390625 348.517578125 c 2
 339.5078125 300 l 1
 389.036132812 247.943359375 l 2
 408.578125 227.727539062 421.971679688 212.819335938 429.215820312 203.215820312 c 128
 436.459960938 193.61328125 440.081054688 185.10546875 440.081054688 177.694335938 c 0
 440.081054688 145.646009902 410.037253944 117.284185647 372.864257812 136.25 c 0
 362.41796875 141.641601562 334.958984375 166.911132812 290.483398438 212.060546875 c 0
 283.064331793 223.189146842 261.207876614 243.132839156 256.874023438 247.185546875 c 128
 249.971459594 253.644033299 232.552456116 277.765858375 227.8125 285.34375 c 128
 224.497846826 290.650271322 225.952973021 312.08315527 228.825195312 316.678710938 c 128
 246.421728215 344.833163582 262.982599585 359.116132349 287.451171875 384.907226562 c 0
564.663085938 414.219726562 m 128
 554.644768506 441.166857819 581.899845757 466.147901951 610.40234375 466.78125 c 0
 620.846679688 466.78125 631.0390625 462.991210938 640.978515625 455.41015625 c 128
 649.161442638 449.168232068 683.382322423 415.533693202 714.008789062 384.907226562 c 2
 742.05859375 356.857421875 l 130
 749.330647253 349.58409078 768.451164815 324.28265417 774.151367188 316.678710938 c 128
 777.690410062 311.959987105 779.21034482 290.74139726 775.162109375 285.34375 c 128
 769.694860231 278.054964443 752.528525246 253.611213464 745.596679688 246.680664062 c 128
 741.053041092 242.136175871 720.809191145 223.777263281 712.998046875 212.060546875 c 0
 667.174804688 166.57421875 639.208984375 141.3046875 629.1015625 136.25 c 0
 591.726704384 117.18232277 563.399414062 146.384069722 563.399414062 178.703125 c 0
 563.399414062 185.780273438 566.852539062 194.119140625 573.760742188 203.720703125 c 128
 580.666992188 213.323242188 593.891601562 228.40234375 613.434570312 248.955078125 c 2
 663.974609375 300 l 1
 613.434570312 352.056640625 l 2
 585.805664062 380.358398438 569.548828125 401.080078125 564.663085938 414.219726562 c 128
EndSplineSet
EndChar

StartChar: uniF40D
Encoding: 62477 62477 6
Width: 1000
VWidth: 981
Flags: HW
LayerCount: 2
Fore
SplineSet
902.833007812 -161.935546875 m 130
 314.799804688 -161.935546875 l 1
 300.142578125 -146.7734375 l 2
 280.9375 -127.231445312 279.927734375 -107.3515625 297.111328125 -87.1357421875 c 1
 308.228515625 -72.9853515625 l 1
 505.002868678 -70.9683634696 701.772498348 -68.9466519934 898.537109375 -66.919921875 c 1
 898.537109375 392.993164062 l 1
 804.02734375 392.993164062 l 1
 702.463857908 396.211937857 689.688638425 388.852724351 645.331054688 437.467773438 c 1
 627.643554688 461.728515625 l 1
 626.295085645 531.135905957 624.947096849 600.543776537 623.599609375 669.952148438 c 1
 349.672851562 669.952148438 l 1
 349.672851562 489.525390625 l 129
 302.818452663 417.108421286 254.151367188 474.538206603 254.151367188 581.000976562 c 0
 254.151367188 774.038064431 332.380933884 767.810350492 531.616210938 761.935546875 c 0
 775.888269983 758.63234221 732.084986749 780.848951557 877.81640625 634.57421875 c 0
 1015.95857836 491.653476941 991.908807184 554.913605143 992.036132812 194.876953125 c 2
 992.036132812 -93.201171875 l 1
 972.325195312 -115.438476562 l 1
 955.092960078 -137.380958508 931.640409981 -161.935546875 902.833007812 -161.935546875 c 130
716.087890625 578.98046875 m 1
 724.429504229 456.325112853 693.651537573 490.808185653 813.62890625 485.987304688 c 1
 894.494140625 485.987304688 l 1
 835.159163001 545.758446855 775.689031341 607.4149428 716.087890625 666.919921875 c 1
 716.087890625 578.98046875 l 1
80.2939453125 101.8828125 m 0
 42.1997163367 150.470948475 -12.0953028721 159.769130874 22.1728515625 221.158203125 c 129
 64.6066873498 246.560457957 142.42310078 400.378826079 208.91796875 347.001953125 c 128
 218.572355704 337.057629366 233.065329713 306.203870073 218.900300781 292.03909935 c 130
 118.704101562 191.844726562 l 1
 168.234375 143.326171875 l 2
 201.252929688 109.633789062 218.943359375 89.4169921875 221.30078125 82.6787109375 c 1
 198.154549541 -2.68465693147 151.179312797 11.4704858418 80.2939453125 101.8828125 c 0
486.635742188 285.848632812 m 0
 531.539391755 239.908162807 582.17546871 226.866753393 547.536132812 163.541015625 c 128
 531.895518034 142.765206042 420.05879463 26.5791015625 403.245117188 26.5791015625 c 128
 326.64573951 26.5791015625 332.002881595 102.784857382 398.696289062 139.283203125 c 1
 451.2578125 192.85546875 l 1
 398.696289062 245.416992188 l 1
 360.532400199 294.441368345 318.757951329 308.541986305 362.307617188 346.49609375 c 0
 413.566170786 391.168598404 444.906645007 328.541250358 486.635742188 285.848632812 c 0
EndSplineSet
Validated: 524321
EndChar

StartChar: uniF40E
Encoding: 62478 62478 7
Width: 1000
VWidth: 981
Flags: HW
LayerCount: 2
Fore
SplineSet
130.552734375 296.967773438 m 2
 130.552734375 497.780273438 131.81640625 616.04296875 134.342773438 651.7578125 c 128
 138.42191263 709.379395562 155.502242635 737.350729853 195.243164062 749.806640625 c 0
 262.728793573 770.95851505 528.167444792 765.607643248 595.520507812 748.794921875 c 1
 606.623886506 754.445408958 866.97570073 493.449411917 860.85546875 481.943359375 c 1
 874.850816192 396.015950752 866.797063343 350.698119649 869.447265625 189.823242188 c 1
 869.447265625 166.57421875 l 1
 858.381121944 -41.7944513416 894.268098303 -66.4365547992 824.466796875 -142.729492188 c 1
 800.712890625 -159.913085938 l 1
 199.287109375 -159.913085938 l 1
 175.533203125 -142.729492188 l 1
 100.547854622 -52.0844289489 144.440106309 -15.6037284525 130.552734375 237.330078125 c 1
 130.552734375 296.967773438 l 2
500 667.931640625 m 1
 365.05859375 667.931640625 l 2
 273.75 667.931640625 227.421875 665.573242188 226.073242188 660.85546875 c 0
 224.051757812 656.138671875 223.377929688 533.158203125 224.051757812 291.9140625 c 2
 224.051757812 -68.94140625 l 1
 773.926757812 -68.94140625 l 1
 773.926757812 389.961914062 l 1
 704.691870154 391.314591508 638.48421789 392.662277786 569.239257812 394.004882812 c 1
 545.486328125 412.198242188 l 1
 496.876216858 458.110700667 503.069167652 467.390062528 500 570.89453125 c 1
 500 667.931640625 l 1
592.48828125 560.786132812 m 1
 599.537403513 461.089407226 576.19059731 487.13326919 674.36328125 483.96484375 c 1
 740.5703125 483.96484375 l 1
 691.340500769 533.287766394 641.980918948 584.503379885 592.48828125 633.563476562 c 1
 592.48828125 560.786132812 l 1
EndSplineSet
Validated: 524321
EndChar

StartChar: uniF40F
Encoding: 62479 62479 8
Width: 1000
VWidth: 981
Flags: HW
LayerCount: 2
Fore
SplineSet
565.421875 731.611328125 m 1
 835.737272864 717.871453968 877.617642712 762.314039734 972.268554688 685.114257812 c 1
 990.967773438 662.876953125 l 1
 990.967773438 -62.876953125 l 1
 972.268554688 -85.1142578125 l 1
 878.865767967 -163.415754214 835.033574632 -116.972975602 565.421875 -131.611328125 c 1
 437.049804688 -131.611328125 l 1
 167.120634566 -117.840728315 124.394714721 -162.371915616 30.203125 -85.1142578125 c 1
 11.5029296875 -62.876953125 l 1
 11.5029296875 286.353515625 l 1
 28.7975139656 620.562381448 -37.3129329351 641.718873636 73.666015625 722.008789062 c 1
 195.836792368 737.528267849 257.613809201 728.574693392 501.234375 731.611328125 c 1
 565.421875 731.611328125 l 1
902.520123358 157.987653053 m 1
 902.520123358 636.090820312 l 1
 103.991210938 636.090820312 l 1
 101.969726562 631.373046875 101.294921875 513.952148438 101.969726562 293.935546875 c 2
 101.969726562 -36.0908203125 l 1
 171.208984375 -36.0908203125 l 1
 365.284179688 153.939453125 l 2
 496.012695312 283.321289062 566.270666184 355.230093972 580.078125 358.122070312 c 0
 704.53580711 384.189768708 677.628990095 343.364292878 795.8828125 254.513671875 c 1
 902.520123358 157.987653053 l 1
770.108398438 152.928710938 m 2
 682.842773438 231.771484375 631.544921875 276.499023438 624.805664062 278.520507812 c 1
 307.162109375 -39.123046875 l 1
 898.48046875 -39.123046875 l 1
 899.84193604 -16.0574308317 901.189128803 10.0546863015 902.522460938 33.1484375 c 1
 770.108398438 152.928710938 l 2
331.673828125 543.096679688 m 128
 446.739050842 538.012136055 471.76295079 365.240963692 382.971679688 319.7109375 c 0
 251.146229581 247.365897642 132.124048927 406.498450159 229.077148438 507.971679688 c 128
 256.101136925 537.320095008 280.335915164 545.365217933 331.673828125 543.096679688 c 128
337.486328125 444.038085938 m 0
 306.294537312 484.170892342 254.239484048 398.316618051 316.763671875 392.48828125 c 0
 341.391920789 392.48828125 356.630944731 424.893469332 337.486328125 444.038085938 c 0
EndSplineSet
Validated: 524321
EndChar

StartChar: uniF410
Encoding: 62480 62480 9
Width: 1000
VWidth: 981
Flags: HW
LayerCount: 2
Fore
SplineSet
773.673828125 -39.123046875 m 1
 773.673828125 512.7734375 l 1
 711.099146577 575.53762314 651.292308822 638.037426009 588.192382812 700.276367188 c 1
 469.423828125 700.276367188 l 1
 484.080078125 685.114257812 l 1
 517.697487841 652.638130263 485.81689038 607.283203125 437.583007812 607.283203125 c 128
 389.329278626 607.283203125 357.013427905 653.012148797 391.0859375 685.114257812 c 1
 407.258789062 701.287109375 l 1
 346.425097541 699.957063917 285.607938715 698.610485764 224.809570312 697.245117188 c 1
 224.809570312 -26.9931640625 l 1
 237.444335938 -45.693359375 l 1
 288.298817714 -111.352286542 182.065946267 -156.87992564 150.010742188 -83.5986328125 c 1
 133.33203125 -61.8662109375 l 1
 133.33203125 317.688476562 l 1
 152.730549601 673.797709069 72.4229606771 720.26492834 193.98046875 782.65625 c 0
 258.905815377 815.980215336 550.520611067 799.079248993 626.096679688 781.140625 c 1
 640.393766595 784.617450838 859.592773438 559.22610947 859.592773438 545.624023438 c 0
 859.592773438 453.83240332 866.547699227 408.192243929 869.194335938 236.825195312 c 1
 869.194335938 213.072265625 l 1
 857.352550485 -3.47465569985 892.163340048 -28.8207450928 823.203125 -108.868164062 c 0
 762.621763575 -179.189603988 598.779403725 -75.6011458856 740.317382812 -39.123046875 c 1
 773.673828125 -39.123046875 l 1
560.901367188 607.283203125 m 128
 597.878803999 607.283203125 618.700180503 588.313684522 622.0546875 561.796875 c 128
 624.353488703 500.311820976 495.598826857 499.956332768 499.747070312 561.543945312 c 128
 501.585113605 588.832772337 523.217175952 607.283203125 560.901367188 607.283203125 c 128
376.4296875 469.561523438 m 129
 371.734274117 530.15287455 502.266367002 530.060689138 498.736328125 469.561523438 c 129
 499.667211571 407.378859297 373.028513769 407.783144355 376.4296875 469.561523438 c 129
560.901367188 423.317382812 m 128
 597.949347117 423.317382812 620.443488089 404.704267771 622.0546875 377.073242188 c 128
 625.665287626 315.153790296 495.88694704 315.276125316 499.747070312 377.073242188 c 128
 501.476825536 404.765074334 523.042265572 423.317382812 560.901367188 423.317382812 c 128
437.583007812 330.32421875 m 128
 474.559923765 330.32421875 495.382591304 311.355080071 498.736328125 284.837890625 c 128
 500.306772795 222.106997675 372.918646601 222.064436398 376.4296875 284.5859375 c 128
 377.962541711 311.881645231 399.901488931 330.32421875 437.583007812 330.32421875 c 128
499.747070312 192.096679688 m 129
 494.83581609 253.023746081 625.914774369 252.997040134 622.0546875 192.096679688 c 129
 623.578069442 129.482238083 495.82745179 129.730106349 499.747070312 192.096679688 c 129
345.095703125 -50.748046875 m 0
 345.095703125 72.1544174284 352.671573345 150.088603369 475.994140625 144.3359375 c 0
 584.465351048 139.463549347 591.224609375 71.3625158702 591.224609375 -49.736328125 c 0
 591.224609375 -182.366434491 597.934903096 -192.765625 468.666015625 -192.765625 c 128
 340.098093524 -192.765625 345.095703125 -182.441764423 345.095703125 -50.748046875 c 0
437.583007812 -26.9931640625 m 2
 437.583007812 -100.276367188 l 1
 499.747070312 -100.276367188 l 1
 498.40701403 -49.8976734703 497.059872023 0.473934522712 495.705078125 50.837890625 c 1
 470.939453125 50.837890625 l 1
 417.929105326 57.1769267336 437.583007812 44.3232444628 437.583007812 -26.9931640625 c 2
EndSplineSet
Validated: 524321
EndChar

StartChar: uniF412
Encoding: 62482 62482 10
Width: 1000
VWidth: 982
Flags: HW
LayerCount: 2
Fore
SplineSet
54.6552734375 688.865234375 m 1
 106.692464401 768.300726953 115.906194092 750.484293449 305.838867188 755.830078125 c 128
 422.754882812 755.999023438 489.8046875 752.544921875 506.98828125 745.469726562 c 0
 527.238210603 736.401433989 929.169393518 352.991828987 951.235351562 291.114257812 c 0
 958.983398438 262.138671875 955.893718892 235.181264808 938.346679688 213.030273438 c 128
 903.890076351 169.533025025 630.943225097 -125.691726882 565.108398438 -151.615234375 c 0
 538.465091334 -162.106459254 511.200195312 -153.720703125 486.266601562 -134.684570312 c 129
 473.808385128 -133.238131375 32.1603347717 303.244544635 53.6435546875 296.673828125 c 1
 41.4011246127 293.416443575 42.6405809475 693.185932532 54.6552734375 688.865234375 c 1
306.850585938 662.583984375 m 1
 77.02742951 645.356206454 153.984946212 724.51328059 138.045898438 492.76953125 c 1
 138.045898438 332.557617188 l 1
 271.471498627 199.131654877 404.897598111 65.7061918609 538.32421875 -67.71875 c 1
 648.070454037 42.5519417967 758.074824912 152.564498005 868.348632812 262.307617188 c 1
 734.624158134 395.602348238 601.02823703 529.025632864 467.567382812 662.583984375 c 1
 306.850585938 662.583984375 l 1
384.428710938 498.833984375 m 129
 494.541689188 418.480886585 280.517659071 319.418263079 293.961914062 457.64453125 c 128
 298.70089118 492.088669923 340.995468638 521.26451518 384.428710938 498.833984375 c 129
EndSplineSet
Validated: 524325
EndChar

StartChar: uniF413
Encoding: 62483 62483 11
Width: 1000
VWidth: 982
Flags: HW
LayerCount: 2
Fore
SplineSet
564.354492188 -130.380859375 m 1
 435.982421875 -130.380859375 l 1
 166.052618336 -116.609753392 123.329161491 -161.141568599 29.1357421875 -83.884765625 c 1
 10.4365234375 -61.646484375 l 1
 10.4365234375 287.584960938 l 1
 19.7093905537 574.226065023 -14.7869273779 635.413900923 34.189453125 694.178710938 c 128
 53.7934435319 715.996971603 69.7917984023 730.8203125 112.2734375 730.8203125 c 130
 369.26953125 730.8203125 l 1
 391.001953125 713.130859375 l 2
 406.163085938 700.665039062 423.853515625 680.618164062 444.068359375 652.990234375 c 2
 475.403320312 609.524414062 l 1
 924.19921875 609.524414062 l 1
 947.447265625 587.791992188 l 1
 970.000051793 571.340881699 991.922851562 547.066220127 991.922851562 518.046875 c 130
 991.922851562 -61.646484375 l 1
 971.201171875 -83.884765625 l 1
 877.799390116 -162.187184912 833.96513144 -115.740823023 564.354492188 -130.380859375 c 1
EndSplineSet
Validated: 524321
EndChar

StartChar: uniF414
Encoding: 62484 62484 12
Width: 1000
VWidth: 981
Flags: HW
LayerCount: 2
Fore
SplineSet
991.922851562 516.817382812 m 130
 991.922851562 -62.876953125 l 1
 971.201171875 -85.1142578125 l 1
 877.799513963 -163.417371459 833.9647543 -116.971912949 564.354492188 -131.611328125 c 1
 435.982421875 -131.611328125 l 1
 166.052895725 -117.840948251 123.329185814 -162.371594435 29.1357421875 -85.1142578125 c 1
 10.4365234375 -62.876953125 l 1
 10.4365234375 286.353515625 l 1
 9.0888671875 517.489257812 8.4140625 640.9765625 12.45703125 656.8125 c 0
 35.2228201708 765.314512255 244.717015327 734.116151619 354.866210938 721.250976562 c 128
 376.394658538 718.736502938 378.26874332 717.680686987 390.312361916 702.150628817 c 130
 460.747070312 611.326171875 l 1
 924.19921875 611.326171875 l 1
 947.447265625 586.561523438 l 1
 969.999963806 570.11034522 991.922851562 545.835786409 991.922851562 516.817382812 c 130
561.321289062 332.345703125 m 2
 561.321289062 269.67578125 l 1
 283.3515625 269.67578125 l 1
 268.694335938 253.50390625 l 1
 249.009892653 235.712954429 249.296711522 210.440133097 268.694335938 192.349609375 c 1
 283.3515625 176.682617188 l 1
 561.321289062 176.682617188 l 1
 561.321289062 110.979492188 l 2
 562.02243928 81.531183047 562.142656774 44.7724609375 573.956054688 44.7724609375 c 1
 566.794472777 27.3197607613 789.680993749 229.241301223 771.0625 223.178710938 c 1
 789.629283617 214.052443557 566.27654488 419.370257402 578 403.606445312 c 1
 556.070214963 407.265822627 561.321289062 358.719145207 561.321289062 332.345703125 c 2
EndSplineSet
Validated: 524325
EndChar

StartChar: uniF415
Encoding: 62485 62485 13
Width: 1000
VWidth: 981
Flags: HW
LayerCount: 2
Fore
SplineSet
130.552734375 -48.220703125 m 0
 130.552734375 90.1051295622 213.618290848 181.8455534 303.905273438 243.395507812 c 1
 340.29296875 266.138671875 l 1
 317.55078125 290.90234375 l 1
 184.825292585 428.409255055 283.761186131 698.760742188 513.646484375 698.760742188 c 0
 712.664362158 698.760742188 815.805173001 435.40536062 682.44921875 290.90234375 c 2
 659.70703125 266.138671875 l 1
 696.094726562 243.395507812 l 1
 787.049614703 182.413957944 855.68683263 89.4278691877 869.447265625 -48.220703125 c 0
 871.731958202 -111.086828808 776.856558759 -114.087507176 776.958984375 -51.2529296875 c 0
 767.327611733 177.610499616 463.351443294 299.881187473 304.915039062 125.130859375 c 0
 262.798828125 83.6884765625 226.073242188 32.3238139158 226.073242188 -31.54296875 c 0
 226.073242188 -109.659979552 130.552734375 -121.020579515 130.552734375 -48.220703125 c 0
653.641601562 455.6640625 m 0
 653.641601562 588.104471639 476.555976534 655.791844158 392.349609375 562.80859375 c 0
 335.203580202 499.706197581 332.776674676 407.162992697 392.602539062 347.001953125 c 128
 482.854024167 250.079526184 653.641601562 320.958804071 653.641601562 455.6640625 c 0
EndSplineSet
Validated: 524321
EndChar

StartChar: uniF416
Encoding: 62486 62486 14
Width: 1000
VWidth: 981
Flags: HW
LayerCount: 2
Fore
SplineSet
314.518554688 423.317382812 m 1
 438.846679688 423.317382812 l 1
 469.67578125 392.48828125 l 1
 469.67578125 84.1943359375 l 1
 438.846679688 53.8701171875 l 1
 314.518554688 53.8701171875 l 1
 284.194335938 84.1943359375 l 1
 284.194335938 392.48828125 l 1
 314.518554688 423.317382812 l 1
407.51171875 114.518554688 m 1
 407.51171875 361.153320312 l 1
 346.358398438 361.153320312 l 1
 346.358398438 114.518554688 l 1
 407.51171875 114.518554688 l 1
408.522460938 792.765625 m 1
 408.522460938 750.494847877 450.92526601 731.611328125 500 731.611328125 c 0
 530.997070312 731.611328125 554.24609375 737.84375 569.745117188 750.311523438 c 0
 585.58203125 763.451171875 593.499023438 777.603515625 593.499023438 792.765625 c 1
 776.958984375 792.765625 l 1
 774.936523438 724.030273438 780.497070312 647.208984375 793.63671875 562.301757812 c 1
 792.626953125 562.301757812 l 1
 806.440429688 477.39453125 842.32421875 431.06640625 900.276367188 423.317382812 c 1
 900.276367188 -131.611328125 l 1
 898.938503427 -164.390929195 870.453409244 -190.095676132 839.123046875 -192.765625 c 1
 160.876953125 -192.765625 l 1
 128.099419373 -191.427845615 102.389861129 -162.941442895 99.7236328125 -131.611328125 c 1
 99.7236328125 423.317382812 l 1
 159.0234375 430.393554688 194.90625 476.721679688 207.373046875 562.301757812 c 1
 221.188476562 645.862304688 226.41015625 722.68359375 223.041015625 792.765625 c 1
 408.522460938 792.765625 l 1
839.123046875 -131.611328125 m 1
 839.123046875 361.153320312 l 1
 787.375337234 394.601304414 751.992618777 456.97153796 735.516601562 522.881835938 c 0
 723.723632812 574.094726562 717.154296875 643.671875 715.805664062 731.611328125 c 1
 653.641601562 731.611328125 l 1
 654.989257812 681.071289062 645.217773438 638.786132812 624.328125 604.756835938 c 0
 602.764648438 567.020507812 561.658203125 547.4765625 501.010742188 546.129882812 c 1
 441.374023438 549.499023438 400.267578125 569.041015625 377.694335938 604.756835938 c 0
 355.455078125 641.481445312 345.010742188 683.766601562 346.358398438 731.611328125 c 1
 284.194335938 731.611328125 l 1
 286.215820312 633.227539062 280.65625 556.069335938 267.516601562 500.138671875 c 0
 252.353515625 439.153320312 216.80859375 392.825195312 160.876953125 361.153320312 c 1
 160.876953125 -131.611328125 l 1
 839.123046875 -131.611328125 l 1
561.153320312 423.317382812 m 1
 685.481445312 423.317382812 l 1
 715.805664062 392.48828125 l 1
 715.805664062 84.1943359375 l 1
 685.481445312 53.8701171875 l 1
 561.153320312 53.8701171875 l 1
 530.32421875 84.1943359375 l 1
 530.32421875 392.48828125 l 1
 561.153320312 423.317382812 l 1
653.641601562 114.518554688 m 1
 653.641601562 361.153320312 l 1
 592.48828125 361.153320312 l 1
 592.48828125 114.518554688 l 1
 653.641601562 114.518554688 l 1
EndSplineSet
EndChar

StartChar: uniF41A
Encoding: 62490 62490 15
Width: 1000
VWidth: 981
Flags: HW
LayerCount: 2
Fore
SplineSet
500 731.42578125 m 0
 567.958576754 731.882863497 558.72736084 580.697839293 481.805664062 611.8984375 c 129
 438.711967823 634.047230415 444.178900168 731.42578125 500 731.42578125 c 0
22.90234375 592.44140625 m 1
 48.489104862 619.676379629 71.9438780555 605.973684739 97.7021484375 581.828125 c 0
 113.387754201 567.672714058 358.629417099 343.114079632 369.1015625 324.579101562 c 0
 411.445350382 249.633505438 124.248529493 59.7070081774 97.7021484375 17.8017578125 c 0
 79.0961349011 -11.5690876491 48.5551310272 -20.1177527254 22.90234375 7.1875 c 1
 7.234375 21.8447265625 l 1
 7.234375 577.78515625 l 1
 22.90234375 592.44140625 l 1
179.576171875 219.9609375 m 1
 286.047396035 336.201024332 286.04741493 263.350739209 179.576171875 379.66796875 c 1
 99.7236328125 455.477539062 l 1
 99.7236328125 144.151367188 l 1
 179.576171875 219.9609375 l 1
898.254882812 578.794921875 m 0
 927.871667347 605.294308668 949.122037274 622.107305884 977.09765625 592.44140625 c 1
 992.765625 577.78515625 l 1
 992.765625 21.8447265625 l 1
 977.09765625 7.1875 l 1
 949.134787891 -22.4673343112 927.023040912 -4.35497893542 898.254882812 21.8447265625 c 0
 876.752633842 41.4766551558 650.046512294 254.30970557 630.8984375 275.048828125 c 1
 617.324263292 361.359595157 648.498634165 330.996496317 742.338867188 431.977539062 c 128
 808.597340148 503.277976783 865.236328125 547.797851562 898.254882812 578.794921875 c 0
897.245117188 222.993164062 m 2
 897.91796875 274.208007812 899.939453125 325.421875 899.266601562 376.635742188 c 2
 899.266601562 451.434570312 l 1
 845.48659131 401.438864419 790.233976554 350.894278654 737.538085938 299.814453125 c 1
 790.241724021 248.742375063 843.457376803 198.182311699 897.245117188 148.194335938 c 1
 897.245117188 222.993164062 l 2
500 545.9453125 m 0
 568.364280469 546.534380403 558.338998269 395.87262039 481.805664062 426.41796875 c 129
 438.788643506 448.520426297 444.003564526 545.9453125 500 545.9453125 c 0
518.194335938 241.946289062 m 129
 441.592893387 212.51353148 429.434015399 360.143777045 500 360.967773438 c 0
 553.773500673 360.967773438 561.015404952 263.951512758 518.194335938 241.946289062 c 129
500 176.49609375 m 0
 568.366854317 177.086750098 558.335395811 26.4274997313 481.805664062 56.9697265625 c 129
 438.793639578 79.0765427856 443.99810939 176.49609375 500 176.49609375 c 0
518.194335938 -127.500976562 m 129
 440.519945515 -157.909730929 430.568891131 -3.65911828815 501.263671875 -7.7216796875 c 128
 553.473728244 -10.1242828344 561.762291271 -105.111937122 518.194335938 -127.500976562 c 129
EndSplineSet
Validated: 524321
EndChar

StartChar: uniF41B
Encoding: 62491 62491 16
Width: 1000
VWidth: 982
Flags: HW
LayerCount: 2
Fore
SplineSet
499.747070312 -189.6171875 m 128
 124.455082003 -189.6171875 -132.8679707 262.324444218 93.1533203125 577.075195312 c 0
 193.083539369 719.90314191 366.298265893 838.024877985 616.241210938 779.235351562 c 0
 826.95911087 729.672018044 983.514039829 566.620357328 989.732421875 300.116210938 c 0
 997.84942735 33.2289832065 766.848892357 -189.6171875 499.747070312 -189.6171875 c 128
856.8125 478.522460938 m 0
 782.785005727 623.734301099 607.009890468 740.616986716 388.053710938 683.967773438 c 128
 196.287174403 634.353172694 15.7507978715 378.23102418 143.1875 121.7109375 c 0
 222.097315516 -43.9447033311 451.29933655 -163.587778791 678.407226562 -56.6962890625 c 0
 830.621608578 14.9455286256 972.761935467 255.022316779 856.8125 478.522460938 c 0
455.272460938 497.474609375 m 128
 455.272460938 528.308760635 469.978467894 545.741210938 499.747070312 545.741210938 c 128
 563.07797939 545.741210938 549.0234375 476.407781142 549.0234375 392.60546875 c 0
 549.0234375 298.360054492 561.541599211 247.926412592 500 238.962890625 c 128
 424.164178659 227.917417983 455.272460938 416.358235809 455.272460938 497.474609375 c 128
469.67578125 168.20703125 m 0
 566.722563247 215.394550982 595.242048097 53.0702596916 500 53.986328125 c 1
 439.61448267 49.4384957887 415.783293729 144.556871121 469.67578125 168.20703125 c 0
EndSplineSet
Validated: 524321
EndChar

StartChar: uniF41E
Encoding: 62494 62494 17
Width: 1000
VWidth: 982
Flags: HW
LayerCount: 2
Fore
SplineSet
467.522460938 723.030273438 m 0
 567.227716698 788.774558605 596.952099683 544.423057058 656.541992188 477.40625 c 0
 678.095900315 453.346977121 1006.83386848 474.926043839 951.189453125 373.799804688 c 0
 947.822265625 365.375 914.295898438 330.333984375 850.616210938 268.674804688 c 2
 755.094726562 177.703125 l 1
 797.181192857 -73.8777674872 l 129
 797.058368035 -189.357759443 675.653045016 -97.4733870681 624.196289062 -73.4794921875 c 0
 446.746262196 9.40579447214 556.296255343 9.40581336731 377.561523438 -73.4794921875 c 0
 327.480981691 -98.2507163576 300.284829074 -119.959612449 248.9375 -132.611328125 c 128
 214.033366734 -141.211525603 197.171150418 -110.961993534 203.356629844 -74.2613229129 c 130
 245.65234375 176.694335938 l 1
 60.3425763737 358.275920323 l 129
 25.5036486525 395.77744339 52.810215444 433.043526222 99.591796875 438.995117188 c 128
 139.756154229 444.104859506 343.499208883 475.992462548 344.205078125 477.40625 c 2
 344.205078125 491.556640625 l 1
 369.165850209 541.478184793 454.085685137 714.17024682 467.522460938 723.030273438 c 0
EndSplineSet
Validated: 524321
EndChar

StartChar: uniF41F
Encoding: 62495 62495 18
Width: 1000
VWidth: 981
Flags: HW
LayerCount: 2
Fore
SplineSet
69.3115234375 389.27734375 m 1
 82.1905127863 635.260897397 17.015160546 707.633318056 209.307617188 728.65234375 c 128
 251.423828125 729.833007812 348.29296875 730.421875 499.913085938 730.421875 c 2
 553.989257812 730.421875 l 1
 791.552802781 717.40804525 826.213567639 759.757742356 909.791015625 683.92578125 c 1
 928.491210938 661.686523438 l 1
 928.491210938 140.114257812 l 129
 925.381292247 113.761590035 907.933844691 91.5199091093 886.038085938 73.908203125 c 2
 862.7890625 55.2080078125 l 1
 565.108398438 55.2080078125 l 1
 402.675424406 -111.788324196 l 129
 330.318106043 -162.49287728 233.184912556 -110.876211289 253.782226562 -3.9248046875 c 1
 253.782226562 51.669921875 l 1
 196.166992188 51.669921875 l 1
 35.6389073714 80.5601748304 77.771849341 135.267330787 69.3115234375 368.555664062 c 1
 69.3115234375 389.27734375 l 1
501.93359375 634.901367188 m 1
 83.4436934389 591.36707977 168.268077057 772.918558722 162.810546875 385.739257812 c 1
 162.810546875 148.201171875 l 1
 302.806640625 148.201171875 l 129
 329.554589752 139.801350099 346.270507812 126.607245927 346.270507812 97.6611328125 c 130
 346.270507812 -37.2802734375 l 1
 405.739741193 22.5249072443 465.208502993 82.3305595072 524.676757812 142.13671875 c 1
 836.002929688 142.13671875 l 1
 836.002929688 634.901367188 l 1
 501.93359375 634.901367188 l 1
EndSplineSet
Validated: 524321
EndChar

StartChar: uniF420
Encoding: 62496 62496 19
Width: 1000
VWidth: 982
Flags: HW
LayerCount: 2
Fore
SplineSet
499.747070312 -189.6171875 m 128
 124.455082003 -189.6171875 -132.8679707 262.324444218 93.1533203125 577.075195312 c 0
 193.083539369 719.90314191 366.298265893 838.024877985 616.241210938 779.235351562 c 0
 826.95911087 729.672018044 983.514039829 566.620357328 989.732421875 300.116210938 c 0
 997.84942735 33.2289832065 766.848892357 -189.6171875 499.747070312 -189.6171875 c 128
856.8125 478.522460938 m 0
 782.785005727 623.734301099 607.009890468 740.616986716 388.053710938 683.967773438 c 128
 196.287174403 634.353172694 15.7507978715 378.23102418 143.1875 121.7109375 c 0
 222.097315516 -43.9447033311 451.29933655 -163.587778791 678.407226562 -56.6962890625 c 0
 830.621608578 14.9455286256 972.761935467 255.022316779 856.8125 478.522460938 c 0
651.619140625 392.60546875 m 0
 651.619140625 322.464146228 567.9646183 290.110695968 534.3671875 255.641601562 c 0
 484.640384064 204.624668384 427.818261626 289.4757388 476.247070312 326.90234375 c 0
 505.72059843 349.679986299 608.256268094 404.055702555 533.861328125 445.418945312 c 128
 450.044835787 492.020527639 425.56712996 350.050194659 361.015625 407.767578125 c 0
 329.741154857 439.037149001 351.310791855 466.789048868 378.703125 496.211914062 c 0
 456.269501142 593.710801063 651.619140625 539.188320648 651.619140625 392.60546875 c 0
469.67578125 168.20703125 m 0
 566.722563247 215.394550982 595.242048097 53.0702596916 500 53.986328125 c 1
 439.61448267 49.4384957887 415.783293729 144.556871121 469.67578125 168.20703125 c 0
EndSplineSet
Validated: 524321
EndChar

StartChar: uniF421
Encoding: 62497 62497 20
Width: 1000
VWidth: 982
Flags: HW
LayerCount: 2
Fore
SplineSet
586.900390625 -155.848632812 m 1
 169.845682471 -121.783829065 63.2913382117 -222.388112684 25.9052734375 -45.6708984375 c 1
 101.621071116 152.200983383 299.192164702 491.416182269 397.375 677.05078125 c 128
 439.017659393 755.784689814 519.688896817 788.442078347 569.716796875 724.053710938 c 0
 702.940521538 552.588226251 884.672584399 177.771838293 971.002929688 -31.51953125 c 0
 991.347197788 -80.8403085377 969.282585742 -92.3225640716 938.658203125 -122.491210938 c 2
 904.796875 -155.848632812 l 1
 586.900390625 -155.848632812 l 1
867.396484375 -38.5947265625 m 1
 795.230449017 119.881681209 588.615431714 540.749640873 500.981445312 663.911132812 c 1
 537.026809214 767.830819988 103.692140642 -42.6376953125 125.469726562 -42.6376953125 c 0
 290.241340609 -42.6376953125 684.174908778 -66.0479798701 867.396484375 -38.5947265625 c 1
529.03125 237.353515625 m 129
 415.240058442 153.202418296 428.789983591 539.302063666 526.7578125 437.4921875 c 1
 556.347740366 414.833286579 549.423570198 278.931066902 529.03125 237.353515625 c 129
445.893554688 72.5927734375 m 1
 402.57895526 179.283479284 616.852206986 152.567851319 536.359375 51.87109375 c 1
 500.107108836 17.0985119193 466.998689213 33.1858298053 445.893554688 72.5927734375 c 1
EndSplineSet
Validated: 524321
EndChar

StartChar: uniF422
Encoding: 62498 62498 21
Width: 1000
VWidth: 982
Flags: HW
LayerCount: 2
Fore
SplineSet
914.281847963 -48.5743687424 m 129
 963.264012079 -91.674375039 897.598860957 -159.871787326 850.826229566 -113.569207527 c 130
 666.178710938 69.22265625 l 1
 648.995117188 58.1044921875 l 1
 320.533465212 -162.214946313 -73.916751005 216.860054594 116.809570312 542.530273438 c 128
 164.607050949 624.145730976 242.814237915 694.410590459 346.766601562 719.672851562 c 0
 683.58302009 799.009534085 924.714939917 442.123500048 741.989257812 152.108398438 c 1
 730.869140625 133.9140625 l 1
 914.281847963 -48.5743687424 l 129
394.779296875 89.9453125 m 0
 634.720245746 36.8374682184 827.332324278 365.298626185 632.317382812 556.934570312 c 0
 441.41439291 744.529810101 125.241224291 563.138780885 164.317382812 334.557617188 c 128
 186.474611148 204.945976 268.363575457 117.925807198 394.779296875 89.9453125 c 0
EndSplineSet
Validated: 524321
EndChar

StartChar: uniF423
Encoding: 62499 62499 22
Width: 1000
VWidth: 981
Flags: HW
LayerCount: 2
Fore
SplineSet
130.552734375 300.504882812 m 128
 130.552734375 376.015545797 30.4086506309 393.206396213 44.634765625 468.803710938 c 0
 60.1535682314 551.270343976 113.673853088 660.95706167 234.665039062 614.86328125 c 1
 285.205078125 602.228515625 l 1
 313.5078125 618.907226562 l 1
 372.167170919 634.123322247 361.990637585 778.139738273 434.803710938 786.1953125 c 0
 492.890993712 792.621719139 580.240748411 795.618386194 608.408203125 754.1015625 c 128
 636.560066148 712.60771985 633.222014403 630.941223351 688.0078125 617.896484375 c 1
 715.805664062 602.228515625 l 1
 765.334960938 614.86328125 l 1
 894.023460798 660.503146195 945.124172002 539.455016371 953.342773438 447.576171875 c 128
 955.131691444 399.019858524 869.448242188 366.442110284 869.448242188 300.504882812 c 128
 869.448242188 232.288297361 970.919990581 190.774757678 955.365234375 132.20703125 c 0
 933.618534539 50.325017167 886.246291386 -59.5343412144 765.334960938 -13.853515625 c 1
 715.805664062 -1.2177734375 l 1
 688.0078125 -16.8857421875 l 1
 609.892584431 -55.6365240882 652.998642354 -192.259765625 500 -192.259765625 c 128
 354.651981201 -192.259765625 387.796545865 -60.5083202769 311.9921875 -16.8857421875 c 2
 284.194335938 -1.2177734375 l 1
 234.665039062 -13.853515625 l 1
 112.981510484 -59.5564676079 60.382523838 49.28958873 44.634765625 132.20703125 c 0
 30.3408142717 207.469673316 130.552734375 225.257755537 130.552734375 300.504882812 c 128
541.442382812 690.674804688 m 0
 541.442382812 703.499303773 466.355962788 703.965136544 461.58984375 692.948242188 c 128
 438.02862058 582.509616039 349.595401685 485.70205864 223.041015625 523.38671875 c 0
 162.736050687 541.343995281 176.976861697 536.152476062 148.2421875 489.525390625 c 1
 136.112304688 466.27734375 l 1
 170.984375 429.381835938 l 1
 241.401318244 377.257734802 240.937893064 225.726317149 170.984375 171.62890625 c 1
 136.112304688 134.734375 l 1
 148.2421875 111.486328125 l 1
 176.923779317 65.5672070782 162.814211693 59.6271050636 223.041015625 77.6240234375 c 0
 354.155681209 116.803587686 438.794484556 15.8943307098 461.58984375 -91.9384765625 c 129
 516.560063003 -107.372777424 547.324868953 -101.995470083 558.122070312 -35.5859375 c 0
 571.344618468 45.7409928166 675.236499502 106.783504428 776.958984375 77.6240234375 c 0
 837.453295082 60.2828947256 823.022755125 64.859455167 851.7578125 111.486328125 c 1
 863.887695312 134.734375 l 1
 829.015625 171.62890625 l 1
 758.597855184 223.753876575 759.062951449 375.284909465 829.015625 429.381835938 c 1
 863.887695312 466.27734375 l 1
 851.7578125 489.525390625 l 1
 823.075823161 535.444510344 837.364425497 540.824354239 776.958984375 523.38671875 c 0
 649.192785096 486.503610716 541.442382812 578.636256991 541.442382812 690.674804688 c 0
671.078125 368.481445312 m 128
 705.341787435 235.812792164 635.123823547 123.098952088 500 117.044921875 c 128
 339.489391743 109.853472977 267.402640245 305.137504794 364.30078125 425.0859375 c 128
 438.186177355 516.547315094 640.91848403 485.259357028 671.078125 368.481445312 c 128
407.51171875 300.504882812 m 0
 406.66379233 184.537344025 593.84276332 179.968555539 592.48828125 300.504882812 c 129
 600.685712592 409.841605776 408.54014384 425.109128518 407.51171875 300.504882812 c 0
EndSplineSet
Validated: 524321
EndChar

StartChar: uniF424
Encoding: 62500 62500 23
Width: 1000
VWidth: 982
Flags: HW
LayerCount: 2
Fore
SplineSet
193.962890625 630.201171875 m 0
 67.3287951032 525.588864417 65.0707498593 225.705267849 190.424804688 116.71484375 c 0
 252.38855589 62.8397973338 192.34445753 -6.61984640131 137.86328125 36.3564453125 c 128
 -13.9168783978 156.08492518 -30.8547296995 558.159733093 135.3359375 702.979492188 c 0
 195.885086829 755.742462376 254.285932651 680.033980276 193.962890625 630.201171875 c 0
803.474609375 630.201171875 m 0
 744.372212339 681.253466296 805.304459809 757.791369575 860.080078125 705.504882812 c 128
 1030.28602395 542.874728746 1041.51127696 154.687159818 839.86328125 22.205078125 c 0
 788.73939279 -11.3831514203 753.596635442 68.2250522762 803.474609375 112.670898438 c 0
 929.237499819 224.737160171 930.731081724 520.277797879 803.474609375 630.201171875 c 0
261.180664062 565.004882812 m 0
 317.934918721 619.948566428 366.615315542 550.047782641 320.3125 491.215820312 c 0
 252.206476678 404.680888223 272.581111379 319.422403136 332.947265625 228.913085938 c 0
 357.663391514 191.855239435 319.311450135 139.155937267 280.891601562 161.189453125 c 0
 170.960707369 224.234056123 167.789650785 474.593224394 261.180664062 565.004882812 c 0
663.478515625 228.913085938 m 0
 721.662553794 303.970331718 711.883700545 425.495685307 664.490234375 512.948242188 c 0
 618.655194518 597.525120692 735.536192087 604.958475951 772.645507812 509.916015625 c 0
 814.578404629 402.519648861 812.51084918 282.655369627 751.923828125 197.579101562 c 0
 726.317382812 160.852539062 701.720703125 149.229492188 678.134765625 162.706054688 c 0
 653.849286704 175.834214646 643.529815086 203.179318285 663.478515625 228.913085938 c 0
498.71875 476.306640625 m 128
 602.67398476 476.306640625 635.948633284 346.270195475 566.948242188 289.056640625 c 2
 548.249023438 273.388671875 l 1
 548.249023438 104.584960938 l 2
 548.249023438 -8.287109375 546.227539062 -70.9560546875 542.18359375 -83.4228515625 c 0
 538.394589611 -129.186665462 463.786288958 -136.890768904 455.254882812 -83.4228515625 c 0
 451.2109375 -70.9560546875 449.358398438 -8.287109375 449.6953125 104.584960938 c 2
 449.6953125 273.388671875 l 1
 430.489257812 289.056640625 l 2
 361.721182388 345.953184023 394.428865936 476.306640625 498.71875 476.306640625 c 128
EndSplineSet
Validated: 524321
EndChar

StartChar: uniF425
Encoding: 62501 62501 24
Width: 1000
VWidth: 981
Flags: HW
LayerCount: 2
Fore
SplineSet
346.358398438 496.331054688 m 130
 346.358398438 663.366210938 l 1
 304.915039062 626.9765625 l 1
 227.849768981 548.695962715 199.618088437 435.38299927 251.848632812 310.596679688 c 0
 285.635961557 229.873867913 405.995117188 205.752060093 405.995117188 103.888671875 c 128
 405.995117188 34.7148106025 428.715639951 -178.630356875 341.809570312 -151.086914062 c 128
 285.689920701 -133.30071839 310.657380444 -113.272576577 310.979492188 -0.7294921875 c 2
 310.979492188 109.447265625 l 1
 298.850585938 121.576171875 l 1
 213.824725011 193.238131248 130.552734375 282.170333585 130.552734375 432.903320312 c 128
 130.552734375 580.395198451 203.846712499 686.336354575 298.850585938 741.197265625 c 0
 368.217394563 781.253804165 438.846679688 724.331238234 438.846679688 658.3125 c 130
 438.846679688 469.291992188 l 1
 464.622070312 451.603515625 l 2
 498.856464226 428.017188104 501.130434079 428.017244789 535.377929688 451.603515625 c 2
 561.153320312 469.291992188 l 1
 561.153320312 656.038085938 l 129
 567.951836047 717.866765828 615.077558098 774.961898624 686.4921875 747.26171875 c 0
 836.50068843 689.076687292 927.985083569 435.586220133 824.97265625 258.541015625 c 0
 807.199473115 223.652844738 732.170710498 144.291403794 701.149414062 121.576171875 c 1
 683.459960938 109.447265625 l 1
 683.459960938 -0.7294921875 l 1
 688.176757812 -74.1806640625 698.009395153 -117.942907984 691.041992188 -125.057617188 c 0
 582.194626614 -236.206255706 594.004882812 26.3133005626 594.004882812 104.140625 c 128
 594.004882812 203.683599973 710.786916647 228.84592498 745.624023438 305.541992188 c 0
 802.324758611 430.372203311 774.332857563 547.942203433 694.073242188 626.9765625 c 2
 656.673828125 663.366210938 l 1
 656.673828125 453.625976562 l 129
 633.924149076 403.431795012 572.800429077 339.91015625 500 339.91015625 c 0
 417.895816641 339.91015625 346.358398438 396.289378104 346.358398438 496.331054688 c 130
EndSplineSet
Validated: 524321
EndChar

StartChar: uniF426
Encoding: 62502 62502 25
Width: 1000
VWidth: 982
Flags: HW
LayerCount: 2
Fore
SplineSet
130.552734375 698.266601562 m 0
 166.374495253 764.303243586 524.666488035 741.856490183 372.638671875 639.135742188 c 129
 195.243164062 639.135742188 l 1
 195.243164062 -36.0791015625 l 1
 372.891601562 -36.0791015625 l 129
 396.377558597 -46.9524633457 425.360403 -89.2311359931 392.349609375 -115.932617188 c 1
 376.681640625 -131.599609375 l 1
 307.437068404 -130.256942013 238.197370958 -128.909399875 168.962890625 -127.556640625 c 1
 145.208984375 -109.8671875 l 1
 71.0753932317 -25.0846056083 112.925345126 7.2082330825 99.7236328125 244.923828125 c 1
 99.7236328125 299.000976562 l 1
 110.489319291 558.844649343 77.422331319 600.374024501 130.552734375 698.266601562 c 0
567.21875 250.98828125 m 2
 452.998046875 250.98828125 390.497070312 252.841796875 379.71484375 256.546875 c 0
 332.607873006 268.610698338 335.126252448 343.779044371 393.61328125 343.4765625 c 130
 743.602539062 343.4765625 l 1
 680.427734375 406.651367188 l 1
 628.199043966 470.928404162 602.980614849 460.536819122 608.9140625 512.280273438 c 128
 611.388973477 533.863078344 630.910382798 546.141601562 656.673828125 546.141601562 c 1
 717.638714477 514.513059025 872.477982597 359.739518797 900.276367188 300.012695312 c 129
 873.294911862 239.623225368 717.03700638 86.3534798645 656.673828125 53.8818359375 c 1
 573.495136259 81.4503762606 609.350668125 131.378128081 677.39453125 190.845703125 c 1
 737.538085938 250.98828125 l 1
 567.21875 250.98828125 l 2
EndSplineSet
Validated: 524321
EndChar

StartChar: uniF427
Encoding: 62503 62503 26
Width: 1000
VWidth: 982
Flags: HW
LayerCount: 2
Fore
SplineSet
746.051757812 -22.6494140625 m 129
 701.928146149 -93.9678016395 570.711726616 -157.756901141 499.921875 -192.211914062 c 1
 434.500200129 -162.965388919 448.473463445 -106.695405979 412.993164062 -20.880859375 c 1
 398.336914062 29.6591796875 l 1
 233.879656491 191.213480666 l 129
 180.680467304 218.917866162 29.3575677652 257.047795596 26.8662109375 268.208007812 c 1
 -29.3677123111 318.930362925 68.9470155066 402.755845089 93.328125 454.1953125 c 128
 110.918388618 491.307396853 140.076652131 527.213417151 177.224609375 546.68359375 c 129
 404.401367188 546.68359375 l 1
 472.125 613.901367188 l 2
 585.06610212 726.400722008 671.748084618 783.830457928 863.811523438 792.307617188 c 0
 1084.80145095 802.061513201 967.738605729 468.798913279 903.737304688 377.375 c 0
 889.921875 355.809570312 859.766601562 320.938476562 813.270507812 272.756835938 c 2
 746.051757812 205.032226562 l 1
 746.051757812 -22.6494140625 l 129
899.188476562 697.797851562 m 1
 860.77734375 697.797851562 l 1
 558.691236092 676.579449499 447.77670808 447.952692594 315.451171875 245.463867188 c 1
 317.978570243 249.164716272 429.183043601 105.554541853 457.46875 122.147460938 c 0
 667.537568356 271.42491134 890.254669502 378.555488883 899.188476562 665.958007812 c 1
 899.188476562 697.797851562 l 1
334.150390625 454.1953125 m 1
 204.263671875 454.1953125 l 1
 177.4765625 412.751953125 l 2
 156.586914062 379.395507812 143.447265625 358.168945312 138.055664062 349.072265625 c 2
 124.41015625 327.33984375 l 1
 221.293122604 295.967876949 l 129
 243.376665656 278.469897905 326.295319565 443.313715363 334.150390625 454.1953125 c 1
650.53125 133.771484375 m 1
 654.363271083 140.624534203 489.922022767 32.8890445628 497.900390625 36.23046875 c 1
 495.205078125 32.8603515625 499.416015625 13.4873046875 510.53515625 -21.8916015625 c 2
 527.71875 -74.9580078125 l 1
 568.757087535 -49.4524000346 609.696944515 -23.848311703 650.53125 1.861328125 c 1
 650.53125 133.771484375 l 1
654.57421875 538.090820312 m 0
 751.51811867 585.194450334 779.85096644 423.831129925 685.404296875 423.87109375 c 0
 624.587961103 423.87109375 601.705347644 510.106013227 654.57421875 538.090820312 c 0
31.669921875 -169.215820312 m 129
 36.9990338458 -56.2213589293 72.6668288508 85.1585027111 203.505859375 46.8427734375 c 129
 339.714822178 -43.0830212487 166.128876977 -189.968426699 31.669921875 -169.215820312 c 129
EndSplineSet
Validated: 524321
EndChar

StartChar: uniF428
Encoding: 62504 62504 27
Width: 1000
VWidth: 982
Flags: HW
LayerCount: 2
Fore
SplineSet
195.087890625 574.5625 m 0
 122.22589484 574.5625 112.15922293 675.808326555 182.958984375 669.32421875 c 128
 561.799102698 634.628619247 821.150662212 364.85672779 867.26953125 -7.6591796875 c 0
 873.514955451 -58.1053400639 830.55056968 -84.2464888516 796.513671875 -56.177734375 c 0
 777.319522226 -42.7370999417 777.893098194 -25.065414507 773.771484375 13.0625 c 0
 725.473270597 321.58731898 512.135028605 574.5625 195.087890625 574.5625 c 0
180.432617188 267.279296875 m 0
 130.008116109 274.737932254 114.834697684 355.724609375 164.763671875 355.724609375 c 0
 388.831433944 355.724609375 555.943359375 184.849461741 555.943359375 -37.478515625 c 0
 555.943359375 -95.5995966459 465.477539062 -65.73116566 465.477539062 -9.681640625 c 0
 465.477539062 135.948304618 326.326825458 245.699079318 180.432617188 267.279296875 c 0
163.75390625 45.4072265625 m 0
 261.726699952 92.1902418372 288.044793252 -68.9722120804 194.077148438 -68.8125 c 0
 133.401679327 -68.8125 111.267590751 17.62193281 163.75390625 45.4072265625 c 0
EndSplineSet
Validated: 524321
EndChar

StartChar: uniF429
Encoding: 62505 62505 28
Width: 1000
VWidth: 981
Flags: HW
LayerCount: 2
Fore
SplineSet
669.30859375 715.944335938 m 1
 694.303365299 697.840820526 693.988320801 492.800499655 669.30859375 469.30859375 c 1
 654.651367188 453.641601562 l 1
 345.348632812 453.641601562 l 1
 330.69140625 469.30859375 l 1
 305.42883186 483.795419219 306.618529563 685.179125912 330.69140625 715.944335938 c 1
 345.348632812 731.611328125 l 1
 654.651367188 731.611328125 l 1
 669.30859375 715.944335938 l 1
592.48828125 546.129882812 m 1
 592.48828125 639.123046875 l 1
 407.51171875 639.123046875 l 1
 407.51171875 546.129882812 l 1
 592.48828125 546.129882812 l 1
223.041015625 -36.0908203125 m 1
 773.926757812 -36.0908203125 l 1
 773.926757812 566.345703125 l 1
 762.301757812 585.045898438 l 1
 710.659481049 650.292942177 816.866205228 694.72433353 848.725585938 622.4453125 c 1
 866.415039062 599.702148438 l 1
 866.415039062 -62.876953125 l 1
 847.715820312 -85.1142578125 l 1
 772.937787586 -157.591023346 746.247156028 -119.707852888 534.3671875 -131.611328125 c 1
 465.6328125 -131.611328125 l 1
 254.139579805 -119.733403112 227.915964521 -158.162115796 152.284179688 -85.1142578125 c 1
 133.584960938 -62.876953125 l 1
 133.584960938 598.69140625 l 1
 148.2421875 619.412109375 l 1
 165.416028773 637.8179327 192.409005182 675.57835176 228.094726562 653.780273438 c 0
 257.328978931 635.922976508 260.464795722 611.71528972 237.698242188 585.045898438 c 1
 223.041015625 566.345703125 l 1
 223.041015625 -36.0908203125 l 1
EndSplineSet
Validated: 524321
EndChar

StartChar: uniF42A
Encoding: 62506 62506 29
Width: 1000
VWidth: 982
Flags: HW
LayerCount: 2
Fore
SplineSet
130.568359375 698.266601562 m 0
 166.391372066 764.302582429 524.683872133 741.857602314 372.655273438 639.135742188 c 129
 195.260742188 639.135742188 l 1
 195.260742188 -36.0791015625 l 1
 372.909179688 -36.0791015625 l 129
 396.393638123 -46.9527351278 425.376832755 -89.2312747594 392.3671875 -115.932617188 c 1
 376.698242188 -131.599609375 l 1
 307.453669967 -130.256942013 238.21397252 -128.909399875 168.979492188 -127.556640625 c 1
 145.225585938 -109.8671875 l 1
 71.0938906942 -25.0838163093 112.941232451 7.20885286517 99.740234375 244.923828125 c 1
 99.740234375 299.000976562 l 1
 110.505063509 558.844281822 77.4405325474 600.373266889 130.568359375 698.266601562 c 0
680.444335938 250.98828125 m 2
 509.114257812 250.98828125 l 1
 569.256835938 190.845703125 l 2
 608.678710938 150.75 630.579101562 125.985351562 634.958984375 116.551757812 c 0
 653.312965449 82.2421170321 619.329519423 53.8818359375 589.47265625 53.8818359375 c 1
 529.252023158 85.6215764253 373.36179611 239.90393498 346.375 300.012695312 c 257
 372.757635562 361.2200827 529.857682302 514.100063174 589.47265625 546.141601562 c 1
 673.393031907 516.686050922 637.920051446 470.660548111 566.223632812 406.651367188 c 1
 503.048828125 343.4765625 l 1
 852.786132812 343.4765625 l 2
 910.989911833 344.028598726 913.037594236 269.259028166 867.443359375 256.546875 c 0
 856.323242188 252.841796875 793.991210938 250.98828125 680.444335938 250.98828125 c 2
EndSplineSet
Validated: 524321
EndChar

StartChar: uniF42B
Encoding: 62507 62507 30
Width: 1000
VWidth: 982
Flags: HW
LayerCount: 2
Fore
SplineSet
7.5517578125 323.952148438 m 1
 23.942548432 636.82054709 -33.5671294681 679.495405407 72.75 792.961914062 c 1
 677.712890625 792.961914062 l 1
 701.466796875 772.241210938 l 1
 723.45660104 754.968380104 746.447265625 731.506756879 746.447265625 693.904296875 c 130
 746.447265625 -100.078125 l 1
 796.839312319 -98.7514216939 847.211753699 -97.4051130743 897.561523438 -96.0361328125 c 1
 898.90918491 33.3463489445 900.256841235 162.728835849 901.604492188 292.111328125 c 1
 864.205078125 315.865234375 l 2
 835.229492188 334.396484375 813.614700677 349.908743782 811.390625 365.39453125 c 128
 801.921863038 431.323598709 873.814095326 431.018332237 924.34765625 387.126953125 c 0
 955.575642457 360.003604672 992.071289062 341.961308753 992.071289062 318.140625 c 130
 992.071289062 -122.822265625 l 1
 971.350585938 -146.071289062 l 2
 953.109865036 -167.596124483 931.866652363 -191.556640625 907.1640625 -191.556640625 c 130
 438.153320312 -191.556640625 l 1
 423.49609375 -175.889648438 l 1
 407.175629421 -161.200994048 408.83984375 -149.909688519 408.83984375 -114.735351562 c 2
 408.83984375 -68.2392578125 l 1
 346.67578125 -68.2392578125 l 1
 346.67578125 -114.735351562 l 2
 346.67578125 -152.011873162 348.0000911 -160.716179917 331.0078125 -176.899414062 c 2
 315.845703125 -192.567382812 l 1
 236.001595279 -191.210969825 156.148729098 -189.863315173 76.287109375 -188.524414062 c 1
 54.048828125 -169.82421875 l 1
 -24.3111893716 -76.7963067711 22.2236073692 -33.5525347017 7.5517578125 236.012695312 c 1
 7.5517578125 323.952148438 l 1
650.926757812 698.453125 m 1
 379.020507812 698.453125 l 1
 197.077148438 699.801757812 105.094726562 699.799804688 103.072265625 694.409179688 c 0
 101.05078125 689.692382812 100.377929688 556.603515625 101.05078125 295.143554688 c 2
 101.05078125 -96.0361328125 l 1
 151.428832224 -97.3771573594 203.822225419 -98.7243240605 254.1875 -100.078125 c 1
 254.1875 -52.5712890625 l 2
 254.971983052 29.4035719152 283.402024189 25.0316989841 377.7578125 24.2490234375 c 128
 472.032195405 24.7685714671 499.299415919 30.0076636493 500.317382812 -52.5712890625 c 1
 500.317382812 -100.078125 l 1
 550.53452861 -98.7448150683 600.738182666 -97.3980133954 650.926757812 -96.0361328125 c 1
 650.926757812 698.453125 l 1
254.1875 608.4921875 m 128
 291.61528631 608.4921875 311.189453356 589.219511969 314.8359375 563.005859375 c 128
 317.04495963 501.564602082 188.791680784 501.226467907 193.03515625 562.752929688 c 128
 194.916386467 590.029024481 216.149378393 608.4921875 254.1875 608.4921875 c 128
500.823242188 608.4921875 m 128
 538.021330062 608.4921875 557.830831586 589.244528383 561.471679688 563.005859375 c 128
 563.768678072 501.520867125 434.952524301 501.174641191 439.1640625 562.752929688 c 128
 441.044193942 590.242951358 462.694619044 608.4921875 500.823242188 608.4921875 c 128
254.1875 424.525390625 m 128
 291.702640082 424.525390625 313.168901501 405.64934797 314.8359375 378.282226562 c 128
 318.602992718 316.439856298 189.08090446 316.547659374 193.03515625 378.282226562 c 128
 194.808368673 405.965972376 215.965708226 424.525390625 254.1875 424.525390625 c 128
500.823242188 424.525390625 m 128
 538.112584688 424.525390625 559.773199809 405.67405136 561.471679688 378.282226562 c 128
 565.308912437 316.398180404 435.237202459 316.494497234 439.1640625 378.282226562 c 128
 440.936938423 406.177791085 462.507955674 424.525390625 500.823242188 424.525390625 c 128
193.03515625 193.306640625 m 129
 187.638315026 254.249049807 319.300885115 254.009469141 314.8359375 193.306640625 c 129
 316.271197277 130.734069684 189.015036065 131.002539426 193.03515625 193.306640625 c 129
439.1640625 193.306640625 m 129
 434.000894061 254.224150769 565.685643717 254.123628521 561.471679688 193.306640625 c 129
 562.997312054 130.690976948 435.174088865 130.949231129 439.1640625 193.306640625 c 129
EndSplineSet
Validated: 524321
EndChar

StartChar: uniF42C
Encoding: 62508 62508 31
Width: 1000
VWidth: 982
Flags: HW
LayerCount: 2
Fore
SplineSet
869.447265625 363.372070312 m 1
 869.447265625 235.000976562 l 1
 855.74053143 -34.086569413 899.642254291 -76.9430869874 824.466796875 -171.845703125 c 1
 800.712890625 -190.545898438 l 1
 199.287109375 -190.545898438 l 1
 175.533203125 -171.845703125 l 1
 99.8864971458 -77.2900866057 144.731472029 -35.2898467462 130.552734375 233.990234375 c 1
 130.552734375 321.930664062 l 2
 130.552734375 526.111328125 131.81640625 646.48046875 134.342773438 683.038085938 c 128
 138.405351002 741.779913338 153.063100079 790.940429688 195.243164062 790.940429688 c 2
 800.712890625 790.940429688 l 1
 824.466796875 770.219726562 l 1
 900.051003497 675.283623952 855.303306989 632.702578475 869.447265625 363.372070312 c 1
773.926757812 -98.0576171875 m 1
 773.926757812 696.431640625 l 1
 501.010742188 696.431640625 l 1
 319.06640625 697.778320312 227.421875 697.778320312 226.073242188 692.388671875 c 0
 224.051757812 687.670898438 223.377929688 554.583007812 224.051757812 293.122070312 c 2
 224.051757812 -98.0576171875 l 1
 773.926757812 -98.0576171875 l 1
530.576171875 105.114257812 m 129
 640.917406787 25.2829410243 426.601540328 -72.8491258724 439.857421875 63.669921875 c 128
 444.869831566 98.1356867708 486.871289459 127.690283821 530.576171875 105.114257812 c 129
EndSplineSet
Validated: 524321
EndChar

StartChar: uniF42D
Encoding: 62509 62509 32
Width: 1000
VWidth: 981
Flags: HW
LayerCount: 2
Fore
SplineSet
549.0234375 549.162109375 m 1
 549.0234375 515.805664062 l 2
 549.0234375 456.16796875 532.68359375 426.349609375 500 426.349609375 c 128
 467.317382812 426.349609375 450.9765625 456.16796875 450.9765625 515.805664062 c 2
 450.9765625 547.646484375 l 1
 323.109375 547.646484375 l 129
 289.220116253 577.87702832 327.860819039 595.159837329 399.424804688 665.657226562 c 128
 531.118325701 795.387974875 468.040248464 794.759100816 600.575195312 665.657226562 c 128
 671.798178219 596.279143259 709.332944961 576.082536617 676.890625 549.162109375 c 129
 549.0234375 549.162109375 l 1
80.265625 274.477539062 m 128
 30.2914633602 334.432180069 142.997639598 368.641637314 179.576171875 331.840820312 c 1
 229.499135211 276.517292009 123.721930829 222.093536688 80.265625 274.477539062 c 128
253.618164062 301.76953125 m 128
 245.455951379 350.06691108 337.083325554 357.770590726 364.047851562 331.840820312 c 1
 422.244732862 260.354002199 266.024770765 214.399098418 253.618164062 301.76953125 c 128
442.131835938 286.859375 m 128
 415.982966026 344.534890765 515.466546911 362.489445476 549.0234375 331.840820312 c 1
 601.342111061 264.218954711 470.2912666 219.647394165 442.131835938 286.859375 c 128
627.361328125 286.859375 m 128
 600.534753578 344.982505814 700.798383924 362.265359187 734.504882812 331.840820312 c 1
 785.70772591 264.125768028 655.877874781 219.768635855 627.361328125 286.859375 c 128
811.579101562 286.859375 m 128
 785.407774779 344.738165341 885.186028732 362.370983605 918.9765625 331.840820312 c 1
 970.597707735 264.123663311 839.732022701 219.742619039 811.579101562 286.859375 c 128
549.0234375 88.23828125 m 2
 549.0234375 55.8916015625 l 1
 673.60546875 55.8916015625 l 129
 714.834381544 36.982685327 667.967480672 10.5807619222 596.53125 -60.85546875 c 2
 500 -157.38671875 l 1
 403.46875 -60.85546875 l 1
 337.886876622 16.526656153 281.903505723 55.8916015625 326.6484375 55.8916015625 c 130
 450.9765625 55.8916015625 l 1
 450.9765625 88.23828125 l 1
 453.840804244 145.036172462 456.559440389 174.852572508 500 177.694335938 c 0
 532.68359375 177.694335938 549.0234375 147.875 549.0234375 88.23828125 c 2
EndSplineSet
Validated: 524321
EndChar

StartChar: uniF42E
Encoding: 62510 62510 33
Width: 1000
VWidth: 981
Flags: HW
LayerCount: 2
Fore
SplineSet
428.897460938 66.7666015625 m 128
 387.431939344 27.0738460095 380.863467873 18.7236005611 339.44140625 49.583984375 c 128
 324.55428797 58.7052150973 149.209130903 236.677949185 143.345703125 247.700195312 c 128
 110.284471639 289.030157157 167.144997859 349.38023069 204.095411047 312.225486328 c 130
 375.32421875 140.049804688 l 1
 793.777124668 556.533632371 l 1
 834.444081946 588.7496995 861.392099326 549.189463805 868.08984375 524.659179688 c 1
 817.01122735 433.083773266 492.13941321 127.304784992 428.897460938 66.7666015625 c 128
EndSplineSet
Validated: 524321
EndChar

StartChar: uniF42F
Encoding: 62511 62511 34
Width: 1000
VWidth: 981
Flags: HW
LayerCount: 2
Fore
SplineSet
565.421875 669.447265625 m 1
 834.894703169 655.781234794 876.911445012 699.569516958 972.268554688 624.466796875 c 1
 990.967773438 600.712890625 l 1
 990.967773438 -0.712890625 l 1
 972.268554688 -24.466796875 l 1
 877.331407444 -100.050420124 834.751962794 -55.3036701248 565.421875 -69.447265625 c 1
 437.049804688 -69.447265625 l 1
 167.962401603 -55.7404229679 125.105523936 -99.6424127486 30.203125 -24.466796875 c 1
 11.5029296875 -0.712890625 l 1
 11.5029296875 286.353515625 l 1
 25.0891111918 574.379724446 -31.1013051171 585.190730554 73.666015625 659.844726562 c 1
 195.151399622 676.624978917 257.472834811 665.930026748 501.234375 669.447265625 c 1
 565.421875 669.447265625 l 1
898.48046875 557.249023438 m 2
 898.48046875 573.926757812 l 1
 504.268554688 573.926757812 l 2
 240.112304688 574.600585938 107.022460938 575.611328125 105.001953125 572.916015625 c 0
 93.9291724177 532.051147278 125.662632228 531.804890304 158.068359375 508.73046875 c 0
 185.096250203 491.953511931 328.53003585 408.912240823 358.20703125 391.4765625 c 2
 501.234375 308.0859375 l 1
 868.635900001 523.653084883 l 129
 889.020665626 537.465584883 898.48046875 549.499023438 898.48046875 557.249023438 c 2
100.958007812 427.361328125 m 1
 100.958007812 26.0732421875 l 1
 898.48046875 26.0732421875 l 1
 900.500976562 30.115234375 901.17578125 103.063476562 900.500976562 234.803710938 c 2
 900.500976562 432.919921875 l 1
 707.943359375 320.720703125 l 2
 580.583007812 245.922851562 512.016601562 208.185546875 502.247070312 207.51171875 c 0
 473.230026829 213.351198734 183.761839767 386.356360176 115.110351562 427.361328125 c 1
 100.958007812 427.361328125 l 1
EndSplineSet
Validated: 524321
EndChar

StartChar: uniF431
Encoding: 62513 62513 35
Width: 1000
VWidth: 981
Flags: HW
LayerCount: 2
Fore
SplineSet
455.390625 606.77734375 m 0
 499.359088147 635.664651314 499.798140592 634.805004341 544.340820312 606.77734375 c 0
 558.457355431 597.8947741 797.771719707 357.700542642 802.599609375 339.926757812 c 0
 806.636500894 301.30996325 770.353007335 258.198733843 733.360351562 294.440429688 c 128
 718.872070312 305.559570312 687.341050467 337.228729853 635.818359375 386.422851562 c 2
 546.362304688 471.8359375 l 1
 546.362304688 -5.26171875 l 1
 531.731905348 -13.8796918066 513.868514596 -22.2959234505 498.85546875 -30.53125 c 1
 483.777587431 -21.0124516311 468.604876526 -11.5884828486 453.368164062 -2.228515625 c 1
 453.368164062 471.8359375 l 1
 358.859375 379.34765625 l 2
 293.831054688 317.015625 256.768554688 284.500976562 247.671875 281.805664062 c 0
 216.098150224 274.788151072 189.851002461 307.403671457 198.142578125 339.926757812 c 0
 202.894770495 357.704423822 441.897794202 597.912545545 455.390625 606.77734375 c 0
EndSplineSet
Validated: 524321
EndChar

StartChar: uniF432
Encoding: 62514 62514 36
Width: 1000
VWidth: 981
Flags: HW
LayerCount: 2
Fore
SplineSet
480.037109375 566.758789062 m 0
 480.037109375 607.494638901 542.28628592 618.285791945 570.502929688 581.415039062 c 0
 586.858056386 560.043757636 853.432552984 337.499311248 827.751953125 286.767578125 c 1
 840.293618455 284.912822752 551.119043624 -8.73695782253 550.79296875 3.7431640625 c 1
 514.002615096 -19.4092626179 462.064676546 25.1071637877 489.133789062 59.8427734375 c 0
 495.19921875 68.265625 527.711914062 103.4765625 586.676757812 165.470703125 c 2
 673.099609375 254.421875 l 1
 198.024414062 254.421875 l 1
 188.38162186 268.870554151 178.928008732 283.508412378 169.720703125 298.392578125 c 1
 177.959462766 313.4025164 186.370636855 328.240040228 194.991210938 342.868164062 c 1
 671.078125 342.868164062 l 1
 600.322265625 420.698242188 l 1
 520.131835938 499.541015625 480.037109375 548.227539062 480.037109375 566.758789062 c 0
EndSplineSet
Validated: 524321
EndChar

StartChar: uniF433
Encoding: 62515 62515 37
Width: 1000
VWidth: 981
Flags: HW
LayerCount: 2
Fore
SplineSet
516.8125 -26.736328125 m 1
 480.512908904 -77.91841622 201.411752302 256.577349219 197.400390625 260.331054688 c 0
 193.23073464 299.400594316 229.458074282 342.578651616 266.639648438 306.322265625 c 128
 281.127929688 295.205078125 313.978515625 264.711914062 365.192382812 214.845703125 c 2
 453.637695312 127.916015625 l 1
 453.637695312 602.9921875 l 1
 473.34765625 616.1328125 l 1
 500.734842043 632.305455216 497.498463418 632.30604205 524.897460938 616.1328125 c 2
 546.631835938 602.9921875 l 1
 546.631835938 127.916015625 l 1
 641.140625 221.920898438 l 1
 704.8203125 283.2421875 741.883789062 315.588867188 752.328125 318.95703125 c 0
 783.041421867 325.78528531 810.366976218 292.757559321 801.857421875 261.342773438 c 1
 821.905435806 266.721030484 511.053231922 -46.8134790574 516.8125 -26.736328125 c 1
EndSplineSet
Validated: 524321
EndChar

StartChar: uniF434
Encoding: 62516 62516 38
Width: 1000
VWidth: 981
Flags: HW
LayerCount: 2
Fore
SplineSet
172.248046875 282.748046875 m 1
 141.853459468 336.328825155 408.100956271 554.79929808 429.497070312 580.4296875 c 0
 463.768307546 621.48317761 496.334874947 600.737517276 517.94140625 570.322265625 c 1
 505.99257885 508.124237006 483.608621337 505.288590634 413.323242188 433.358398438 c 2
 326.900390625 344.913085938 l 1
 801.975585938 344.913085938 l 1
 811.521331325 330.1990657 820.968971429 315.386940179 830.279296875 300.4375 c 1
 822.041062309 285.42736217 813.629952376 270.590099707 805.008789062 255.962890625 c 1
 326.900390625 255.962890625 l 1
 420.399414062 157.41015625 l 2
 482.05859375 93.7294921875 514.572265625 56.6669921875 517.94140625 46.2216796875 c 0
 524.859801348 15.0889017475 491.434785687 -10.5431619051 459.8203125 -2.8017578125 c 1
 466.034741945 -22.902596875 151.333291023 288.563042297 172.248046875 282.748046875 c 1
EndSplineSet
Validated: 524321
EndChar

StartChar: uniF435
Encoding: 62517 62517 39
Width: 1000
VWidth: 981
Flags: HW
LayerCount: 2
Fore
SplineSet
345.20703125 747.739257812 m 1
 508.774353369 791.102551334 487.693514428 568.030970433 607.76171875 521.573242188 c 128
 714.64773354 480.216069767 916.817759922 490.497693659 875.37109375 331.795898438 c 0
 869.98046875 316.633789062 842.698930934 281.431995183 790.46484375 229.19921875 c 2
 712.631835938 151.368164062 l 1
 952.222285582 -90.2187440657 l 129
 973.925775185 -122.263033786 914.231772738 -180.726445641 887.873042256 -154.257754814 c 130
 647.940429688 86.67578125 l 1
 569.098632812 8.3388671875 l 2
 516.537109375 -42.8740234375 483.377031156 -74.7295571111 467.513671875 -76.0625 c 0
 354.680638891 -85.5434671951 337.167095011 -43.6601304909 311.849609375 79.6005859375 c 0
 290.222275767 198.390196008 251.371936418 266.95008599 148.100585938 300.4609375 c 0
 56.068488356 330.324727814 14.4475730467 416.689555367 79.11328125 492.764648438 c 128
 98.0886432858 517.839837823 341.448526655 762.791861406 345.20703125 747.739257812 c 1
520.580078125 463.704101562 m 129
 477.343509768 477.451566187 412.567037451 623.821317191 385.638671875 660.810546875 c 1
 402.210159023 689.936957442 110.090304677 393.44235252 137.991210938 411.649414062 c 1
 205.48753604 375.107346131 340.488810686 310.595397663 359.86328125 237.286132812 c 1
 373.89207838 228.139333361 415.41659465 22.2305438237 431.123046875 12.3828125 c 1
 407.890422889 -28.5351182251 826.291208744 391.53968542 785.916015625 367.173828125 c 1
 746.336286804 391.679374641 539.852083543 429.549713915 520.580078125 463.704101562 c 129
EndSplineSet
Validated: 524321
EndChar

StartChar: uniF436
Encoding: 62518 62518 40
Width: 1000
VWidth: 981
Flags: HW
LayerCount: 2
Fore
SplineSet
147.23046875 546.11328125 m 1
 147.23046875 572.39453125 l 1
 96.1063861454 720.22078036 232.485472079 837.727962137 383.758789062 773.54296875 c 0
 427.722318482 752.661949141 477.68693621 697.242544323 500 657.301757812 c 1
 543.341793358 746.039198041 672.179210426 838.024280295 788.8359375 765.709960938 c 128
 840.083686073 732.858996306 891.102840685 659.864547679 860.85546875 572.39453125 c 1
 860.85546875 547.62890625 l 1
 888.147460938 547.62890625 l 1
 1021.9292072 561.94328782 1014.65033426 301.960617752 958.397460938 240.345703125 c 1
 931.611328125 213.560546875 l 1
 930.260735552 101.195644656 928.912729895 -11.171844478 927.567382812 -123.541992188 c 1
 909.879882812 -146.790039062 l 1
 824.913206251 -221.028286037 792.625175295 -179.015975953 554.077148438 -192.276367188 c 1
 445.922851562 -192.276367188 l 1
 207.907584035 -179.89485198 175.739480564 -220.000260373 90.1201171875 -146.790039062 c 1
 72.4326171875 -123.541992188 l 1
 71.0872326408 -11.1718819425 69.7393018932 101.195682102 68.388671875 213.560546875 c 1
 41.6025390625 240.345703125 l 1
 -14.7640632472 301.532126455 -22.8782567229 562.953534552 111.852539062 546.11328125 c 1
 147.23046875 546.11328125 l 1
439.857421875 546.619140625 m 1
 439.857421875 564.8125 l 1
 421.475527361 639.791004031 321.073096071 755.224929386 245.278320312 675.49609375 c 128
 185.003044381 612.092283664 250.266263036 524.251303218 362.025390625 546.619140625 c 1
 439.857421875 546.619140625 l 1
565.196289062 546.619140625 m 1
 637.974609375 546.619140625 l 1
 731.273534809 543.443207591 776.958984375 554.02170015 776.958984375 623.944335938 c 0
 776.958984375 707.866666625 660.773897477 720.805630902 619.274414062 663.366210938 c 0
 604.365468234 642.730744416 571.517905919 593.613012736 565.196289062 564.8125 c 1
 565.196289062 546.619140625 l 1
100.733398438 303.520507812 m 1
 450.9765625 303.520507812 l 1
 450.9765625 454.129882812 l 1
 278.129882812 454.129882812 l 1
 104.166407258 430.305138188 89.845878509 508.374137347 100.733398438 370.234375 c 1
 100.733398438 303.520507812 l 1
897.245117188 300.48828125 m 1
 897.245117188 451.09765625 l 1
 549.0234375 451.09765625 l 1
 549.0234375 300.48828125 l 1
 897.245117188 300.48828125 l 1
450.9765625 -96.755859375 m 1
 450.9765625 208 l 1
 160.876953125 208 l 1
 160.876953125 -96.755859375 l 1
 450.9765625 -96.755859375 l 1
836.090820312 208 m 1
 549.0234375 208 l 1
 549.0234375 -99.787109375 l 1
 836.090820312 -99.787109375 l 1
 836.090820312 208 l 1
EndSplineSet
Validated: 524321
EndChar

StartChar: uniF437
Encoding: 62519 62519 41
Width: 1000
VWidth: 981
Flags: HW
LayerCount: 2
Fore
SplineSet
99.7236328125 -39.123046875 m 1
 963.451171875 -39.123046875 l 1
 978.107421875 -53.7802734375 l 2
 997.651822715 -72.9477577019 997.65180382 -96.7779193483 978.107421875 -115.944335938 c 1
 963.451171875 -131.611328125 l 1
 37.55859375 -131.611328125 l 1
 22.90234375 -115.944335938 l 1
 7.234375 -101.287109375 l 1
 7.234375 701.287109375 l 1
 22.90234375 715.944335938 l 1
 40.4028762784 736.833238394 66.5584287285 736.833838552 84.0556640625 715.944335938 c 1
 99.7236328125 701.287109375 l 1
 99.7236328125 -39.123046875 l 1
668.045898438 221.411132812 m 128
 634.322155521 193.954749326 619.226477898 177.7401206 590.213440688 206.753503867 c 130
 438.846679688 358.122070312 l 1
 266.631792772 185.905344928 l 129
 223.377644976 157.110921549 165.513601007 214.443236008 206.110351562 250.724609375 c 128
 247.812266275 287.993669512 373.251608188 460.224155961 457.924241079 468.423375998 c 129
 623.318359375 303.033203125 l 1
 911.142578125 590.857421875 l 1
 960.003354497 637.878585841 1021.00502447 569.068719065 971.033203125 524.903320312 c 128
 958.419819473 513.755535349 685.632283975 233.864319686 668.045898438 221.411132812 c 128
EndSplineSet
Validated: 524321
EndChar

StartChar: uniF438
Encoding: 62520 62520 42
Width: 1000
VWidth: 981
Flags: HW
LayerCount: 2
Fore
SplineSet
606.655273438 520.115234375 m 1
 627.489344137 479.642142887 621.217178209 131.148113588 608.424804688 78.900390625 c 129
 617.455103461 58.7853015768 362.066390317 309.658583537 381.751953125 300.265625 c 1
 411.401591047 343.004066733 590.359314442 519.134455617 606.655273438 520.115234375 c 1
EndSplineSet
Validated: 524321
EndChar

StartChar: uniF439
Encoding: 62521 62521 43
Width: 1000
VWidth: 981
Flags: HW
LayerCount: 2
Fore
SplineSet
565.421875 669.447265625 m 1
 834.894703169 655.781234794 876.911445012 699.569516958 972.268554688 624.466796875 c 1
 990.967773438 600.712890625 l 1
 990.967773438 -0.712890625 l 1
 972.268554688 -24.466796875 l 1
 877.331407444 -100.050420124 834.751962794 -55.3036701248 565.421875 -69.447265625 c 1
 437.049804688 -69.447265625 l 1
 167.962401603 -55.7404229679 125.105523936 -99.6424127486 30.203125 -24.466796875 c 1
 11.5029296875 -0.712890625 l 1
 11.5029296875 286.353515625 l 1
 25.0891111918 574.379724446 -31.1013051171 585.190730554 73.666015625 659.844726562 c 1
 195.151399622 676.624978917 257.472834811 665.930026748 501.234375 669.447265625 c 1
 565.421875 669.447265625 l 1
100.958007812 526.924804688 m 2
 100.958007812 485.481445312 l 1
 902.522460938 485.481445312 l 1
 901.163108142 514.951194079 899.815833709 544.433021209 898.48046875 573.926757812 c 1
 504.268554688 573.926757812 l 2
 240.112304688 574.600585938 107.022460938 575.611328125 105.001953125 572.916015625 c 0
 102.307617188 571.231445312 100.958007812 555.900390625 100.958007812 526.924804688 c 2
898.48046875 392.48828125 m 1
 100.958007812 392.48828125 l 1
 100.958007812 26.0732421875 l 1
 898.48046875 26.0732421875 l 1
 898.48046875 392.48828125 l 1
624.552734375 192.096679688 m 129
 616.975705919 256.49456827 818.272624846 258.984707593 808.518554688 192.096679688 c 129
 818.166240632 125.59441417 621.646816758 126.457448155 624.552734375 192.096679688 c 129
EndSplineSet
Validated: 524321
EndChar

StartChar: uniF43A
Encoding: 62522 62522 44
Width: 1000
VWidth: 982
Flags: HW
LayerCount: 2
Fore
SplineSet
499.747070312 -189.6171875 m 128
 124.455082003 -189.6171875 -132.8679707 262.324444218 93.1533203125 577.075195312 c 0
 193.083539369 719.90314191 366.298265893 838.024877985 616.241210938 779.235351562 c 0
 826.95911087 729.672018044 983.514039829 566.620357328 989.732421875 300.116210938 c 0
 997.84942735 33.2289832065 766.848892357 -189.6171875 499.747070312 -189.6171875 c 128
856.8125 478.522460938 m 0
 782.785005727 623.734301099 607.009890468 740.616986716 388.053710938 683.967773438 c 128
 196.287174403 634.353172694 15.7507978715 378.23102418 143.1875 121.7109375 c 0
 222.097315516 -43.9447033311 451.29933655 -163.587778791 678.407226562 -56.6962890625 c 0
 830.621608578 14.9455286256 972.761935467 255.022316779 856.8125 478.522460938 c 0
530.32421875 505.055664062 m 130
 530.32421875 315.783203125 l 1
 598.552734375 288.4921875 l 1
 678.051139002 277.327645143 713.971143889 202.876674945 639.99609375 176.798828125 c 1
 634.434315467 170.267359032 440.802836111 252.645489621 447.943359375 258.673828125 c 1
 441.206054688 267.096679688 437.8359375 312.415039062 437.8359375 394.626953125 c 0
 440.926332731 499.839777218 419.48270333 546.24609375 484.080078125 546.24609375 c 128
 504.022706192 546.24609375 530.32421875 525.1704763 530.32421875 505.055664062 c 130
EndSplineSet
Validated: 524321
EndChar

StartChar: uniF43B
Encoding: 62523 62523 45
Width: 1000
VWidth: 981
Flags: HW
LayerCount: 2
Fore
SplineSet
545.739257812 -71.46875 m 128
 490.457539346 -115.725162135 503.301716662 -106.740939059 443.900390625 -60.3505859375 c 128
 415.311077005 -35.7923713541 -22.5243908644 381.77145203 9.2568359375 367.723632812 c 1
 -10.381676016 403.13045802 219.781532355 669.975199595 235.67578125 684.103515625 c 2
 253.870117188 700.276367188 l 1
 746.129882812 700.276367188 l 1
 764.32421875 684.103515625 l 1
 766.547338449 687.428999703 989.160618486 401.108661786 984.678710938 398.047851562 c 1
 1004.06936181 346.906706847 975.927036442 350.523318753 924.030273438 290.90234375 c 0
 910.409150473 275.253879669 605.260258567 -18.337337943 545.739257812 -71.46875 c 128
854.791015625 351.55078125 m 0
 919.267415926 399.338311906 873.776172668 397.189708215 795.659179688 497.106445312 c 2
 708.73046875 608.293945312 l 1
 291.26953125 608.293945312 l 1
 270.547851562 582.013671875 l 1
 233.041590835 536.930786519 144.860658292 422.284403037 119.43359375 379.853515625 c 1
 121.455078125 375.13671875 186.147574603 313.681687547 310.979492188 192.85546875 c 2
 500 9.900390625 l 1
 663.75 168.596679688 l 2
 772.2421875 273.71875 835.922851562 334.704101562 854.791015625 351.55078125 c 0
EndSplineSet
Validated: 524321
EndChar

StartChar: uniF43D
Encoding: 62525 62525 46
Width: 1000
VWidth: 982
Flags: HW
LayerCount: 2
Fore
SplineSet
440.150390625 54.439453125 m 1
 440.150390625 22.599609375 l 1
 437.445562419 -26.0773034947 397.62156651 -66.6501101012 348.672851562 -68.876953125 c 1
 316.833007812 -68.876953125 l 1
 316.833007812 -100.716796875 l 1
 315.694014041 -141.722689619 312.187545396 -135.75855347 286.509765625 -161.87109375 c 2
 256.690429688 -192.1953125 l 1
 175.3203125 -192.1953125 l 1
 71.2596600596 -195.7146948 44.5044314729 -178.446260439 10.560546875 -114.869140625 c 129
 10.560546875 55.9560546875 l 1
 114.803308784 160.106521945 215.886388887 264.384444447 319.865234375 368.798828125 c 1
 319.865234375 447.641601562 l 1
 321.226193681 695.757722298 525.966862181 845.414724119 767.14453125 772.61328125 c 0
 918.207346496 727.013740645 1031.16695258 576.533182874 983.708984375 373.34765625 c 128
 949.547008613 227.087306333 836.308103321 117.002654229 646.353515625 119.130859375 c 1
 570.038085938 119.130859375 l 1
 536.682617188 86.78515625 l 1
 506.803378595 62.1160350173 512.75945823 55.9937625662 471.486328125 54.439453125 c 1
 440.150390625 54.439453125 l 1
347.662109375 23.6103515625 m 1
 347.662109375 70.107421875 l 1
 344.0836705 129.327958043 363.333194142 149.293606598 422.461914062 146.927734375 c 1
 468.958007812 146.927734375 l 1
 493.217454856 171.860995665 517.47689506 196.794263794 541.736328125 221.727539062 c 1
 579.135742188 221.727539062 l 1
 799.599720814 162.950683615 963.770999984 362.454240999 875.805664062 560.8515625 c 0
 834.988337529 652.911101298 733.543856768 720.727303596 600.614257812 694.27734375 c 128
 476.130057246 669.507825657 385.454927571 549.602567296 417.407226562 378.40234375 c 1
 417.407226562 342.012695312 l 1
 309.401463616 235.055567634 207.97694101 127.58165274 101.02734375 19.568359375 c 1
 101.02734375 -96.673828125 l 1
 141.155549766 -97.9883304422 184.284293836 -99.3335447056 224.34375 -100.716796875 c 1
 224.34375 -53.2109375 l 1
 220.907217804 6.93184024533 241.228103588 26.2452812584 301.165039062 23.6103515625 c 1
 347.662109375 23.6103515625 l 1
655.956054688 538.107421875 m 0
 752.900631419 585.209723213 781.234324905 423.846590865 686.78515625 423.887695312 c 0
 625.967120414 423.887695312 603.090449341 510.121339027 655.956054688 538.107421875 c 0
EndSplineSet
Validated: 524321
EndChar

StartChar: uniF442
Encoding: 62530 62530 47
Width: 1000
VWidth: 982
Flags: HW
LayerCount: 2
Fore
SplineSet
376.682617188 731.286132812 m 2
 411.555664062 731.286132812 l 1
 623.453679345 719.562935489 648.704679377 757.595796949 724.903320312 684.7890625 c 1
 743.602539062 662.551757812 l 1
 743.602539062 461.40234375 l 1
 738.501511241 263.662763656 769.949326031 253.523619433 677.39453125 179.389648438 c 1
 598.897446798 178.033217265 520.391908619 176.685239818 441.877929688 175.345703125 c 1
 351.91796875 87.912109375 l 1
 277.95623828 -0.899022469362 205.453055308 -45.9571020135 139.14453125 44.447265625 c 0
 133.080078125 58.9365234375 130.21484375 84.2060546875 130.552734375 120.2578125 c 2
 130.552734375 174.3359375 l 1
 101.745117188 174.3359375 l 1
 -8.58744249246 213.203579055 2.88712888095 278.068144066 7.234375 452.305664062 c 0
 11.3362882091 616.710246925 -27.7123545187 718.721047948 137.375976562 729.517578125 c 128
 172.922851562 730.696289062 252.69140625 731.286132812 376.682617188 731.286132812 c 2
650.609375 266.317382812 m 1
 650.609375 635.765625 l 1
 102.754882812 635.765625 l 1
 100.733398438 631.048828125 100.060546875 565.008789062 100.733398438 447.755859375 c 2
 100.733398438 271.876953125 l 1
 151.274414062 271.876953125 l 2
 200.207388098 272.265584464 223.754696937 253.419177006 223.041015625 204.153320312 c 130
 223.041015625 86.9013671875 l 1
 282.50953197 146.706939384 341.978280932 206.512278964 401.447265625 266.317382812 c 1
 650.609375 266.317382812 l 1
848.725585938 146.032226562 m 2
 897.245117188 146.032226562 l 1
 897.245117188 512.447265625 l 1
 863.887695312 512.447265625 l 1
 821.677516669 513.55995223 790.201292206 556.283072913 824.466796875 593.3125 c 0
 845.926007764 616.502652681 927.499773889 606.448426079 947.278320312 585.224609375 c 0
 1010.92312517 516.929111642 992.765625 505.807201436 992.765625 329.999023438 c 0
 992.765625 156.261276301 1012.41815967 91.1684932707 898.254882812 55.060546875 c 1
 869.447265625 55.060546875 l 1
 869.447265625 -4.0712890625 l 1
 881.750957238 -100.071903778 816.58840121 -155.290189301 740.065429688 -118.795898438 c 128
 705.445820071 -102.285586857 594.906152697 12.0327548113 566.4609375 56.32421875 c 129
 569.65296672 147.883455276 632.040707326 107.580859481 701.149414062 39.3935546875 c 2
 776.958984375 -35.4052734375 l 1
 776.958984375 108.379882812 l 129
 783.851066666 140.134679813 811.485107134 146.032226562 848.725585938 146.032226562 c 2
EndSplineSet
Validated: 524321
EndChar

StartChar: uniF443
Encoding: 62531 62531 48
Width: 1000
VWidth: 981
Flags: HW
LayerCount: 2
Fore
SplineSet
446.93359375 416.7109375 m 1
 845.379555791 449.592557872 931.208428009 309.753239499 919.987304688 -34.359375 c 128
 917.984770723 -77.9143114753 834.322265625 -96.0403430378 834.322265625 -38.1494140625 c 128
 834.322265625 139.016857614 818.380843673 323.211914062 652.630859375 323.211914062 c 130
 234.665039062 323.211914062 l 1
 413.349353318 146.371375761 l 130
 452.388486691 106.475368885 412.221761725 40.7088823262 363.037109375 67.4794921875 c 0
 350.795368694 74.1425231968 77.9912109375 320.676549825 77.9912109375 370.213867188 c 0
 77.9912109375 425.452416837 308.056144322 613.604071438 340.798828125 654.75390625 c 128
 384.484504288 709.656502768 462.583028511 644.798780205 413.245720711 595.204771037 c 130
 235.67578125 416.7109375 l 1
 446.93359375 416.7109375 l 1
EndSplineSet
Validated: 524321
EndChar

StartChar: uniF444
Encoding: 62532 62532 49
Width: 1000
VWidth: 981
Flags: HW
LayerCount: 2
Fore
SplineSet
513.646484375 543.35546875 m 0
 647.158943187 543.35546875 743.602539062 443.653982646 743.602539062 298.7421875 c 128
 743.602539062 150.43024242 651.033860312 55.1396484375 500 55.1396484375 c 128
 348.86759036 55.1396484375 256.397460938 150.43783586 256.397460938 297.73046875 c 0
 256.397460938 455.091225164 356.452477348 543.35546875 513.646484375 543.35546875 c 0
EndSplineSet
Validated: 524289
EndChar

StartChar: uniF445
Encoding: 62533 62533 50
Width: 1000
VWidth: 981
Flags: HW
LayerCount: 2
Fore
SplineSet
632.387695312 53.8701171875 m 130
 333.189453125 53.8701171875 l 129
 307.847559406 63.4294056098 292.079838254 79.0615664155 276.333007812 98.8505859375 c 2
 257.6328125 122.60546875 l 1
 257.6328125 286.353515625 l 1
 235.850813991 546.460957554 276.105905837 545.97848232 501.234375 546.129882812 c 2
 579.572265625 546.129882812 l 130
 646.022471727 545.977317465 703.369027428 544.279523773 726.137695312 501.149414062 c 1
 744.838867188 477.39453125 l 1
 744.838867188 122.60546875 l 1
 726.137695312 98.8505859375 l 1
 704.94374678 69.4282302612 681.761823289 53.8701171875 632.387695312 53.8701171875 c 130
EndSplineSet
Validated: 524321
EndChar

StartChar: uniF449
Encoding: 62537 62537 51
Width: 1000
VWidth: 982
Flags: HW
LayerCount: 2
Fore
SplineSet
913.704101562 566.967773438 m 0
 1131.27294808 250.023967966 871.323306298 -206.776447984 501.044921875 -189.6171875 c 128
 201.022775991 -175.713707393 -33.893586449 55.8362068506 14.091796875 370.872070312 c 0
 55.227185493 640.936030928 274.871848329 845.577262233 618.043945312 779.235351562 c 0
 748.949963873 753.928645493 845.305664062 673.1015625 913.704101562 566.967773438 c 0
858.615234375 478.522460938 m 0
 784.588333685 623.734304645 608.811516065 740.61613436 389.856445312 683.967773438 c 128
 198.089622688 634.353593945 17.5537621013 378.230376881 144.990234375 121.7109375 c 0
 223.584087256 -44.2040346691 453.16900859 -163.497226121 680.208984375 -56.6962890625 c 0
 832.439607931 14.9138896672 974.564611807 255.022161913 858.615234375 478.522460938 c 0
470.97265625 537.654296875 m 0
 568.261815568 584.828746676 597.16903338 423.08268364 501.802734375 423.43359375 c 0
 440.98542688 423.43359375 418.10597834 509.667646231 470.97265625 537.654296875 c 0
625.12109375 99.978515625 m 0
 625.12109375 33.0872382057 409.314453125 32.7340397555 409.314453125 99.978515625 c 0
 409.314453125 119.636386489 435.354161729 146.474609375 455.306640625 146.474609375 c 2
 469.962890625 146.474609375 l 1
 469.962890625 269.791992188 l 1
 455.306640625 269.791992188 l 2
 434.799554184 269.791992188 409.314453125 295.275687903 409.314453125 315.783203125 c 0
 409.314453125 348.751004997 436.208274892 361.26953125 485.8828125 361.26953125 c 128
 534.258345995 361.26953125 562.955078125 354.50699887 562.955078125 321.090820312 c 130
 562.955078125 146.474609375 l 1
 578.624023438 146.474609375 l 2
 597.717546858 146.474609375 625.12109375 119.069652275 625.12109375 99.978515625 c 0
EndSplineSet
Validated: 524321
EndChar

StartChar: uniF44A
Encoding: 62538 62538 52
Width: 1000
VWidth: 982
Flags: HW
LayerCount: 2
Fore
SplineSet
380.83203125 293.666015625 m 0
 375.68970239 601.176703851 371.324086836 557.018878179 514.004882812 414.7109375 c 128
 669.606177076 259.516262546 651.837936452 341.400238211 507.435546875 183.489257812 c 128
 439.551539096 109.254819911 397.426757812 78.3662109375 393.215820312 79.376953125 c 128
 376.452715997 132.347081226 382.929195512 168.255828291 380.83203125 293.666015625 c 0
EndSplineSet
Validated: 524321
EndChar

StartChar: uniF44B
Encoding: 62539 62539 53
Width: 1000
VWidth: 981
Flags: HW
LayerCount: 2
Fore
SplineSet
280.151367188 411.692382812 m 1
 334.19839705 428.259267257 662.370489697 426.449097697 719.848632812 411.692382812 c 1
 722.544921875 404.955078125 685.481790961 365.367756656 611.188476562 290.3984375 c 2
 500 178.198242188 l 1
 388.811523438 290.3984375 l 1
 313.67578125 364.5234375 277.455078125 404.955078125 280.151367188 411.692382812 c 1
EndSplineSet
Validated: 524321
EndChar

StartChar: uniF44C
Encoding: 62540 62540 54
Width: 1000
VWidth: 981
Flags: HW
LayerCount: 2
Fore
SplineSet
725.913085938 727.55859375 m 0
 876.899442496 727.55859375 971.897780696 564.593575767 906.088867188 415.727539062 c 128
 894.66130595 386.149156568 741.726166825 240.536810763 706.455078125 203.963867188 c 128
 630.507326418 125.212886137 451.038992433 126.848978662 402.458007812 221.147460938 c 128
 379.098908225 266.488815289 429.137080801 299.65831168 483.321289062 265.623046875 c 0
 602.386904137 190.833179713 652.138316722 275.941839618 725.913085938 350.025390625 c 0
 790.36350741 414.745567148 815.182505192 418.344583394 833.05859375 477.385742188 c 0
 862.658243294 575.147487062 789.085965864 632.038085938 679.416015625 632.038085938 c 0
 657.153852516 632.038085938 568.902690479 544.116922224 545.739257812 525.146484375 c 128
 507.684310022 493.980161478 449.131501476 546.121893825 485.091796875 583.772460938 c 128
 548.11460214 649.757579605 599.946509984 727.55859375 725.913085938 727.55859375 c 0
93.658203125 181.7265625 m 128
 108.886811092 215.675013267 275.085262201 375.293529252 309.211914062 407.134765625 c 128
 382.62363984 475.630207913 556.842204992 461.15332692 597.541992188 376.810546875 c 128
 619.737963817 330.813501632 570.861075383 298.300612328 516.678710938 332.334960938 c 0
 397.613027174 407.125402997 347.861895465 322.016982372 274.086914062 247.93359375 c 0
 209.635777197 183.213026848 184.817633925 179.614807247 166.94140625 120.573242188 c 0
 137.341338021 22.810202588 212.674827678 -52.5756682077 320.583984375 -34.0791015625 c 0
 356.263736254 -27.963282213 433.693863362 83.173828125 480.2890625 83.173828125 c 0
 555.813261698 83.173828125 508.319982246 9.16500513939 471.192382812 -35.08984375 c 0
 304.047059315 -234.321443607 -25.1462610516 -69.4184792206 93.658203125 181.7265625 c 128
EndSplineSet
Validated: 524321
EndChar

StartChar: uniF44D
Encoding: 62541 62541 55
Width: 1000
VWidth: 981
Flags: HW
LayerCount: 2
Fore
SplineSet
499.747070312 669.642578125 m 129
 570.323382361 648.803708637 549.0234375 587.673006859 549.0234375 478.348632812 c 2
 549.0234375 344.416992188 l 1
 825.4765625 344.416992188 l 1
 879.583921402 343.183568452 883.624232305 269.900059242 836.090820312 257.48828125 c 0
 825.646484375 253.782226562 775.106445312 251.927734375 684.471679688 251.927734375 c 2
 549.0234375 251.927734375 l 1
 549.0234375 120.524414062 l 2
 549.0234375 32.5849609375 547.170898438 -17.955078125 543.46484375 -31.0947265625 c 0
 539.674179946 -76.8575503632 465.06866654 -84.5622464728 456.536132812 -31.0947265625 c 0
 452.829101562 -17.955078125 450.9765625 32.5849609375 450.9765625 120.524414062 c 2
 450.9765625 251.927734375 l 1
 315.528320312 251.927734375 l 2
 224.893554688 251.927734375 174.353515625 253.782226562 163.909179688 257.48828125 c 0
 117.277772206 269.357595072 120.163686286 344.416992188 174.26953125 344.416992188 c 130
 450.9765625 344.416992188 l 1
 450.9765625 478.348632812 l 1
 459.694427521 587.756844086 430.293138634 648.192846323 499.747070312 669.642578125 c 129
EndSplineSet
Validated: 524321
EndChar

StartChar: uniF44E
Encoding: 62542 62542 56
Width: 1000
VWidth: 981
Flags: HW
LayerCount: 2
Fore
SplineSet
915.944335938 638.618164062 m 1
 935.485039236 621.119031246 935.486725874 594.960859579 915.944335938 577.46484375 c 1
 901.287109375 561.796875 l 1
 98.712890625 561.796875 l 1
 84.0556640625 577.46484375 l 1
 64.5132940446 594.964424343 64.5149428951 621.122563101 84.0556640625 638.618164062 c 1
 98.712890625 654.28515625 l 1
 901.287109375 654.28515625 l 1
 915.944335938 638.618164062 l 1
915.944335938 331.333984375 m 2
 935.486147317 312.166126184 935.485616434 288.337441145 915.944335938 269.170898438 c 2
 901.287109375 254.513671875 l 1
 98.712890625 254.513671875 l 1
 84.0556640625 269.170898438 l 2
 64.5144021232 288.339397683 64.5138334499 312.167982142 84.0556640625 331.333984375 c 2
 98.712890625 345.991210938 l 1
 901.287109375 345.991210938 l 1
 915.944335938 331.333984375 l 2
915.944335938 22.53515625 m 1
 935.629445333 4.74507133272 935.342016674 -20.5274394774 915.944335938 -38.6181640625 c 1
 901.287109375 -54.28515625 l 1
 98.712890625 -54.28515625 l 1
 84.0556640625 -38.6181640625 l 1
 64.5149607641 -21.1190312455 64.5132741257 5.03914042083 84.0556640625 22.53515625 c 1
 98.712890625 38.7080078125 l 1
 901.287109375 38.7080078125 l 1
 915.944335938 22.53515625 l 1
EndSplineSet
Validated: 524321
EndChar

StartChar: uniF44F
Encoding: 62543 62543 57
Width: 1000
VWidth: 981
Flags: HW
LayerCount: 2
Fore
SplineSet
25.9345703125 300 m 129
 49.9546114395 362.493393942 270.455910788 605.766601562 334.227539062 605.766601562 c 0
 370.055930804 605.766601562 390.479183474 559.094203708 362.749081346 531.016155372 c 130
 134.595703125 300 l 1
 354.96364539 76.8669691141 l 129
 414.791408214 29.7615177412 337.365859347 -41.595383709 291.26953125 17.2294921875 c 128
 254.966051834 63.557426742 36.1510450257 245.918588584 25.9345703125 300 c 129
974.065429688 300 m 128
 974.065429688 240.974830238 749.926794543 68.9466525255 710.499023438 18.7451171875 c 128
 661.709972292 -43.3756978245 593.453256336 24.6366267967 643.653076329 75.4663340121 c 130
 865.404296875 300 l 1
 626.559573044 541.841651702 l 129
 606.372242863 589.191142715 667.556707549 634.258298689 708.73046875 582.770507812 c 128
 745.501212489 536.788690539 974.065429688 355.037945241 974.065429688 300 c 128
EndSplineSet
Validated: 524321
EndChar

StartChar: uniF450
Encoding: 62544 62544 58
Width: 1000
VWidth: 982
Flags: HW
LayerCount: 2
Fore
SplineSet
185.641601562 119.915039062 m 128
 -68.0552518718 485.574011908 311.665688605 889.915892158 678.407226562 720.078125 c 0
 854.849884859 638.367644962 989.671962453 318.193607959 814.358398438 119.915039062 c 128
 795.467844929 96.2068313507 561.432193257 -139.431054666 542.705078125 -148.704101562 c 128
 493.292116889 -173.171762686 467.23440788 -164.654385186 428.990234375 -126.21484375 c 128
 395.996224418 -98.1644727871 204.118218962 97.2108540107 185.641601562 119.915039062 c 128
563.174804688 664.989257812 m 0
 293.071432467 718.654649271 103.299775728 435.260033119 240.729492188 198.504882812 c 0
 254.543945312 177.615234375 300.873046875 128.084960938 379.71484375 49.9169921875 c 2
 500 -70.3671875 l 1
 620.28515625 49.9169921875 l 1
 744.310713489 176.328620897 829.16170326 224.099338426 799.44921875 431.2421875 c 128
 783.15418378 544.844265049 675.770668146 641.807022511 563.174804688 664.989257812 c 0
515.4140625 483.549804688 m 128
 630.246865477 483.549804688 654.837243223 305.27603031 566.20703125 260.669921875 c 0
 435.316984923 188.240923879 316.260599132 345.884306747 412.313476562 448.424804688 c 128
 439.757742498 477.641323911 462.344909283 483.549804688 515.4140625 483.549804688 c 128
EndSplineSet
Validated: 524321
EndChar

StartChar: uniF455
Encoding: 62549 62549 59
Width: 1000
VWidth: 981
Flags: HW
LayerCount: 2
Fore
SplineSet
746.129882812 668.94140625 m 1
 804.756835938 668.94140625 l 1
 882.520080727 671.448586218 913.194129233 634.949913753 926.557617188 573.926757812 c 128
 929.926757812 544.614257812 931.611328125 450.440429688 931.611328125 291.408203125 c 2
 931.611328125 182.2421875 l 1
 918.649764997 -54.4975940982 960.853202745 -89.1457723375 885.114257812 -172.548828125 c 1
 862.876953125 -191.248046875 l 1
 137.123046875 -191.248046875 l 1
 114.885742188 -172.548828125 l 1
 38.7550816397 -89.8466703524 82.0309649569 -54.7854709137 68.388671875 182.2421875 c 1
 68.388671875 279.784179688 l 1
 80.4239621453 519.678580664 37.0462235062 561.050189347 107.809570312 641.650390625 c 0
 132.560946056 669.842469672 141.075858897 666.919921875 195.243164062 666.919921875 c 2
 253.870117188 666.919921875 l 1
 253.870117188 714.427734375 l 1
 247.95850069 763.572278415 265.976975382 791.248046875 299.861328125 791.248046875 c 128
 333.388344238 791.248046875 351.456243818 763.395181312 346.358398438 714.427734375 c 1
 346.358398438 667.931640625 l 1
 653.641601562 667.931640625 l 1
 653.641601562 714.427734375 l 1
 648.769135627 763.117756036 665.58863286 790.23828125 699.885742188 790.23828125 c 128
 734.250073308 790.23828125 751.246447716 763.515954475 746.129882812 714.427734375 c 1
 746.129882812 668.94140625 l 1
160.876953125 494.578125 m 2
 160.876953125 421.801757812 l 1
 839.123046875 421.801757812 l 1
 839.123046875 572.41015625 l 1
 165.930664062 572.41015625 l 1
 162.560546875 570.389648438 160.876953125 543.771484375 160.876953125 494.578125 c 2
835.080100717 -98.7607421875 m 1
 835.080100717 328.807617188 l 1
 160.876953125 328.807617188 l 1
 160.876953125 -98.7607421875 l 1
 835.080100717 -98.7607421875 l 1
EndSplineSet
Validated: 524321
EndChar

StartChar: uniF456
Encoding: 62550 62550 60
Width: 1000
VWidth: 981
Flags: HW
LayerCount: 2
Fore
SplineSet
252.837890625 391.4765625 m 1
 252.837890625 567.862304688 l 129
 291.4767541 676.862285333 367.835280038 765.062895828 513.624023438 760.924804688 c 0
 637.374098662 755.351560185 745.602539062 673.172456133 745.602539062 570.387695312 c 130
 745.602539062 394.508789062 l 1
 774.916015625 394.508789062 l 1
 812.134919053 389.953573967 852.600473326 360.036115579 868.4140625 331.333984375 c 1
 868.4140625 -92.6962890625 l 1
 847.693359375 -114.932617188 l 1
 772.918832094 -187.411717341 746.223243542 -149.526035705 534.345703125 -161.4296875 c 1
 465.610351562 -161.4296875 l 1
 254.117666351 -149.550952892 227.89014053 -187.983366493 152.263671875 -114.932617188 c 1
 133.5625 -92.6962890625 l 1
 133.5625 331.333984375 l 1
 147.418047862 359.647419315 189.032706823 387.069892063 225.040039062 391.4765625 c 1
 252.837890625 391.4765625 l 1
346.336914062 393.499023438 m 1
 653.620117188 393.499023438 l 1
 653.620117188 466.27734375 l 1
 664.777857953 614.667226284 585.203612622 687.353136025 465.864257812 665.657226562 c 128
 382.117012753 650.431967054 338.252251793 585.694354032 346.336914062 466.27734375 c 1
 346.336914062 393.499023438 l 1
773.905273438 -65.9091796875 m 1
 773.905273438 297.978515625 l 1
 226.05078125 297.978515625 l 1
 224.029296875 293.26171875 223.35546875 227.390625 224.029296875 110.474609375 c 2
 224.029296875 -65.9091796875 l 1
 773.905273438 -65.9091796875 l 1
EndSplineSet
Validated: 524321
EndChar

StartChar: uniF45C
Encoding: 62556 62556 61
Width: 1000
VWidth: 981
Flags: HW
LayerCount: 2
Fore
SplineSet
480.037109375 566.758789062 m 0
 480.037109375 607.494638901 542.28628592 618.285791945 570.502929688 581.415039062 c 0
 586.858056386 560.043757636 853.432552984 337.499311248 827.751953125 286.767578125 c 1
 840.293618455 284.912822752 551.119043624 -8.73695782253 550.79296875 3.7431640625 c 1
 514.002615096 -19.4092626179 462.064676546 25.1071637877 489.133789062 59.8427734375 c 0
 495.19921875 68.265625 527.711914062 103.4765625 586.676757812 165.470703125 c 2
 673.099609375 254.421875 l 1
 198.024414062 254.421875 l 1
 188.38162186 268.870554151 178.928008732 283.508412378 169.720703125 298.392578125 c 1
 177.959462766 313.4025164 186.370636855 328.240040228 194.991210938 342.868164062 c 1
 671.078125 342.868164062 l 1
 600.322265625 420.698242188 l 1
 520.131835938 499.541015625 480.037109375 548.227539062 480.037109375 566.758789062 c 0
EndSplineSet
Validated: 524321
EndChar

StartChar: uniF45D
Encoding: 62557 62557 62
Width: 1000
VWidth: 981
Flags: HW
LayerCount: 2
Fore
SplineSet
502.34375 606.77734375 m 1
 728.509765625 606.77734375 l 129
 797.672397605 595.182445433 796.661039303 581.546461543 868.000976562 520.859375 c 128
 948.767841609 452.153038589 972.651564823 451.65460326 949.875 343.969726562 c 129
 920.650469103 311.500774483 787.367687584 176.176757812 728.509765625 176.176757812 c 130
 502.34375 176.176757812 l 1
 502.34375 -162.946289062 l 1
 487.6875 -177.603515625 l 2
 468.518536299 -197.145326999 444.689379464 -197.144796127 425.522460938 -177.603515625 c 1
 409.854492188 -162.946289062 l 1
 409.854492188 176.176757812 l 1
 136.686523438 176.176757812 l 129
 94.8451508116 178.875948829 83.0988112071 197.722419711 61.634765625 221.663085938 c 1
 43.9462890625 245.416992188 l 1
 43.9462890625 513.27734375 l 130
 43.9462890625 550.780949848 63.9453031668 567.29655324 85.3876953125 585.045898438 c 2
 109.142578125 604.25 l 1
 409.854492188 604.25 l 1
 409.854492188 753.091796875 l 129
 420.09250374 801.916982983 502.34375 804.512995228 502.34375 753.342773438 c 130
 502.34375 606.77734375 l 1
435.124023438 515.299804688 m 2
 237.68359375 515.299804688 137.950195312 512.60546875 135.928710938 507.212890625 c 0
 133.907226562 501.149414062 133.232421875 460.885742188 133.907226562 386.422851562 c 2
 133.907226562 271.698242188 l 1
 731.794921875 271.698242188 l 1
 848.604837465 364.792174363 l 129
 861.576517153 377.931822801 870.552420826 394.547481441 870.552420826 397.410762691 c 129
 731.794921875 515.299804688 l 1
 435.124023438 515.299804688 l 2
EndSplineSet
Validated: 524321
EndChar

StartChar: uniF45E
Encoding: 62558 62558 63
Width: 1000
VWidth: 981
Flags: HW
LayerCount: 2
Fore
SplineSet
685.501953125 222.168945312 m 130
 685.501953125 694.211914062 l 1
 134.616210938 694.211914062 l 1
 134.616210938 -39.123046875 l 1
 249.84765625 -39.123046875 l 1
 344.924764877 -52.6863394948 385.80078125 -25.0412764554 385.80078125 -88.1474609375 c 0
 385.80078125 -116.4596583 369.197656138 -132.622070312 340.313476562 -132.622070312 c 130
 107.830078125 -132.622070312 l 1
 84.076171875 -112.911132812 l 1
 8.07587260095 -23.3092105577 52.7100249126 14.5615881016 38.5908203125 267.149414062 c 1
 38.5908203125 326.786132812 l 1
 48.9097687016 605.548736167 16.8781456704 651.442499384 69.419921875 756.376953125 c 1
 154.20296638 813.268221917 216.382205448 779.897615372 408.54296875 789.732421875 c 1
 442.911132812 789.732421875 l 1
 654.025127287 778.155141121 679.756717878 815.860511947 756.258789062 744.24609375 c 1
 774.958007812 720.998046875 l 1
 774.958007812 227.98046875 l 129
 788.924154847 144.906117926 685.501953125 136.094482241 685.501953125 222.168945312 c 130
577.8515625 527.430664062 m 1
 597.538496361 509.639717476 597.250987278 484.367248252 577.8515625 466.27734375 c 1
 563.196289062 450.609375 l 1
 253.890625 450.609375 l 1
 238.728515625 466.27734375 l 1
 217.839032262 483.776757722 217.839594631 509.933716655 238.728515625 527.430664062 c 1
 253.890625 543.096679688 l 1
 563.196289062 543.096679688 l 1
 577.8515625 527.430664062 l 1
438.8671875 312.3828125 m 129
 445.142867806 244.786548572 217.294585803 246.322426579 223.061523438 312.3828125 c 129
 217.902095293 378.986763601 445.378298115 379.353199303 438.8671875 312.3828125 c 129
677.668945312 -166.736328125 m 128
 609.432525288 -217.796378969 594.51455364 -169.997934122 541.463867188 -115.944335938 c 0
 488.617161153 -62.0985743761 453.221806272 -55.9612659978 484.606445312 4.5947265625 c 128
 490.442180462 15.8546532364 523.920748588 28.2552563953 537.877653691 14.6972227453 c 130
 636.984375 -81.5771484375 l 1
 706.224609375 -13.34765625 l 1
 756.177809199 32.1911799627 858.017472378 142.739398872 907.373046875 171.123046875 c 128
 932.547038775 183.98936076 981.464829231 135.963178147 953.364257812 107.6953125 c 129
 950.996595285 94.7242843174 698.493683258 -150.686806299 677.668945312 -166.736328125 c 128
EndSplineSet
Validated: 524321
EndChar

StartChar: uniF45F
Encoding: 62559 62559 64
Width: 1000
VWidth: 981
Flags: HW
LayerCount: 2
Fore
SplineSet
338.271484375 -177.323242188 m 0
 169.66863121 -177.323242188 185.709631643 -16.5021853334 161.887695312 119.346679688 c 1
 161.887695312 179.489257812 l 1
 126.509765625 198.188476562 l 1
 37.0818236335 232.625299376 -30.7864643531 401.776421944 32 513.55859375 c 0
 60.0951518826 571.121378954 94.0617450554 604.063055086 152.284179688 631.821289062 c 2
 193.727539062 651.533203125 l 1
 297.83984375 651.533203125 l 1
 563.856550773 629.259950548 759.264016913 665.034830838 913.922851562 764.7421875 c 0
 937.508789062 781.250976562 958.229492188 780.241210938 976.0859375 761.709960938 c 2
 990.743164062 747.052734375 l 1
 990.743164062 68.3017578125 l 1
 976.0859375 53.1396484375 l 1
 944.118785973 27.9861780601 933.556783149 39.0186348462 894.211914062 62.236328125 c 0
 792.714169272 122.130885198 650.499474789 162.99552121 494.946289062 173.423828125 c 1
 465.6328125 173.423828125 l 1
 465.6328125 116.314453125 l 1
 501.29364025 -24.7688522957 518.503013269 -177.323242188 338.271484375 -177.323242188 c 0
467.654296875 549.947265625 m 1
 467.654296875 266.416992188 l 1
 497.978515625 266.416992188 l 2
 600.846967951 266.416992188 764.388763889 224.777744502 842.15625 193.134765625 c 1
 899.266601562 168.37109375 l 1
 899.266601562 647.490234375 l 1
 761.826446517 584.61673834 668.229927423 563.33646319 497.978515625 549.947265625 c 1
 467.654296875 549.947265625 l 1
98.712890625 407.676757812 m 128
 98.712890625 306.678138583 175.12524479 241.824871939 302.893554688 254.287109375 c 1
 374.661132812 254.287109375 l 1
 374.661132812 561.571289062 l 1
 299.861328125 561.571289062 l 1
 171.293714045 574.328542486 98.712890625 507.511852037 98.712890625 407.676757812 c 128
376.682617188 114.29296875 m 1
 376.682617188 161.799804688 l 1
 250.837890625 161.799804688 l 1
 250.837890625 114.29296875 l 1
 256.228515625 53.3076171875 269.369140625 0.0712890625 283.182617188 -45.4140625 c 2
 295.818359375 -85.845703125 l 1
 342.315429688 -85.845703125 l 1
 450.371500142 -89.4733847325 363.880144205 41.0079578225 376.682617188 114.29296875 c 1
EndSplineSet
Validated: 524321
EndChar

StartChar: uniF460
Encoding: 62560 62560 65
Width: 1000
VWidth: 982
Flags: HW
LayerCount: 2
Fore
SplineSet
653.010742188 341.040039062 m 128
 681.986262618 305.317575573 681.986224828 294.897993766 653.010742188 259.165039062 c 128
 641.61042126 243.263665378 414.16909596 17.1871915855 402.33203125 9.4970703125 c 0
 359.551463514 -34.8019637954 295.113801885 28.6282358497 336.757255621 70.2720220917 c 130
 566.5859375 300.102539062 l 1
 326.997423458 541.689456568 l 129
 306.420154075 568.9890938 355.115357968 626.784218925 388.432617188 599.299804688 c 129
 401.520393626 597.990216594 638.241524228 361.029517447 653.010742188 341.040039062 c 128
EndSplineSet
Validated: 524321
EndChar

StartChar: uniF461
Encoding: 62561 62561 66
Width: 1000
VWidth: 981
Flags: HW
LayerCount: 2
Fore
SplineSet
500.224609375 711.18359375 m 0
 685.985908604 711.18359375 720.685225839 736.387367028 778.1953125 667.719726562 c 1
 794.384494307 577.507855336 796.590396122 -19.1016014662 776.172851562 -103.016601562 c 1
 739.312574215 -144.023960234 529.530514789 78.0493349507 508.310546875 78.4228515625 c 1
 517.384982554 104.300637945 236.062837591 -130.36676927 249.040039062 -110.596679688 c 1
 217.533441625 -112.222182074 212.698419588 -93.7489672173 211.893554688 -43.125 c 128
 214.960106825 26.0894124023 197.997866004 648.203443655 226.297851562 680.860351562 c 0
 267.317818311 728.195544498 304.008568318 711.18359375 500.224609375 711.18359375 c 0
EndSplineSet
Validated: 524321
EndChar

StartChar: uniF464
Encoding: 62564 62564 67
Width: 1000
VWidth: 981
Flags: HW
LayerCount: 2
Fore
SplineSet
194.233398438 427.137695312 m 2
 10.267578125 427.137695312 l 1
 10.267578125 672.256835938 l 1
 19.2863201393 683.526588003 57.5228799046 653.810093074 71.4208984375 639.91015625 c 2
 110.841796875 602.510742188 l 1
 132.57421875 627.78125 l 1
 228.534569749 737.812606322 405.648759356 833.010181931 617.252929688 778.895507812 c 0
 825.260426496 725.700630384 989.732421875 568.461851179 989.732421875 300.787109375 c 0
 989.732421875 -2.80891365623 735.404869206 -257.395675276 373.396484375 -174.793945312 c 128
 191.522377293 -133.29458643 46.0835551053 29.5714798648 14.310546875 222.955078125 c 0
 5.212890625 274.842773438 20.2060546875 300.787109375 59.2919921875 300.787109375 c 0
 80.85546875 300.787109375 97.365234375 275.1796875 108.8203125 223.965820312 c 0
 159.223470866 24.5965550974 315.587048371 -134.009284997 580.86328125 -91.4033203125 c 0
 725.149520517 -68.2295352056 835.654972196 44.9831040217 879.807617188 176.458984375 c 128
 952.704520314 393.518981581 824.777080652 585.8669946 679.416015625 657.599609375 c 0
 485.112548224 759.167486202 279.827258515 669.431428874 179.576171875 539.3359375 c 1
 171.097977179 538.706309855 267.882968973 445.106972153 259.4296875 440.783203125 c 1
 258.41796875 432.359375 236.69185521 427.137695312 194.233398438 427.137695312 c 2
531.333984375 505.7265625 m 130
 531.333984375 316.455078125 l 1
 599.563476562 289.163085938 l 1
 679.237922818 277.951183628 712.196477338 207.180907022 641.005859375 177.469726562 c 0
 632.470483929 173.90751447 441.381089481 253.071250312 447.943359375 259.344726562 c 1
 441.877929688 267.768554688 438.846679688 313.084960938 438.846679688 395.296875 c 0
 441.99353383 499.898047883 420.669081749 546.916015625 484.5859375 546.916015625 c 128
 504.153448638 546.916015625 531.333984375 526.061869515 531.333984375 505.7265625 c 130
EndSplineSet
Validated: 524321
EndChar

StartChar: uniF465
Encoding: 62565 62565 68
Width: 1000
VWidth: 981
Flags: HW
LayerCount: 2
Fore
SplineSet
898.48046875 699.239257812 m 1
 898.48046875 424.806640625 l 129
 877.276649766 400.923726768 793.759927288 512.437570751 782.23828125 510.21875 c 1
 794.649637291 531.168392391 551.891085342 285.764950893 545.709960938 284.3046875 c 128
 502.116527602 247.78045957 448.196321324 300.853060247 485.315429688 344.447265625 c 128
 489.240492599 353.561571688 731.894818609 592.150644577 709.96484375 587.040039062 c 1
 700.495965896 578.24334107 611.526046929 691.171951894 620.509765625 699.239257812 c 1
 898.48046875 699.239257812 l 1
430.985351562 546.607421875 m 130
 196.479492188 546.607421875 l 1
 196.479492188 -4.2783203125 l 1
 744.838867188 -4.2783203125 l 1
 744.838867188 230.732421875 l 129
 753.133764585 258.708881772 797.830070186 288.684099687 825.197265625 253.981445312 c 1
 841.370117188 239.32421875 l 1
 840.025499569 149.191622827 838.67758829 59.062320564 837.326171875 -31.0634765625 c 1
 818.626953125 -54.818359375 l 1
 742.046338286 -125.38224093 716.411997919 -88.2795971134 505.279296875 -99.798828125 c 1
 436.0390625 -99.798828125 l 1
 224.015399626 -87.9908880829 199.809760639 -126.436868153 122.690429688 -54.818359375 c 1
 103.991210938 -31.0634765625 l 1
 103.991210938 256.001953125 l 1
 117.577663742 544.030883361 61.3866856311 554.83960712 166.155273438 629.493164062 c 1
 229.425962599 632.099556219 524.059332052 683.989991141 458.78125 564.296875 c 0
 452.715820312 557.557617188 443.543939997 546.607421875 430.985351562 546.607421875 c 130
EndSplineSet
Validated: 524321
EndChar

StartChar: uniF466
Encoding: 62566 62566 69
Width: 1000
VWidth: 981
Flags: HW
LayerCount: 2
Fore
SplineSet
82.6904296875 113.5078125 m 129
 -23.6617303182 134.812111437 -27.9825928068 483.459960938 82.6904296875 483.459960938 c 130
 221.927734375 483.459960938 l 1
 317.447265625 567.862304688 l 1
 428.130333764 642.932478328 399.77466726 685.487344727 484.23046875 653.780273438 c 1
 499.897460938 639.123046875 l 1
 499.897460938 -39.123046875 l 1
 484.23046875 -53.7802734375 l 1
 399.947994299 -86.4723617224 428.150013335 -42.1639137508 317.447265625 32.1376953125 c 1
 221.927734375 113.5078125 l 1
 82.6904296875 113.5078125 l 129
407.409179688 298.98828125 m 2
 407.409179688 447.576171875 407.072265625 521.870117188 406.3984375 521.870117188 c 0
 387.826153501 507.776892247 311.891294435 440.738189287 285.102539062 417.252929688 c 1
 257.305664062 395.520507812 l 1
 205.735029454 393.518551275 154.183203226 391.497786357 102.65234375 389.456054688 c 1
 102.65234375 210.543945312 l 1
 264.210657196 210.543945312 l 129
 407.409179688 77.1181640625 l 1
 407.409179688 298.98828125 l 2
625.489257812 430.140625 m 129
 631.397504509 507.2422825 687.156148809 483.237038913 746.02734375 425.338867188 c 2
 807.180664062 365.196289062 l 1
 922.862263064 478.996989877 l 129
 964.297613688 498.25825671 1018.76912458 446.393532663 986.84920381 414.473102153 c 130
 872.377929688 300 l 1
 932.51953125 238.846679688 l 2
 965.5390625 205.827148438 984.828125 182.831054688 990.388671875 169.859375 c 129
 983.496694687 92.9400906388 927.711830292 116.264684039 868.333984375 174.661132812 c 2
 807.180664062 234.803710938 l 1
 746.02734375 174.661132812 l 2
 713.0078125 141.641601562 690.010742188 122.60546875 677.0390625 117.55078125 c 129
 599.819509932 125.231292321 624.04443151 179.566573012 682.345703125 238.846679688 c 2
 742.489257812 300 l 1
 682.345703125 361.153320312 l 2
 650.000976562 394.172851562 631.047851562 417.168945312 625.489257812 430.140625 c 129
EndSplineSet
Validated: 524321
EndChar

StartChar: uniF467
Encoding: 62567 62567 70
Width: 1000
VWidth: 981
Flags: HW
LayerCount: 2
Fore
SplineSet
758.586640275 105.081342411 m 129
 809.696976594 61.6742519508 741.823904228 -6.47442842518 694.693516715 40.4319602681 c 130
 499.393554688 234.803710938 l 1
 296.93626425 35.1986817987 l 129
 255.510499649 0.474766943441 196.452800466 58.858279071 234.840601284 97.7946233755 c 130
 434.197265625 300 l 1
 223.430576898 511.771253874 l 129
 205.34097087 542.149446038 262.505352143 600.962939924 287.496940135 576.089675079 c 130
 499.393554688 365.196289062 l 1
 694.314989729 559.191311789 l 129
 737.719606057 610.301587957 805.870620757 542.427567847 758.964833058 495.298649435 c 130
 564.590820312 300 l 1
 758.586640275 105.081342411 l 129
EndSplineSet
Validated: 524321
EndChar

StartChar: uniF468
Encoding: 62568 62568 71
Width: 1000
VWidth: 982
Flags: HW
LayerCount: 2
Fore
SplineSet
913.704101562 566.967773438 m 0
 1131.27294808 250.023967966 871.323306298 -206.776447984 501.044921875 -189.6171875 c 128
 201.022775991 -175.713707393 -33.893586449 55.8362068506 14.091796875 370.872070312 c 0
 55.227185493 640.936030928 274.871848329 845.577262233 618.043945312 779.235351562 c 0
 748.949963873 753.928645493 845.305664062 673.1015625 913.704101562 566.967773438 c 0
738.329101562 623.572265625 m 0
 662.687843846 670.041342798 544.070985662 713.627421104 414.874023438 690.28515625 c 0
 180.500792243 647.940491614 -6.81729642516 315.309165769 178.346679688 67.6318359375 c 1
 307.332993513 138.225199607 638.234434615 510.93203422 709.26953125 576.064453125 c 128
 734.37109375 603.01953125 744.057617188 618.854492188 738.329101562 623.572265625 c 0
815.150390625 546.24609375 m 1
 868.783019208 603.627366759 294.982575435 31.1679497306 304.697265625 35.7919921875 c 1
 244.670033361 -26.9053623618 268.674471785 -31.3104957967 326.4296875 -56.6962890625 c 0
 716.019312736 -247.440954702 1063.75018051 221.789564791 815.150390625 546.24609375 c 1
EndSplineSet
Validated: 524321
EndChar

StartChar: uniF469
Encoding: 62569 62569 72
Width: 1000
VWidth: 982
Flags: HW
LayerCount: 2
Fore
SplineSet
623.318359375 125.245117188 m 0
 644.212531964 131.148344588 687.404109971 352.66171244 747.899414062 344.588867188 c 128
 786.941993246 339.378798328 969.989117798 359.262285656 977.09765625 331.448242188 c 1
 1009.74881119 305.427299747 985.81009687 254.627929688 957.891601562 254.627929688 c 130
 775.948242188 254.627929688 l 1
 718.838867188 106.545898438 l 1
 651.481111983 -16.0224019156 684.948159305 -70.4821884035 598.552734375 -46.0849609375 c 0
 572.390345333 -38.6969568039 384.67354549 475.993164062 376.682617188 475.993164062 c 0
 356.577003991 469.948021071 310.810804054 247.181260255 252.100585938 255.891601562 c 128
 212.711026118 261.735499286 30.3656267934 241.81126541 22.90234375 269.28515625 c 1
 -9.74898601193 295.248801799 14.2171481109 346.104492188 42.1083984375 346.104492188 c 130
 224.051757812 346.104492188 l 1
 281.161132812 493.681640625 l 1
 349.320548477 617.501100427 310.619602951 660.977393306 401.447265625 647.829101562 c 1
 422.84133681 632.422889837 615.351149499 125.245117188 623.318359375 125.245117188 c 0
EndSplineSet
Validated: 524321
EndChar

StartChar: uniF46A
Encoding: 62570 62570 73
Width: 1000
VWidth: 982
Flags: HW
LayerCount: 2
Fore
SplineSet
245.783203125 426.374023438 m 2
 72.4326171875 426.374023438 l 1
 72.4326171875 670.483398438 l 1
 82.020368485 684.261557973 123.275183307 648.950870786 138.133789062 634.09375 c 2
 182.608398438 590.62890625 l 1
 217.986328125 623.48046875 l 1
 453.422072322 851.625373495 952.998973643 669.349465962 924.030273438 331.359375 c 0
 919.102506805 273.865035224 833.05859375 302.862538754 833.05859375 359.155273438 c 0
 833.05859375 544.562399372 638.279677885 683.649906431 394.37109375 621.458984375 c 0
 345.360701738 608.962493198 305.58984375 580.184570312 271.559570312 547.165039062 c 1
 247.8046875 525.9375 l 1
 285.205078125 486.515625 l 1
 333.880787148 433.172928786 343.012279671 426.374023438 245.783203125 426.374023438 c 2
759.270507812 173.673828125 m 2
 927.567382812 173.673828125 l 1
 927.567382812 -68.91796875 l 129
 918.711800875 -84.0036369935 876.601495068 -46.3296020502 862.876953125 -33.03515625 c 2
 817.391601562 9.4189453125 l 1
 782.013671875 -23.4326171875 l 1
 550.660410159 -248.338922081 44.7986823581 -71.232763088 75.9697265625 269.701171875 c 0
 80.9062334866 323.694317552 164.328773388 297.911401892 166.94140625 240.892578125 c 0
 178.727368116 -16.3275205285 577.739285924 -127.62551982 736.526367188 58.4423828125 c 1
 754.216796875 77.142578125 l 1
 715.805664062 114.54296875 l 1
 665.723027481 168.950463301 658.378714464 173.673828125 759.270507812 173.673828125 c 2
EndSplineSet
Validated: 524321
EndChar

StartChar: uniF46B
Encoding: 62571 62571 74
Width: 1000
VWidth: 981
Flags: HW
LayerCount: 2
Fore
SplineSet
675.471679688 730.982421875 m 0
 748.01440727 783.18371574 837.889241905 805.262663688 879.654296875 734.520507812 c 0
 925.516691364 656.838228641 1053.51592652 524.311005232 956.979492188 456.802734375 c 128
 646.127370118 239.422743091 118.776167046 48.8013398567 158.953125 70.4248046875 c 1
 82.5195036568 48.1253885542 -23.1212664131 220.752527509 36.140625 287.2421875 c 0
 44.564453125 300.044921875 266.794936029 436.901188611 675.471679688 730.982421875 c 0
762.400390625 457.055664062 m 1
 762.053916987 452.82188525 902.988572646 516.645395734 889.254882812 524.779296875 c 1
 897.583406845 523.363519694 794.803295644 703.329013833 790.703125 689.540039062 c 1
 763.556942742 680.925032656 693.007131502 632.010387999 668.395507812 613.729492188 c 1
 655.595865158 624.178945271 766.129382088 439.710336402 762.400390625 457.055664062 c 1
587.78515625 555.103515625 m 129
 581.467164952 555.103515625 303.158086652 367.858803394 293.388671875 356.481445312 c 0
 276.978130894 337.369901243 338.895176907 264.688334293 339.380859375 258.938476562 c 1
 314.81965246 233.876557601 672.438476562 410.559570312 672.438476562 410.559570312 c 1
 683.351222561 399.463186944 583.804495051 571.063700811 587.78515625 555.103515625 c 129
112.9609375 224.067382812 m 1
 117.335015862 122.539064156 208.971788265 183.979548166 254.473632812 214.462890625 c 1
 259.300568759 210.366075024 204.700252019 307.110893877 204.438476562 297.348632812 c 1
 203.596578821 304.083956042 105.125842104 226.022013366 112.9609375 224.067382812 c 1
470.279296875 -148.91796875 m 130
 470.279296875 33.025390625 l 1
 411.65234375 -48.849609375 l 1
 353.050694287 -118.687800462 369.268926806 -155.484890997 298.444335938 -148.666015625 c 129
 243.109547924 -94.1303591132 278.057721738 -81.0712630387 341.40234375 12.3037109375 c 2
 409.630859375 112.877929688 l 1
 478.365234375 146.235351562 l 2
 522.502929688 168.47265625 547.100585938 179.759765625 552.153320312 180.096679688 c 0
 616.681051297 141.232056008 731.648043846 -27.7987525803 759.368164062 -107.981445312 c 0
 770.418449805 -139.945291767 714.570092492 -169.655771482 688.106445312 -142.34765625 c 0
 681.030273438 -134.599609375 658.79296875 -103.43359375 621.393554688 -48.849609375 c 2
 565.294921875 33.025390625 l 1
 565.294921875 -148.666015625 l 129
 558.362845947 -190.929187694 470.279296875 -195.204332441 470.279296875 -148.91796875 c 130
EndSplineSet
Validated: 524325
EndChar

StartChar: uniF46D
Encoding: 62573 62573 75
Width: 1000
VWidth: 981
Flags: HW
LayerCount: 2
Fore
SplineSet
931.611328125 169.372070312 m 2
 931.611328125 158.252929688 l 1
 920.768970676 -39.2262471776 956.131826794 -58.8565591047 885.114257812 -131.341796875 c 1
 862.876953125 -149.030273438 l 1
 772.743058895 -150.37391827 682.613411003 -151.72180944 592.48828125 -153.07421875 c 1
 582.302305391 -142.707460234 571.876495023 -132.580536227 561.153320312 -122.750976562 c 1
 561.153320312 217.384765625 l 1
 438.846679688 217.384765625 l 1
 438.846679688 -122.750976562 l 1
 428.127322843 -132.584354093 417.693855187 -142.703620812 407.51171875 -153.07421875 c 1
 317.386526436 -151.721872002 227.257003707 -150.373855668 137.123046875 -149.030273438 c 1
 114.885742188 -131.341796875 l 1
 44.609445788 -58.4146561728 79.1460824905 -38.5803311572 68.388671875 159.262695312 c 1
 68.388671875 169.372070312 l 1
 62.4826046602 515.696609879 60.8174545614 438.275553686 286.215820312 612.860351562 c 128
 442.147183055 733.638713714 400.866905606 760.885059743 545.486328125 742.495117188 c 1
 586.276446987 707.575846143 908.097433356 478.731234041 924.536132812 424.59765625 c 0
 929.252929688 412.805664062 931.611328125 327.73046875 931.611328125 169.372070312 c 2
653.641601562 -60.5859375 m 1
 836.090820312 -60.5859375 l 1
 836.090820312 394.779296875 l 1
 673.3515625 527.700195312 l 1
 419.000231045 704.611161782 579.223710323 704.522411178 325.63671875 526.689453125 c 1
 160.876953125 394.779296875 l 1
 160.876953125 -57.5537109375 l 1
 346.358398438 -57.5537109375 l 1
 346.358398438 279.547851562 l 1
 361.015625 294.205078125 l 2
 383.782114063 317.141538248 611.069609506 316.673005124 638.984375 294.205078125 c 1
 653.641601562 279.547851562 l 1
 653.641601562 -60.5859375 l 1
EndSplineSet
Validated: 524321
EndChar

StartChar: uniF46E
Encoding: 62574 62574 76
Width: 1000
VWidth: 981
Flags: HW
LayerCount: 2
Fore
SplineSet
7.234375 506.204101562 m 1
 103.542617342 600.936874846 199.074455738 696.446052074 293.795898438 792.765625 c 1
 706.204101562 792.765625 l 1
 800.936874846 696.457382658 896.446052074 600.925544262 992.765625 506.204101562 c 1
 992.765625 93.7958984375 l 1
 896.457382658 -0.936874845767 800.925544262 -96.4460520742 706.204101562 -192.765625 c 1
 293.795898438 -192.765625 l 1
 199.063125154 -96.4573826583 103.553947926 -0.925544261749 7.234375 93.7958984375 c 1
 7.234375 506.204101562 l 1
900.276367188 463.75 m 1
 821.434751373 542.592628978 742.592636264 621.43475866 663.75 700.276367188 c 1
 336.25 700.276367188 l 1
 257.407371022 621.434751373 178.56524134 542.592636264 99.7236328125 463.75 c 1
 99.7236328125 136.25 l 1
 178.565248627 57.4073710225 257.407363736 -21.4347586599 336.25 -100.276367188 c 1
 663.75 -100.276367188 l 1
 742.592628978 -21.4347513734 821.43475866 57.4073637359 900.276367188 136.25 c 1
 900.276367188 463.75 l 1
455.77734375 497.359375 m 128
 455.77734375 528.412725426 469.797965378 545.624023438 499.747070312 545.624023438 c 128
 563.079232404 545.624023438 549.0234375 476.290975092 549.0234375 392.48828125 c 0
 549.0234375 298.244882352 561.540495984 247.826251172 500 238.846679688 c 128
 424.249324066 227.793655192 455.77734375 416.956743538 455.77734375 497.359375 c 128
469.67578125 168.08984375 m 0
 566.723141765 215.277406545 595.241302819 52.9541014124 500 53.8701171875 c 1
 439.615281896 49.3218720791 415.782549268 144.441194952 469.67578125 168.08984375 c 0
EndSplineSet
Validated: 524321
EndChar

StartChar: uniF46F
Encoding: 62575 62575 77
Width: 1000
VWidth: 981
Flags: HW
LayerCount: 2
Fore
SplineSet
715.805664062 208.016601562 m 1
 900.276367188 208.016601562 l 1
 900.276367188 145.348632812 l 1
 715.805664062 145.348632812 l 1
 715.805664062 85.7099609375 l 1
 811.326171875 53.3642578125 l 1
 910.024638819 18.835440577 923.323713453 28.0278549396 885.114257812 -32.5537109375 c 0
 881.071289062 -32.5537109375 851.080386577 -25.316287856 796.669921875 -6.2724609375 c 2
 715.805664062 22.0302734375 l 1
 715.805664062 -15.3701171875 l 2
 715.805664062 -82.2657902947 695.087985256 -100.276367188 627.8671875 -100.276367188 c 2
 589.456054688 -100.276367188 l 1
 569.88301137 -78.5753219632 550.172402979 -57.0118418126 530.32421875 -35.5859375 c 1
 530.32421875 391.983398438 l 1
 469.67578125 391.983398438 l 1
 469.67578125 -35.5859375 l 1
 449.829562813 -57.0138076044 430.115025606 -78.5733589396 410.543945312 -100.276367188 c 1
 372.1328125 -100.276367188 l 2
 305.868052967 -100.276367188 284.194335938 -81.1170535092 284.194335938 -15.3701171875 c 2
 284.194335938 22.0302734375 l 1
 203.330078125 -6.2724609375 l 1
 110.371232206 -32.0525724694 112.72364173 -54.9855427399 94.1630859375 14.9541015625 c 0
 94.1630859375 19.6708984375 125.666992188 32.474609375 188.673828125 53.3642578125 c 2
 284.194335938 85.7099609375 l 1
 284.194335938 145.348632812 l 1
 99.7236328125 145.348632812 l 1
 99.7236328125 208.016601562 l 1
 284.194335938 208.016601562 l 1
 284.194335938 267.654296875 l 1
 188.673828125 298.98828125 l 1
 90.2130114821 333.666680549 76.6800562555 325.015783153 114.885742188 385.91796875 c 0
 118.928710938 385.91796875 148.41015625 376.821289062 203.330078125 358.625976562 c 2
 284.194335938 331.333984375 l 1
 284.194335938 368.735351562 l 1
 270.758399992 453.362073744 357.151046174 426.323956486 346.358398438 495.084960938 c 0
 335.156492559 566.453388665 433.420989236 567.283233415 366.068359375 609.3046875 c 1
 337.26171875 638.618164062 l 1
 223.041015625 638.618164062 l 1
 223.041015625 700.276367188 l 1
 361.015625 700.276367188 l 1
 423.178710938 638.618164062 l 1
 514.326136436 555.058138222 485.624737745 555.058157117 576.821289062 638.618164062 c 1
 638.984375 700.276367188 l 1
 776.958984375 700.276367188 l 1
 776.958984375 638.618164062 l 1
 663.75 638.618164062 l 1
 633.931640625 610.315429688 l 2
 609.015880231 586.0926931 597.070713949 570.89453125 613.209960938 570.89453125 c 0
 636.017210156 570.89453125 658.053495077 535.967694171 653.641601562 495.084960938 c 0
 646.065341348 424.879679638 729.485050933 454.112613209 715.805664062 368.735351562 c 1
 715.805664062 331.333984375 l 1
 796.669921875 358.625976562 l 1
 889.502528619 385.526570908 886.942075931 408.350146534 905.836914062 338.41015625 c 0
 905.836914062 333.01953125 874.333007812 319.87890625 811.326171875 298.98828125 c 2
 715.805664062 267.654296875 l 1
 715.805664062 208.016601562 l 1
592.48828125 454.651367188 m 1
 592.48828125 515.299804688 l 1
 407.51171875 515.299804688 l 1
 407.51171875 454.651367188 l 1
 592.48828125 454.651367188 l 1
EndSplineSet
Validated: 524321
EndChar

StartChar: uniF471
Encoding: 62577 62577 78
Width: 1000
VWidth: 981
Flags: HW
LayerCount: 2
Fore
SplineSet
902.833007812 -161.935546875 m 130
 314.799804688 -161.935546875 l 1
 300.142578125 -146.7734375 l 2
 280.9375 -127.231445312 279.927734375 -107.3515625 297.111328125 -87.1357421875 c 1
 308.228515625 -72.9853515625 l 1
 505.002868678 -70.9683634696 701.772498348 -68.9466519934 898.537109375 -66.919921875 c 1
 898.537109375 392.993164062 l 1
 804.02734375 392.993164062 l 1
 702.463857908 396.211937857 689.688638425 388.852724351 645.331054688 437.467773438 c 1
 627.643554688 461.728515625 l 1
 626.295085645 531.135905957 624.947096849 600.543776537 623.599609375 669.952148438 c 1
 349.672851562 669.952148438 l 1
 349.672851562 518.838867188 l 129
 309.271988111 453.709065403 254.151367188 495.272835638 254.151367188 595.154296875 c 0
 254.151367188 780.952308226 339.202659012 762.476628536 531.616210938 761.935546875 c 0
 775.888269983 758.63234221 732.084986749 780.848951557 877.81640625 634.57421875 c 0
 1015.95857836 491.653476941 991.908807184 554.913605143 992.036132812 194.876953125 c 2
 992.036132812 -93.201171875 l 1
 972.325195312 -115.438476562 l 1
 955.092960078 -137.380958508 931.640409981 -161.935546875 902.833007812 -161.935546875 c 130
716.087890625 578.98046875 m 1
 724.429504229 456.325112853 693.651537573 490.808185653 813.62890625 485.987304688 c 1
 894.494140625 485.987304688 l 1
 835.159163001 545.758446855 775.689031341 607.4149428 716.087890625 666.919921875 c 1
 716.087890625 578.98046875 l 1
7.515625 205.995117188 m 0
 -8.44807326036 377.789870379 73.6735381058 407.103308251 239.748046875 387.434570312 c 128
 347.016401058 374.730434301 337.129275558 86.4458877594 270.830078125 44.2685546875 c 1
 247.076171875 26.0732421875 l 1
 76.2509765625 26.0732421875 l 1
 54.0126953125 44.2685546875 l 1
 3.65783773806 90.3942975719 17.2911281165 100.795174302 7.515625 205.995117188 c 0
101.015625 119.06640625 m 1
 220.290039062 119.06640625 l 1
 220.290039062 296.967773438 l 1
 163.1796875 296.967773438 l 1
 69.1085152898 298.832252264 110.933180297 302.138182326 101.015625 200.942382812 c 1
 101.015625 119.06640625 l 1
376.963867188 346.49609375 m 128
 371.126968536 410.226065892 563.140902364 413.104633994 562.446289062 349.0234375 c 130
 562.446289062 116.03515625 l 1
 592.76953125 116.03515625 l 1
 629.790523184 119.736299132 652.071782781 96.7343841228 654.93359375 69.5380859375 c 128
 662.446384524 -1.85729983358 369.927885674 -0.193491903154 377.975585938 69.0322265625 c 128
 381.165889636 96.4749814433 401.531320254 119.802831663 439.127929688 116.03515625 c 1
 469.95703125 116.03515625 l 1
 469.95703125 300 l 1
 439.127929688 300 l 1
 402.810953513 297.289546081 379.479772487 319.026270438 376.963867188 346.49609375 c 128
EndSplineSet
Validated: 524321
EndChar

StartChar: uniF475
Encoding: 62581 62581 79
Width: 1000
VWidth: 982
Flags: HW
LayerCount: 2
Fore
SplineSet
192.716796875 300.123046875 m 0
 191.834206723 184.750757106 7.70723446318 182.92749706 7.234375 300.123046875 c 0
 8.85443985006 422.373208659 197.414560431 413.710792222 192.716796875 300.123046875 c 0
592.48828125 300.123046875 m 0
 594.365839263 182.741598918 406.820318805 184.207394004 407.51171875 300.123046875 c 1
 398.478296221 410.328193248 591.403732673 424.745341262 592.48828125 300.123046875 c 0
992.765625 300.123046875 m 1
 993.062453968 185.564483328 806.412607994 180.813642191 807.283203125 300.123046875 c 0
 808.801539014 422.24257277 997.780878985 413.791041876 992.765625 300.123046875 c 1
EndSplineSet
Validated: 524321
EndChar

StartChar: uniF47B
Encoding: 62587 62587 80
Width: 1000
VWidth: 981
Flags: HW
LayerCount: 2
Fore
SplineSet
499.563476562 475.373046875 m 128
 544.870244556 475.373046875 805.980729473 186.511360326 807.3515625 178.198242188 c 0
 807.3515625 150.885364055 780.572049142 124.626953125 753.2734375 124.626953125 c 0
 746.53515625 124.626953125 702.565429688 165.05859375 621.364257812 245.922851562 c 2
 499.057617188 367.21875 l 1
 257.852194039 128.006648684 l 129
 229.750822715 107.662754702 171.673976603 156.12475322 199.860351562 189.317382812 c 128
 224.862695409 218.760457328 446.012324497 475.373046875 499.563476562 475.373046875 c 128
EndSplineSet
Validated: 524321
EndChar

StartChar: uniF47C
Encoding: 62588 62588 81
Width: 1000
VWidth: 982
Flags: HW
LayerCount: 2
Fore
SplineSet
500.436523438 125.135742188 m 129
 420.810937658 160.562537661 262.904044094 344.458117426 192.647460938 421.805664062 c 1
 194.00037617 452.048197401 212.642883941 476.913895988 244.704101562 474.873046875 c 0
 252.454101562 475.545898438 297.09765625 435.450195312 378.635742188 354.586914062 c 2
 500.942382812 233.291015625 l 1
 742.147317697 472.502632712 l 129
 770.247051234 492.847734546 828.325483239 444.384716712 800.139648438 411.192382812 c 128
 775.13690226 381.748532547 553.398941117 133.060012436 500.436523438 125.135742188 c 129
EndSplineSet
Validated: 524321
EndChar

StartChar: uniF47D
Encoding: 62589 62589 82
Width: 1000
VWidth: 981
Flags: HW
LayerCount: 2
Fore
SplineSet
346.989257812 258.959960938 m 128
 318.013737382 294.682424427 318.013775172 305.102006234 346.989257812 340.834960938 c 128
 358.38957874 356.736334622 585.83090404 582.812808415 597.66796875 590.502929688 c 0
 640.448536486 634.801963795 704.886198115 571.37176415 663.242744379 529.727977908 c 130
 433.4140625 299.897460938 l 1
 673.002576542 58.3105434324 l 129
 693.579845925 31.0109062002 644.884642032 -26.7842189246 611.567382812 0.7001953125 c 129
 598.479606374 2.0097834064 361.758475772 238.970482553 346.989257812 258.959960938 c 128
EndSplineSet
Validated: 524321
EndChar

StartChar: uniF47E
Encoding: 62590 62590 83
Width: 1000
VWidth: 981
Flags: HW
LayerCount: 2
Fore
SplineSet
461.58984375 386.676757812 m 128
 513.817478435 429.465820313 486.149772074 429.465820312 538.41015625 386.676757812 c 128
 572.572600823 356.408352426 732.339908195 198.673605242 720.859375 192.85546875 c 0
 688.774534942 176.595424412 328.116964752 177.221032349 279.140625 192.85546875 c 0
 266.66066767 196.839374043 427.761433737 356.761030455 461.58984375 386.676757812 c 128
EndSplineSet
Validated: 524321
EndChar

StartChar: uniF481
Encoding: 62593 62593 84
Width: 1000
VWidth: 981
Flags: HW
LayerCount: 2
Fore
SplineSet
930.591796875 205.995117188 m 1
 930.591796875 171.62890625 l 1
 919.987385609 -38.6895752531 957.809098735 -65.2414281506 885.10546875 -140.708007812 c 1
 861.857421875 -157.891601562 l 1
 700.129054896 -159.239080937 538.401183089 -160.587055485 376.673828125 -161.935546875 c 1
 361.005859375 -146.7734375 l 2
 341.80078125 -127.231445312 340.790039062 -107.3515625 357.97265625 -87.1357421875 c 1
 369.092773438 -72.9853515625 l 1
 524.755671817 -70.9630285878 680.419075899 -68.9412113157 836.083007812 -66.919921875 c 1
 836.083007812 392.993164062 l 1
 741.572265625 392.993164062 l 1
 639.60641996 396.171680274 627.89800416 388.987630649 582.875976562 437.467773438 c 1
 565.1875 461.728515625 l 1
 563.839853399 531.136402878 562.492197288 600.544280621 561.14453125 669.952148438 c 1
 287.216796875 669.952148438 l 1
 287.216796875 483.96484375 l 129
 283.839079665 455.575561635 266.713037193 441.51171875 238.446289062 441.51171875 c 128
 177.44684188 441.51171875 194.585339024 487.288869213 191.697265625 572.916015625 c 0
 176.024568618 771.341577834 265.529466834 766.17957222 469.66796875 761.935546875 c 0
 709.500371273 756.949447803 669.347998259 773.907274987 812.328125 638.112304688 c 128
 965.241225665 492.883520545 917.796059278 510.919637117 930.591796875 205.995117188 c 1
653.631835938 578.98046875 m 1
 661.97447716 456.325062066 631.196013374 490.808207186 751.174804688 485.987304688 c 1
 832.0390625 485.987304688 l 1
 772.704529841 545.759217341 713.234060901 607.415701526 653.631835938 666.919921875 c 1
 653.631835938 578.98046875 l 1
69.89453125 -61.8662109375 m 128
 42.7679293308 111.522775747 132.501105505 213.921219523 278.120117188 237.330078125 c 1
 314.508789062 237.330078125 l 1
 314.508789062 303.033203125 l 1
 318.711456353 436.330076557 341.559064273 359.227090457 432.267578125 284.333007812 c 128
 497.253730273 230.676762736 524.755859375 196.224609375 524.755859375 192.85546875 c 1
 544.041316391 199.43923194 319.767923144 -3.16115610099 328.66015625 13.943359375 c 1
 314.479142756 13.943359375 317.265474049 49.0415582053 316.530273438 80.65625 c 2
 316.530273438 146.358398438 l 1
 292.271484375 146.358398438 l 1
 218.645048766 139.367643502 142.674662413 77.423196449 160.866210938 -22.4453125 c 0
 174.106166303 -95.130416747 80.7746147458 -131.409998914 69.89453125 -61.8662109375 c 128
EndSplineSet
Validated: 524321
EndChar

StartChar: uniF484
Encoding: 62596 62596 85
Width: 1000
VWidth: 982
Flags: HW
LayerCount: 2
Fore
SplineSet
913.704101562 566.967773438 m 0
 1131.27294808 250.023967966 871.323306298 -206.776447984 501.044921875 -189.6171875 c 128
 201.022775991 -175.713707393 -33.893586449 55.8362068506 14.091796875 370.872070312 c 0
 55.227185493 640.936030928 274.871848329 845.577262233 618.043945312 779.235351562 c 0
 748.949963873 753.928645493 845.305664062 673.1015625 913.704101562 566.967773438 c 0
270.329101562 395.63671875 m 1
 287.068252374 507.068712736 339.433123469 596.922101186 384.549804688 678.661132812 c 1
 248.187979234 641.248208232 130.450752056 518.485988774 107.590820312 360.258789062 c 1
 107.590820312 342.569335938 l 1
 161.823553814 343.930677957 216.069738983 345.278568309 270.329101562 346.61328125 c 1
 270.329101562 395.63671875 l 1
618.043945312 678.661132812 m 1
 662.620680036 604.015926476 705.770503201 515.451008583 722.663085938 406.755859375 c 1
 733.276367188 346.61328125 l 1
 787.510099561 345.252938102 841.756278396 343.905041417 896.014648438 342.569335938 c 1
 896.014648438 360.258789062 l 1
 881.71577394 503.083188647 744.920093306 652.223940193 618.043945312 678.661132812 c 1
368.8828125 343.581054688 m 1
 638.765625 343.581054688 l 1
 638.765625 375.926757812 l 1
 621.051349711 483.050512343 561.803423179 610.995521481 501.802734375 675.627929688 c 1
 440.649662228 607.819761492 382.107579945 481.687554603 368.8828125 377.948242188 c 1
 368.8828125 343.581054688 l 1
274.876953125 251.092773438 m 1
 110.622070312 251.092773438 l 129
 115.049860787 88.0794549065 250.893733404 -36.4929410093 381.518554688 -80.44921875 c 1
 346.468404454 -9.4140275881 286.242268994 116.697563725 274.876953125 218.2421875 c 1
 274.876953125 251.092773438 l 1
501.802734375 251.092773438 m 2
 446.088128149 251.092773438 365.849609375 254.710287279 365.849609375 241.995117188 c 0
 380.743714041 120.01834055 429.324478121 17.6633099702 488.157226562 -60.73828125 c 0
 499.619408213 -73.9212019508 500.360049981 -79.1832438598 510.39453125 -65.287109375 c 0
 568.065307935 8.60085268623 619.050954566 113.337087649 634.72265625 222.284179688 c 1
 634.72265625 251.092773438 l 1
 501.802734375 251.092773438 l 2
730.243164062 251.092773438 m 1
 730.243164062 215.208984375 l 1
 718.498258825 111.391175281 657.214629493 -6.82515043589 621.077148438 -80.44921875 c 1
 737.321899593 -44.9667626253 850.944333412 65.2352419862 885.907226562 188.928710938 c 0
 892.212168901 219.440919639 906.406134855 238.549032506 885.1484375 251.092773438 c 129
 730.243164062 251.092773438 l 1
EndSplineSet
Validated: 524321
EndChar

StartChar: uniF485
Encoding: 62597 62597 86
Width: 1000
VWidth: 981
Flags: HW
LayerCount: 2
Fore
SplineSet
83.94921875 113.5078125 m 129
 -23.5124135316 134.329060885 -27.6508393056 483.459960938 83.697265625 483.459960938 c 130
 222.176757812 483.459960938 l 1
 318.708984375 567.862304688 l 1
 430.243925785 642.225915813 399.306224289 687.319634686 485.490234375 653.780273438 c 1
 500.147460938 639.123046875 l 1
 500.147460938 -39.123046875 l 1
 485.490234375 -53.7802734375 l 1
 399.358472538 -88.0390969885 430.379254462 -41.6157396441 318.708984375 32.1376953125 c 1
 222.176757812 113.5078125 l 1
 83.94921875 113.5078125 l 129
407.659179688 298.98828125 m 2
 407.659179688 447.576171875 407.322265625 521.870117188 406.647460938 521.870117188 c 0
 388.166447561 510.781509161 310.330091722 438.063344036 285.3515625 417.252929688 c 2
 258.565429688 395.520507812 l 1
 206.677715379 393.499042433 154.790019793 391.477558332 102.90234375 389.456054688 c 1
 102.90234375 210.543945312 l 1
 265.318642757 210.543945312 l 129
 407.659179688 77.1181640625 l 1
 407.659179688 298.98828125 l 2
802.880859375 37.6982421875 m 0
 929.40342083 154.203452777 931.705077437 448.660526237 802.880859375 562.301757812 c 0
 756.060269791 603.604158428 771.560652402 664.411892671 826.635742188 660.09765625 c 129
 939.274166772 573.498527143 1018.98125829 407.588468879 983.814453125 212.060546875 c 0
 969.183902668 115.424868826 904.055696778 -7.06433063458 848.114257812 -47.462890625 c 128
 797.291875872 -84.1646824213 734.324906764 -25.4298323969 802.880859375 37.6982421875 c 0
672.489257812 529.452148438 m 1
 818.271300438 510.266474245 835.661085086 206.634068113 727.577148438 94.80859375 c 0
 670.616378308 35.8760147068 596.808246463 112.047102183 661.875 157.983398438 c 0
 731.168301102 206.903583245 726.308322544 384.541422535 660.86328125 443.028320312 c 0
 630.504392026 470.159440036 633.906950262 514.892269594 672.489257812 529.452148438 c 1
EndSplineSet
Validated: 524321
EndChar

StartChar: uniF486
Encoding: 62598 62598 87
Width: 1000
VWidth: 982
Flags: HW
LayerCount: 2
Fore
SplineSet
900.34765625 271.745117188 m 0
 900.34765625 471.121801814 809.237242045 592.431803267 678.4765625 656.35546875 c 0
 371.742017676 806.305717583 47.7187955752 558.248748262 107.879882812 216.657226562 c 0
 146.889650415 -4.8382032661 417.576236933 -194.889317762 671.400390625 -61.3134765625 c 0
 743.032142794 -23.6170185489 804.567334813 -92.1672964531 744.431640625 -127.267578125 c 128
 290.132577394 -392.434968276 -188.456524606 156.038025517 87.1591796875 567.405273438 c 0
 191.119108733 725.927511377 367.114703927 836.41547961 616.311523438 777.651367188 c 0
 839.696273862 724.974103436 991.82421875 553.130477717 991.82421875 268.208007812 c 0
 991.82421875 95.3672577611 829.133686073 -11.4604078658 705.262695312 103.447265625 c 1
 679.487304688 128.211914062 l 1
 651.690429688 107.490234375 l 1
 503.320552083 -13.3358458093 255.45703125 87.8870314326 255.45703125 298.53125 c 0
 255.45703125 482.803934258 428.131235093 593.903400887 599.634765625 523.434570312 c 0
 689.792984188 486.389593984 747.569702033 409.978589278 744.684570312 281.853515625 c 0
 741.858169074 184.784278526 765.614069069 136.803452509 841.21484375 148.681640625 c 128
 889.002104859 156.189845129 900.34765625 199.561524277 900.34765625 271.745117188 c 0
653.712890625 299.54296875 m 0
 653.712890625 432.994837632 478.037806628 498.084109535 391.409179688 407.192382812 c 0
 300.676226761 311.994351245 364.886424734 145.185878042 499.059570312 145.901367188 c 0
 579.754934292 145.901367188 653.712890625 218.824011734 653.712890625 299.54296875 c 0
EndSplineSet
Validated: 524321
EndChar

StartChar: uniF487
Encoding: 62599 62599 88
Width: 1000
VWidth: 981
Flags: HW
LayerCount: 2
Fore
SplineSet
929.58984375 308.0859375 m 0
 929.58984375 87.4499669202 969.263690898 84.6241418063 876.776367188 25.5673828125 c 128
 805.382668534 -20.0202748892 554.660321986 -227.968250876 443.647460938 -166.231445312 c 128
 415.118665212 -152.558736043 75.9237140383 42.8278522934 89.109375 49.8271484375 c 1
 70.41015625 73.0751953125 l 1
 70.41015625 526.924804688 l 1
 89.109375 550.172851562 l 1
 141.155265796 566.329742136 429.34444238 827.803986284 551.297851562 767.2421875 c 128
 576.620357386 756.037855108 899.036750407 569.349915171 889.158203125 568.872070312 c 1
 949.297951043 504.084706457 929.58984375 482.169873091 929.58984375 308.0859375 c 0
714.541992188 567.356445312 m 128
 670.560081732 593.589422174 485.135099464 701.126973607 497.978515625 688.147460938 c 1
 429.302081383 655.161154406 269.44346554 562.91634631 214.44921875 520.859375 c 1
 195.350523194 525.168281899 515.31462482 344.731067797 505.053710938 358.122070312 c 1
 519.349661175 365.267973554 767.204534359 508.69667163 779.9921875 517.826171875 c 0
 786.544237349 524.39247564 727.982501814 559.527242553 714.541992188 567.356445312 c 128
447.943359375 -61.8662109375 m 1
 447.943359375 276.247070312 l 1
 338.271484375 339.421875 l 2
 293.458984375 365.028320312 245.783203125 392.65625 195.243164062 422.305664062 c 1
 159.865234375 442.016601562 l 1
 159.865234375 103.905273438 l 1
 299.861328125 23.041015625 l 2
 395.88671875 -33.5634765625 447.26953125 -61.8662109375 447.943359375 -61.8662109375 c 1
713.784179688 32.1376953125 m 0
 870.014725961 142.387819914 830.075885794 21.6048085462 836.090820312 274.224609375 c 1
 836.090820312 441.005859375 l 1
 741.225681301 386.609930678 644.855185178 331.697874718 551.044921875 276.247070312 c 1
 551.044921875 -64.392578125 l 1
 573.788085938 -48.7255859375 l 1
 610.834915236 -30.2021712881 675.999999035 9.62702873081 713.784179688 32.1376953125 c 0
EndSplineSet
Validated: 524321
EndChar

StartChar: uniF489
Encoding: 62601 62601 89
Width: 1000
VWidth: 981
Flags: HW
LayerCount: 2
Fore
SplineSet
565.421875 731.611328125 m 1
 835.737272864 717.871453968 877.617642712 762.314039734 972.268554688 685.114257812 c 1
 990.967773438 662.876953125 l 1
 990.967773438 -62.876953125 l 1
 972.268554688 -85.1142578125 l 1
 878.865767967 -163.415754214 835.033574632 -116.972975602 565.421875 -131.611328125 c 1
 437.049804688 -131.611328125 l 1
 167.120634566 -117.840728315 124.394714721 -162.371915616 30.203125 -85.1142578125 c 1
 11.5029296875 -62.876953125 l 1
 11.5029296875 286.353515625 l 1
 28.7975139656 620.562381448 -37.3129329351 641.718873636 73.666015625 722.008789062 c 1
 195.836792368 737.528267849 257.613809201 728.574693392 501.234375 731.611328125 c 1
 565.421875 731.611328125 l 1
502.247070312 636.090820312 m 1
 -26.7967779269 589.294248456 123.361155328 801.943178169 101.969726562 293.935546875 c 1
 101.969726562 -36.0908203125 l 1
 898.48046875 -36.0908203125 l 1
 898.48046875 636.090820312 l 1
 502.247070312 636.090820312 l 1
269.762695312 485.481445312 m 1
 318.079844244 460.990730058 436.136078247 353.492724582 451.70703125 300 c 129
 435.242264062 243.72349562 332.160342643 159.114035401 281.892578125 119.825195312 c 129
 203.563229291 113.444378631 211.855831588 190.250795626 284.418945312 238.846679688 c 1
 343.55078125 300 l 1
 284.418945312 361.153320312 l 1
 226.165412125 412.659299446 195.773235212 456.006331508 269.762695312 485.481445312 c 1
778.1953125 161.51953125 m 129
 784.871875356 89.4091044513 495.137769135 90.6541230715 501.234375 161.51953125 c 129
 496.68386074 231.968440046 785.178739579 231.085133907 778.1953125 161.51953125 c 129
EndSplineSet
Validated: 524321
EndChar

StartChar: uniF48A
Encoding: 62602 62602 90
Width: 1000
VWidth: 981
Flags: HW
LayerCount: 2
Fore
SplineSet
500 -8.2939453125 m 128
 137.040405843 -8.2939453125 49.2369617453 -56.4050693239 11.53125 54.123046875 c 129
 20.0772361771 116.14259266 -26.5438312836 598.69140625 42.61328125 598.69140625 c 0
 182.053507456 598.69140625 804.93220782 612.582238168 956.376953125 598.69140625 c 1
 1016.43989082 535.957995991 992.765625 493.445388426 992.765625 300 c 0
 992.765625 -127.131519958 1023.83451097 -8.2939453125 500 -8.2939453125 c 128
561.153320312 115.528320312 m 1
 561.153320312 486.4921875 l 1
 438.846679688 486.4921875 l 1
 394.37109375 427.361328125 l 1
 327.987278089 349.381953503 364.287911367 350.349468267 296.829101562 427.361328125 c 1
 253.870117188 486.4921875 l 1
 130.552734375 486.4921875 l 1
 130.552734375 115.528320312 l 1
 252.860351562 115.528320312 l 1
 252.860351562 297.978515625 l 1
 346.164326215 184.607856819 l 1
 348.858662153 184.607856819 364.384765625 203.46875 392.349609375 240.869140625 c 2
 434.803710938 297.978515625 l 1
 436.168666051 237.179082718 437.516080129 176.362108775 438.846679688 115.528320312 c 1
 561.153320312 115.528320312 l 1
807.283203125 301.010742188 m 1
 807.283203125 486.4921875 l 1
 685.481445312 486.4921875 l 1
 685.481445312 302.021484375 l 1
 655.114280601 300.716774087 624.786086532 299.373093156 594.508789062 297.978515625 c 1
 666.78125 196.393554688 l 1
 776.649230839 59.6672823782 715.599167729 61.5652919498 825.983398438 198.415039062 c 1
 900.276367188 301.010742188 l 1
 807.283203125 301.010742188 l 1
EndSplineSet
Validated: 524321
EndChar

StartChar: uniF48C
Encoding: 62604 62604 91
Width: 1000
VWidth: 981
Flags: HW
LayerCount: 2
Fore
SplineSet
499.747070312 791.75390625 m 128
 543.596512207 791.75390625 546.025871807 759.0349795 549.0234375 702.297851562 c 1
 549.0234375 669.447265625 l 1
 689.020507812 669.447265625 l 1
 691.715820312 662.708984375 660.885742188 617.896484375 596.53125 554.216796875 c 2
 500 456.673828125 l 1
 403.46875 554.216796875 l 2
 339.114257812 617.896484375 308.284179688 662.708984375 310.979492188 669.447265625 c 1
 450.9765625 669.447265625 l 1
 450.9765625 702.297851562 l 1
 454.017319667 758.878580388 456.240203574 791.75390625 499.747070312 791.75390625 c 128
80.265625 272.456054688 m 128
 30.2909882945 332.409430065 142.997514002 366.620001781 179.576171875 329.818359375 c 1
 229.501214257 274.496437901 123.720447289 220.073840633 80.265625 272.456054688 c 128
253.618164062 299.747070312 m 128
 245.455558309 348.046559343 337.084210288 355.747820621 364.047851562 329.818359375 c 1
 422.244395844 258.332566489 266.024025834 212.378621958 253.618164062 299.747070312 c 128
442.131835938 284.837890625 m 128
 415.983019739 342.513680048 515.467453019 360.467158893 549.0234375 329.818359375 c 1
 601.341343844 262.196653722 470.292372947 217.626648238 442.131835938 284.837890625 c 128
627.361328125 284.837890625 m 128
 600.534758961 342.961338231 700.799336272 360.243060178 734.504882812 329.818359375 c 1
 785.706980492 262.103502566 655.878991713 217.747877936 627.361328125 284.837890625 c 128
811.579101562 284.837890625 m 128
 785.407829419 342.716957062 885.186938652 360.348690265 918.9765625 329.818359375 c 1
 970.596945416 262.101377038 839.733131253 217.721866816 811.579101562 284.837890625 c 128
549.0234375 -68.4365234375 m 1
 549.0234375 -102.297851562 l 2
 549.0234375 -161.935546875 532.68359375 -191.75390625 500 -191.75390625 c 128
 467.317382812 -191.75390625 450.9765625 -161.935546875 450.9765625 -102.297851562 c 2
 450.9765625 -70.4580078125 l 1
 323.109375 -70.4580078125 l 129
 289.21443907 -40.242864918 327.866420768 -22.8131126245 399.424804688 48.0576171875 c 128
 531.086883763 178.454464092 468.027103121 177.78868434 600.575195312 48.0576171875 c 128
 671.506928669 -21.3666145092 709.357401755 -42.36145696 676.890625 -68.4365234375 c 129
 549.0234375 -68.4365234375 l 1
EndSplineSet
Validated: 524321
EndChar

StartChar: uniF48D
Encoding: 62605 62605 92
Width: 1000
VWidth: 981
Flags: HW
LayerCount: 2
Fore
SplineSet
711.76171875 729.58984375 m 128
 874.269534896 729.58984375 800.489895191 654.202940883 909.879882812 458.6953125 c 1
 993.775390625 262.600585938 l 1
 992.414723537 154.121083755 991.067159802 45.6284782186 989.732421875 -62.876953125 c 1
 971.033203125 -85.1142578125 l 1
 877.630760473 -163.416111301 833.797405409 -116.972762597 564.186523438 -131.611328125 c 1
 435.813476562 -131.611328125 l 1
 165.886485044 -117.840486459 123.156490948 -162.372223882 28.966796875 -85.1142578125 c 1
 10.267578125 -62.876953125 l 1
 8.93265490501 45.6282929258 -37.0502008221 163.11739641 6.224609375 262.600585938 c 2
 94.1630859375 464.759765625 l 1
 150.095703125 596.1640625 186.458376429 668.025320671 191.706054688 685.114257812 c 0
 218.59322715 772.67168368 601.855743815 729.58984375 711.76171875 729.58984375 c 128
732.483398438 631.037109375 m 1
 772.716476398 641.818359375 227.04337754 641.818359375 267.516601562 631.037109375 c 1
 264.8203125 626.319335938 240.224609375 570.556640625 193.727539062 463.75 c 2
 124.487304688 303.033203125 l 1
 212.426757812 303.033203125 l 1
 348.941421758 295.029669184 300.51625054 315.35120458 371.123046875 234.803710938 c 1
 415.092773438 176.682617188 l 1
 584.907226562 176.682617188 l 1
 628.876953125 234.803710938 l 1
 698.661253774 315.153432869 650.899292758 295.0959187 787.572265625 302.021484375 c 1
 875.512695312 302.021484375 l 1
 806.272460938 463.75 l 2
 759.775390625 570.556640625 735.1796875 626.319335938 732.483398438 631.037109375 c 1
99.7236328125 207.51171875 m 1
 99.7236328125 -36.0908203125 l 1
 897.245117188 -36.0908203125 l 1
 897.245117188 207.51171875 l 1
 722.881835938 207.51171875 l 1
 681.438476562 151.91796875 l 2
 654.483398438 114.518554688 636.962890625 94.302734375 628.876953125 91.26953125 c 1
 637.46411572 81.8363275211 362.41914685 81.8362708356 371.123046875 91.26953125 c 1
 363.037109375 94.302734375 345.516601562 114.518554688 318.561523438 151.91796875 c 2
 277.118164062 207.51171875 l 1
 99.7236328125 207.51171875 l 1
EndSplineSet
Validated: 524325
EndChar

StartChar: uniF48E
Encoding: 62606 62606 93
Width: 1000
VWidth: 981
Flags: HW
LayerCount: 2
Fore
SplineSet
500 762.419921875 m 0
 620.585098601 762.419921875 642.491168166 756.08589229 684.471679688 687.873046875 c 129
 684.471679688 576.9375 l 1
 830.783203125 576.9375 l 129
 862.728066858 570.176352942 885.474420803 525.155582228 854.791015625 500.116210938 c 1
 840.134765625 485.459960938 l 1
 160.876953125 485.459960938 l 1
 146.219726562 500.116210938 l 1
 113.605056329 524.499266088 137.016603619 576.9375 169.720703125 576.9375 c 130
 315.528320312 576.9375 l 1
 315.528320312 626.466796875 l 1
 324.919068898 744.403407539 352.210578681 762.419921875 500 762.419921875 c 0
408.5234375 576.9375 m 1
 593.499023438 576.9375 l 1
 592.173489963 606.946927463 590.827009749 636.935408186 589.456054688 666.899414062 c 1
 503.033203125 666.899414062 l 1
 409.079906711 657.297010806 406.611398813 698.576086255 408.5234375 619.390625 c 1
 408.5234375 576.9375 l 1
328.669921875 -69.46875 m 1
 666.78125 -69.46875 l 1
 666.78125 -55.318359375 l 1
 679.028621032 -21.635130735 709.366906424 347.427354972 725.913085938 372.251953125 c 0
 744.87591329 408.571120533 811.697631083 389.40407058 803.745117188 343.947265625 c 128
 786.807899782 247.133629314 807.416394351 -117.977169446 707.971679688 -150.333007812 c 128
 657.515983355 -166.749529905 612.532701868 -164.693677331 543.463867188 -161.95703125 c 1
 500 -161.95703125 l 1
 344.623272251 -157.64057257 313.48249194 -187.290355591 258.166992188 -123.546875 c 128
 200.776511086 -57.4122647268 201.943116352 290.974492537 192.716796875 350.518554688 c 0
 186.277894719 392.073412083 269.021365729 412.879681291 278.633789062 357.340820312 c 129
 288.172655975 350.05829565 321.223488048 -67.0011981544 328.669921875 -54.8125 c 1
 328.669921875 -69.46875 l 1
EndSplineSet
Validated: 524321
EndChar

StartChar: uniF490
Encoding: 62608 62608 94
Width: 1000
VWidth: 981
Flags: HW
LayerCount: 2
Fore
SplineSet
369.833984375 410.176757812 m 0
 294.312987279 590.143030468 425.206474066 748.749162558 559.865234375 787.7109375 c 1
 609.4914837 771.40775304 610.554539718 637.080534759 640.4765625 594.900390625 c 128
 671.139457535 551.675861937 832.549075848 380.565108168 857.544921875 334.3671875 c 0
 967.962589963 141.256476788 833.834347176 -78.1500819961 696.829101562 -143.236328125 c 0
 542.752767654 -216.432432015 310.135131737 -171.935847946 207.095703125 -72.4794921875 c 0
 97.6707857092 33.1403046407 56.0662466877 323.826089654 209.1171875 387.939453125 c 1
 261.856627604 368.733028848 287.663448924 239.380429386 375.393554688 303.033203125 c 0
 393.92578125 320.215820312 392.072265625 355.931640625 369.833984375 410.176757812 c 0
805.995117188 194.37109375 m 0
 805.995117188 357.41720711 582.673507074 461.78343405 538.638671875 595.405273438 c 128
 520.862990078 649.344825779 541.41073752 681.822805897 485.065429688 633.05859375 c 0
 397.924962742 557.642620705 476.594937824 425.497324934 480.01171875 331.333984375 c 0
 484.861234023 208.280396037 317.684182477 148.987304259 231.860351562 228.233398438 c 0
 174.830093657 280.892725583 191.352990056 160.290612912 196.987304688 127.658203125 c 0
 217.493204249 8.89363967054 322.509538331 -81.1826830759 449.6875 -94.2119140625 c 0
 657.422215657 -115.494088731 805.995117188 -4.66194376028 805.995117188 194.37109375 c 0
EndSplineSet
Validated: 524321
EndChar

StartChar: uniF493
Encoding: 62611 62611 95
Width: 1000
VWidth: 981
Flags: HW
LayerCount: 2
Fore
SplineSet
314.518554688 668.436523438 m 1
 314.518554688 715.944335938 l 1
 309.204883694 764.894700535 328.40937019 784.988980241 361.015625 792.765625 c 1
 393.162568465 784.918877376 412.911469751 764.971403593 407.51171875 715.944335938 c 1
 407.51171875 669.447265625 l 1
 591.477539062 669.447265625 l 1
 591.477539062 715.944335938 l 1
 585.720218697 765.09929121 605.315461003 792.765625 638.48046875 792.765625 c 128
 671.533801153 792.765625 689.987161829 764.99569539 684.471679688 715.944335938 c 1
 684.471679688 670.458007812 l 1
 742.591796875 670.458007812 l 1
 832.600338792 669.021314207 870.000480391 625.3053362 869.447265625 535.516601562 c 2
 869.447265625 485.481445312 l 1
 915.944335938 485.481445312 l 1
 964.750021542 490.923064507 991.75390625 472.219961229 991.75390625 438.48046875 c 128
 991.75390625 404.717747437 964.914713254 387.424173318 915.944335938 392.48828125 c 1
 869.447265625 392.48828125 l 1
 869.447265625 207.51171875 l 1
 915.944335938 207.51171875 l 1
 964.452780514 213.741925908 992.765625 194.509553395 992.765625 161.51953125 c 128
 992.765625 128.308238112 964.869954786 109.638123716 915.944335938 114.518554688 c 1
 870.458007812 114.518554688 l 1
 870.458007812 57.408203125 l 2
 870.017559007 -33.6981393305 824.186825603 -69.5637633277 735.516601562 -69.447265625 c 2
 684.471679688 -69.447265625 l 1
 684.471679688 -115.944335938 l 1
 690.442738598 -164.834914545 672.557060781 -191.75390625 638.48046875 -191.75390625 c 128
 604.803604627 -191.75390625 586.534065915 -164.706033622 591.477539062 -115.944335938 c 1
 591.477539062 -69.447265625 l 1
 407.51171875 -69.447265625 l 1
 407.51171875 -115.944335938 l 1
 413.644037479 -165.365044784 393.918821842 -184.52720491 361.015625 -192.765625 c 129
 328.391887648 -185.069002246 309.779407076 -164.601515837 314.518554688 -115.944335938 c 1
 314.518554688 -69.447265625 l 1
 263.473632812 -69.447265625 l 2
 174.931524837 -69.7197577416 130.342870012 -33.5788305255 131.563476562 57.408203125 c 1
 131.563476562 114.518554688 l 1
 83.044921875 114.518554688 l 1
 34.2383658781 109.075495746 7.234375 127.78139858 7.234375 161.51953125 c 128
 7.234375 195.736896179 34.2032192287 212.625482387 84.0556640625 207.51171875 c 1
 130.552734375 207.51171875 l 1
 130.552734375 392.48828125 l 1
 84.0556640625 392.48828125 l 1
 34.4281295686 386.610382162 7.234375 403.869343798 7.234375 438.48046875 c 128
 7.234375 472.724356091 34.3569133722 490.228078909 84.0556640625 485.481445312 c 1
 130.552734375 485.481445312 l 1
 130.552734375 535.516601562 l 2
 130.458127684 625.420646423 167.276052802 669.034092903 256.397460938 668.436523438 c 2
 314.518554688 668.436523438 l 1
224.051757812 26.0732421875 m 1
 773.926757812 26.0732421875 l 1
 773.926757812 573.926757812 l 1
 501.010742188 573.926757812 l 1
 110.301340171 550.942844577 250.947126657 680.219977951 224.051757812 293.935546875 c 1
 224.051757812 26.0732421875 l 1
330.69140625 469.30859375 m 1
 345.348632812 485.481445312 l 1
 654.65234375 485.481445312 l 1
 669.30859375 469.30859375 l 1
 684.471679688 454.651367188 l 1
 684.471679688 145.348632812 l 1
 669.30859375 130.69140625 l 1
 654.65234375 114.518554688 l 1
 345.348632812 114.518554688 l 1
 330.69140625 130.69140625 l 1
 314.518554688 145.348632812 l 1
 314.518554688 454.651367188 l 1
 330.69140625 469.30859375 l 1
591.477539062 207.51171875 m 1
 591.477539062 392.48828125 l 1
 407.51171875 392.48828125 l 1
 407.51171875 207.51171875 l 1
 591.477539062 207.51171875 l 1
EndSplineSet
Validated: 524321
EndChar

StartChar: uniF496
Encoding: 62614 62614 96
Width: 1000
VWidth: 982
Flags: HW
LayerCount: 2
Fore
SplineSet
691.909179688 -186.680664062 m 0
 536.719789319 -186.680664062 430.768999692 -144.916000567 296.938476562 -118.95703125 c 128
 287.779873845 -118.291951436 273.542890808 -126.141782823 270.404296875 -138.668945312 c 0
 250.87246296 -197.704880089 99.8577043888 -210.280512887 54.599609375 -164.94921875 c 0
 -14.3068377142 -95.931324383 23.0530574565 -70.1892857612 12.146484375 127.677734375 c 1
 12.146484375 171.141601562 l 1
 23.5966853106 386.981921776 -19.5036169263 409.696747028 84.669921875 481.962890625 c 129
 144.130998982 488.751084177 225.276203581 495.772149634 251.705078125 459.725585938 c 1
 276.974609375 436.982421875 l 1
 301.739257812 448.1015625 l 1
 363.376707538 486.555992432 409.943957355 531.714672174 411.916992188 632.06640625 c 0
 414.220464444 737.987731338 451.548595074 785.001320291 549.638671875 788.994140625 c 128
 696.941397252 794.708876909 738.916540978 660.550877026 711.620117188 506.22265625 c 1
 711.620117188 489.544921875 l 1
 783.890625 489.544921875 l 1
 964.195585442 476.267649688 1004.81085152 400.584308483 984.787109375 180.745117188 c 128
 965.066682543 -49.6657816559 957.467180044 -186.680664062 691.909179688 -186.680664062 c 0
548.880859375 697.263671875 m 0
 508.619420845 697.263671875 504.91015625 674.783465415 504.91015625 629.03515625 c 0
 504.91015625 498.047343784 428.671932181 409.211714972 336.107421875 361.172851562 c 1
 289.103515625 338.4296875 l 1
 289.103515625 -21.4150390625 l 1
 416.970703125 -52.7509765625 l 1
 557.422178385 -90.4046463676 670.489060914 -123.286974251 813.456054688 -82.8212890625 c 128
 895.086018912 -59.7165685457 883.529718534 140.188478334 896.08984375 250.995117188 c 0
 908.796986436 363.098758371 865.401035077 403.308163884 752.051757812 394.528320312 c 0
 644.936300993 386.231337944 605.032663868 413.897497187 620.141601562 519.868164062 c 0
 635.340045398 626.46660674 640.076015039 697.263671875 548.880859375 697.263671875 c 0
152.140625 392.506835938 m 1
 56.546168745 401.612262209 105.64453125 340.424503164 105.64453125 143.344726562 c 2
 105.64453125 -94.193359375 l 1
 193.583984375 -94.193359375 l 1
 193.583984375 392.506835938 l 1
 152.140625 392.506835938 l 1
EndSplineSet
Validated: 524321
EndChar

StartChar: uniF497
Encoding: 62615 62615 97
Width: 1000
VWidth: 982
Flags: HW
LayerCount: 2
Fore
SplineSet
305.484375 789.040039062 m 128
 458.273024177 789.040039062 588.696651112 721.569335938 706.772460938 721.569335938 c 0
 727.917507603 721.569335938 746.168538592 768.443692134 769.442382812 776.658203125 c 0
 823.411915482 795.706767474 963.394044938 797.63191893 977.666992188 734.205078125 c 0
 992.826074897 666.840383998 996.370424071 258.963569472 977.666992188 173.715820312 c 0
 962.438187142 104.304957074 781.131252307 91.4261899116 739.118164062 152.994140625 c 1
 725.977539062 167.651367188 l 1
 701.71875 155.521484375 l 1
 635.39101474 116.47437537 588.509765625 71.3819701701 588.509765625 -31.4765625 c 0
 588.509765625 -133.106943439 535.057185242 -189.432757983 446.998046875 -188.150390625 c 0
 306.670668732 -186.106863372 263.97602505 -61.1519447456 288.30078125 85.7763671875 c 1
 288.30078125 111.55078125 l 1
 254.944335938 111.55078125 l 1
 29.3419663646 104.640401073 -10.6010866787 233.819255516 21.4501953125 478.9765625 c 0
 47.9223325711 681.459504748 71.5315565153 789.040039062 305.484375 789.040039062 c 128
496.526367188 -36.53125 m 0
 496.526367188 100.180966667 572.339990805 194.533353351 669.373046875 242.44921875 c 1
 711.827148438 262.16015625 l 1
 711.827148438 605.073242188 l 129
 697.021834333 654.684052147 673.127335417 631.654680388 565.26171875 660.416992188 c 2
 443.96484375 692.760742188 l 1
 185.705078125 692.760742188 l 129
 101.249424524 622.500067664 107.875 425.46419904 107.875 278.838867188 c 128
 107.875 204.556393198 157.8953855 209.900040945 255.956054688 205.049804688 c 1
 345.916992188 205.049804688 l 1
 359.463855439 190.96808721 373.285457125 174.128881604 387.359375 160.57421875 c 1
 387.359375 100.432617188 l 1
 376.523680774 16.3986249263 354.902532924 -89.5511997617 445.986328125 -95.6630859375 c 0
 487.589767949 -101.606126873 496.526367188 -78.8406929988 496.526367188 -36.53125 c 0
855.360351562 696.803710938 m 1
 755.996330255 706.514714504 804.8203125 650.004427169 804.8203125 452.19140625 c 0
 804.8203125 282.934437254 787.074501452 237.179369649 830.090820312 204.0390625 c 1
 862.436523438 204.0390625 l 2
 879.956054688 203.366210938 896.802734375 211.007059215 896.802734375 227.79296875 c 130
 896.802734375 696.803710938 l 1
 855.360351562 696.803710938 l 1
EndSplineSet
Validated: 524321
EndChar

StartChar: uniF499
Encoding: 62617 62617 98
Width: 1000
VWidth: 981
Flags: HW
LayerCount: 2
Fore
SplineSet
685.59765625 624.21484375 m 129
 685.59765625 434.94140625 l 1
 793.752929688 264.622070312 l 2
 865.856445312 151.075195312 906.962890625 83.3515625 917.071289062 61.4521484375 c 0
 952.041999251 -39.6909912956 899.692831822 -130.633704955 790.974609375 -128.325195312 c 128
 724.895611722 -124.716009253 175.353221258 -141.825038535 145.325195312 -116.955078125 c 0
 -0.596031615133 3.9005233478 109.331266204 110.044584225 207.490234375 264.622070312 c 2
 315.645507812 434.94140625 l 1
 315.645507812 624.21484375 l 129
 297.273062991 646.102860958 223.115178366 663.572955714 267.631835938 707.858398438 c 1
 280.266601562 729.58984375 l 1
 720.9765625 729.58984375 l 1
 733.611328125 707.858398438 l 1
 774.418880469 665.425334295 706.776525425 646.167254688 685.59765625 624.21484375 c 129
592.603515625 637.1015625 m 1
 408.638671875 637.1015625 l 1
 408.638671875 407.14453125 l 1
 359.109375 329.313476562 l 2
 326.08984375 276.751953125 309.6640625 248.196289062 309.83203125 243.647460938 c 129
 269.772691085 234.558576713 731.394230292 234.543145852 691.157226562 243.647460938 c 129
 691.157226562 248.196289062 674.815429688 276.751953125 642.133789062 329.313476562 c 2
 592.603515625 407.14453125 l 1
 592.603515625 637.1015625 l 1
790.721679688 96.8291015625 m 1
 762.418945312 144.3359375 l 1
 237.813476562 144.3359375 l 1
 206.478515625 89.248046875 l 1
 177.733545847 27.0621837747 151.468931123 26.8857522254 174.133789062 -21.4345703125 c 1
 188.790039062 -41.14453125 l 1
 812.453125 -41.14453125 l 1
 825.087890625 -22.4453125 l 1
 858.118172877 18.9250695103 826.750953058 16.9018863764 790.721679688 96.8291015625 c 1
EndSplineSet
Validated: 524321
EndChar

StartChar: uniF49D
Encoding: 62621 62621 99
Width: 1000
VWidth: 981
Flags: HW
LayerCount: 2
Fore
SplineSet
423.291992188 668.94140625 m 2
 580.9765625 668.94140625 l 1
 620.3984375 650.2421875 l 1
 714.67930044 613.310989854 774.651078752 497.265804239 727.54296875 363.6796875 c 1
 712.88671875 331.840820312 l 1
 741.693359375 302.52734375 l 1
 846.784094476 220.655214928 813.992896032 -15.3750700877 680.541015625 -49.2314453125 c 1
 640.108398438 -69.9521484375 l 1
 436.938476562 -69.9521484375 l 1
 243.716962504 -48.043945356 211.114382606 -107.225911018 200.915039062 -8.0400390625 c 128
 190.402559982 94.1909917395 179.56982873 576.892475983 212.541015625 653.274414062 c 1
 257.705752387 676.017880395 284.990768307 668.94140625 423.291992188 668.94140625 c 2
317.663085938 546.129882812 m 1
 317.663085938 360.647460938 l 1
 547.115234375 360.647460938 l 129
 648.395275178 381.46087249 647.841025895 546.129882812 547.115234375 546.129882812 c 130
 317.663085938 546.129882812 l 1
605.235351562 237.330078125 m 130
 317.663085938 237.330078125 l 1
 317.663085938 53.3642578125 l 1
 604.731445312 53.3642578125 l 129
 705.537003884 70.015063603 714.191661803 237.330078125 605.235351562 237.330078125 c 130
EndSplineSet
Validated: 524321
EndChar

StartChar: uniF49E
Encoding: 62622 62622 100
Width: 1000
VWidth: 982
Flags: HW
LayerCount: 2
Fore
SplineSet
7.234375 -10.7333984375 m 0
 7.234375 4.84918820713 212.840868805 581.529366682 221.01953125 608.381835938 c 0
 234.133781319 651.438998297 306.259185151 672.335626729 335.240234375 636.178710938 c 0
 391.140472935 566.437267049 516.172787185 107.273695651 548.770507812 32.4794921875 c 128
 583.946307054 -48.2300124888 493.480398401 -83.0909278052 473.627086938 -24.2521964811 c 130
 422.168945312 128.252929688 l 1
 151.274414062 128.252929688 l 1
 123.477539062 53.453125 l 1
 112.223435104 -33.3025945886 7.234375 -98.6824605331 7.234375 -10.7333984375 c 0
185.641601562 226.805664062 m 1
 187.50690296 226.304546716 371.043349172 216.661956575 387.801757812 231.859375 c 1
 381.251069565 248.236095619 298.19694119 506.963880639 291.26953125 514.883789062 c 1
 263.187769685 456.098904102 205.044417956 294.648382347 185.641601562 226.805664062 c 1
900.276367188 284.419921875 m 1
 900.276367188 322.831054688 l 1
 907.422094959 432.386326915 739.583579397 428.379852046 703.170898438 364.779296875 c 0
 682.15736358 328.075806557 602.95450021 320.350766837 610.176757812 377.919921875 c 0
 629.456793101 531.602523872 943.612203055 540.487979889 983.66796875 390.5546875 c 0
 989.05859375 377.4140625 992.091796875 304.805664062 992.765625 172.7265625 c 2
 992.765625 -23.3681640625 l 1
 977.09765625 -38.0244140625 l 1
 953.386020597 -70.3535806041 919.299133444 -40.9417416234 897.749023438 -30.94921875 c 129
 755.324906133 -85.1793129274 576.927092982 -24.3373372825 591.983398438 119.155273438 c 128
 603.948345749 233.186005076 677.732638356 285.636416949 819.412109375 284.419921875 c 1
 900.276367188 284.419921875 l 1
900.276367188 193.448242188 m 1
 834.069335938 193.448242188 l 1
 745.616640642 196.784106699 673.314443323 172.63424788 688.766601562 93.884765625 c 128
 706.006218473 6.02578275982 932.501084043 27.0089874819 900.276367188 145.435546875 c 1
 900.276367188 193.448242188 l 1
EndSplineSet
Validated: 524321
EndChar

StartChar: uniF49F
Encoding: 62623 62623 101
Width: 1000
VWidth: 981
Flags: HW
LayerCount: 2
Fore
SplineSet
169.720703125 23.041015625 m 130
 330.69140625 23.041015625 l 1
 409.37701699 206.826433531 488.216496279 390.457982887 567.21875 573.926757812 c 1
 410.291015625 573.926757812 l 129
 388.208736217 585.738695465 358.207845181 628.171454137 391.338867188 653.780273438 c 1
 406.500976562 669.447265625 l 1
 839.123046875 669.447265625 l 1
 853.780273438 653.780273438 l 1
 886.963477343 629.747169295 861.877768127 576.958984375 829.267578125 576.958984375 c 130
 669.30859375 576.958984375 l 1
 590.308294793 393.488254687 511.46429192 209.861228913 432.78125 26.0732421875 c 1
 589.202148438 26.0732421875 l 129
 611.655281966 14.5817209395 640.502606628 -28.0175460191 607.650390625 -53.7802734375 c 1
 592.48828125 -69.447265625 l 1
 159.865234375 -69.447265625 l 1
 145.208984375 -53.7802734375 l 1
 114.133789477 -29.4112202327 137.426737392 23.041015625 169.720703125 23.041015625 c 130
EndSplineSet
Validated: 524321
EndChar

StartChar: uniF4A0
Encoding: 62624 62624 102
Width: 1000
VWidth: 981
Flags: HW
LayerCount: 2
Fore
SplineSet
500.7578125 731.611328125 m 1
 554.8359375 731.611328125 l 1
 792.398907543 718.597817896 827.060901751 760.948171845 910.637695312 685.114257812 c 1
 929.336914062 662.876953125 l 1
 929.336914062 -62.876953125 l 1
 910.637695312 -85.1142578125 l 1
 827.749798776 -161.35038671 792.697789892 -117.908967762 554.8359375 -131.611328125 c 1
 446.680664062 -131.611328125 l 1
 209.953740695 -118.550673985 175.217105106 -160.992204041 91.8896484375 -85.1142578125 c 1
 73.189453125 -62.876953125 l 1
 73.189453125 286.353515625 l 1
 90.4099056064 620.826728656 23.6359699464 641.603938487 134.342773438 722.008789062 c 1
 239.41194364 737.283811935 292.550890951 728.713265713 500.7578125 731.611328125 c 1
163.655273438 -36.0908203125 m 1
 836.849609375 -36.0908203125 l 1
 836.849609375 636.090820312 l 1
 501.76953125 636.090820312 l 1
 23.849110067 605.697830771 195.774775552 768.204564205 163.655273438 293.935546875 c 1
 163.655273438 -36.0908203125 l 1
728.947265625 405.62890625 m 128
 693.185785545 369.969480246 478.082388612 133.332340124 423.936523438 114.518554688 c 1
 383.725423446 121.456357943 283.38406998 235.318289015 263.978515625 260.831054688 c 128
 234.579996426 299.48171716 291.835825397 356.809697283 323.144169166 326.097099327 c 130
 423.936523438 227.22265625 l 1
 668.61722933 470.01223024 l 129
 716.880180863 510.703067978 775.262508555 446.037727161 728.947265625 405.62890625 c 128
EndSplineSet
Validated: 524321
EndChar

StartChar: uniF4A1
Encoding: 62625 62625 103
Width: 1000
VWidth: 982
Flags: HW
LayerCount: 2
Fore
SplineSet
277.118164062 701.474609375 m 0
 390.890748488 717.3204348 424.970342418 831.144781904 551.044921875 784.866210938 c 0
 613.021832743 762.116161877 695.987012321 698.778427951 786.30859375 688.587890625 c 128
 892.088788455 676.653234418 875.482189213 519.511128069 929.58984375 443.215820312 c 0
 996.131017466 349.388442826 1007.40547182 253.3752705 929.58984375 159.180664062 c 0
 884.344054961 104.411341064 894.246388578 1.02783314373 846.704101562 -45.505859375 c 0
 793.469503305 -97.6111025632 682.7416857 -86.8012041477 625.338867188 -140.521484375 c 0
 537.196548913 -223.00924648 436.05353787 -187.168865662 351.413085938 -123.337890625 c 0
 298.429475093 -83.3806897363 159.459229717 -93.6480937615 134.595703125 -25.7958984375 c 1
 93.4763076237 11.5475418774 110.295845983 115.40275438 71.4208984375 158.169921875 c 0
 -7.39408885947 245.728515447 -10.6776431922 351.147446296 71.4208984375 444.2265625 c 0
 113.056583003 497.242321549 98.9367571881 608.282126481 152.284179688 648.9140625 c 256
 189.271332102 677.085238163 217.360491271 692.479391387 277.118164062 701.474609375 c 0
290.258789062 -7.0966796875 m 0
 403.534407711 -7.0966796875 475.577015574 -162.680336089 570.756835938 -64.20703125 c 0
 639.057611773 6.45713993541 808.293945312 -49.8765691288 808.293945312 91.45703125 c 0
 808.293945312 205.790630065 964.474090044 276.293974042 865.404296875 372.96484375 c 0
 792.445902474 444.156588617 851.629847295 611.513671875 703.170898438 611.513671875 c 0
 588.017974383 611.513671875 520.523006692 770.674203617 425.200195312 664.076171875 c 0
 361.948181843 593.342419461 186.39323519 647.696971125 191.706054688 510.939453125 c 0
 196.139960831 396.387768863 31.8368557501 323.849822241 134.595703125 229.432617188 c 0
 203.945025893 165.712855869 150.438500788 -7.0966796875 290.258789062 -7.0966796875 c 0
640.879112529 442.344787561 m 129
 682.581004822 477.384968633 739.498978375 420.719998479 699.126953125 378.524414062 c 128
 660.258928123 342.168401016 513.413089787 170.134136944 444.40625 135.6796875 c 129
 401.690254231 139.522325369 393.778947791 157.578856969 365.05859375 186.977539062 c 2
 349.390625 202.645507812 l 1
 303.535289822 256.121947892 268.355220349 259.697956042 298.598632812 317.625 c 128
 304.16760087 328.291582611 338.666071349 342.247014588 352.043945312 328.869140625 c 130
 437.8359375 243.077148438 l 1
 640.879112529 442.344787561 l 129
EndSplineSet
Validated: 524321
EndChar

StartChar: uniF4A2
Encoding: 62626 62626 104
Width: 1000
VWidth: 982
Flags: HW
LayerCount: 2
Fore
SplineSet
499.747070312 -189.6171875 m 128
 124.455082003 -189.6171875 -132.8679707 262.324444218 93.1533203125 577.075195312 c 0
 193.083539369 719.90314191 366.298265893 838.024877985 616.241210938 779.235351562 c 0
 826.95911087 729.672018044 983.514039829 566.620357328 989.732421875 300.116210938 c 0
 997.84942735 33.2289832065 766.848892357 -189.6171875 499.747070312 -189.6171875 c 128
856.8125 478.522460938 m 0
 782.785005727 623.734301099 607.009890468 740.616986716 388.053710938 683.967773438 c 128
 196.287174403 634.353172694 15.7507978715 378.23102418 143.1875 121.7109375 c 0
 222.097315516 -43.9447033311 451.29933655 -163.587778791 678.407226562 -56.6962890625 c 0
 830.621608578 14.9455286256 972.761935467 255.022316779 856.8125 478.522460938 c 0
345.599609375 413.83203125 m 129
 457.118229962 333.829419884 240.965133097 234.867419741 255.134765625 372.640625 c 128
 260.333262266 406.592198049 302.040670542 436.36871868 345.599609375 413.83203125 c 129
715.047851562 413.83203125 m 129
 826.329915695 333.463411026 610.613100536 235.22125455 624.581054688 372.640625 c 128
 629.779793978 406.593782801 671.469186212 436.325182432 715.047851562 413.83203125 c 129
684.471679688 161.131835938 m 1
 647.101976295 22.7904470594 314.518554688 17.5579804201 314.518554688 161.131835938 c 0
 314.518554688 197.171367644 361.260969074 224.578348361 400.436523438 185.896484375 c 0
 455.676813509 131.352332497 538.716551977 129.082548449 595.520507812 183.874023438 c 0
 635.182397881 222.130750909 674.144012338 204.68130217 684.471679688 161.131835938 c 1
EndSplineSet
Validated: 524321
EndChar

StartChar: uniF4A3
Encoding: 62627 62627 105
Width: 1000
VWidth: 982
Flags: HW
LayerCount: 2
Fore
SplineSet
277.118164062 701.474609375 m 0
 390.890748488 717.3204348 424.970342418 831.144781904 551.044921875 784.866210938 c 0
 613.021832743 762.116161877 695.987012321 698.778427951 786.30859375 688.587890625 c 128
 892.088788455 676.653234418 875.482189213 519.511128069 929.58984375 443.215820312 c 0
 996.131017466 349.388442826 1007.40547182 253.3752705 929.58984375 159.180664062 c 0
 884.344054961 104.411341064 894.246388578 1.02783314373 846.704101562 -45.505859375 c 0
 793.469503305 -97.6111025632 682.7416857 -86.8012041477 625.338867188 -140.521484375 c 0
 537.196548913 -223.00924648 436.05353787 -187.168865662 351.413085938 -123.337890625 c 0
 298.429475093 -83.3806897363 159.459229717 -93.6480937615 134.595703125 -25.7958984375 c 1
 93.4763076237 11.5475418774 110.295845983 115.40275438 71.4208984375 158.169921875 c 0
 -7.39408885947 245.728515447 -10.6776431922 351.147446296 71.4208984375 444.2265625 c 0
 113.056583003 497.242321549 98.9367571881 608.282126481 152.284179688 648.9140625 c 256
 189.271332102 677.085238163 217.360491271 692.479391387 277.118164062 701.474609375 c 0
290.258789062 -7.0966796875 m 0
 403.534407711 -7.0966796875 475.577015574 -162.680336089 570.756835938 -64.20703125 c 0
 639.057611773 6.45713993541 808.293945312 -49.8765691288 808.293945312 91.45703125 c 0
 808.293945312 205.790630065 964.474090044 276.293974042 865.404296875 372.96484375 c 0
 792.445902474 444.156588617 851.629847295 611.513671875 703.170898438 611.513671875 c 0
 588.017974383 611.513671875 520.523006692 770.674203617 425.200195312 664.076171875 c 0
 361.948181843 593.342419461 186.39323519 647.696971125 191.706054688 510.939453125 c 0
 196.139960831 396.387768863 31.8368557501 323.849822241 134.595703125 229.432617188 c 0
 203.945025893 165.712855869 150.438500788 -7.0966796875 290.258789062 -7.0966796875 c 0
651.619140625 393.6875 m 0
 651.619140625 323.54585688 567.963876474 291.192471685 534.3671875 256.723632812 c 0
 484.640520537 205.706091395 424.594011054 294.506506828 476.247070312 327.984375 c 1
 490.862685659 357.083422169 573.471136816 371.479635574 559.130859375 421.484375 c 0
 546.656907173 464.981213332 457.91843835 461.200873222 434.803710938 421.484375 c 0
 387.450437236 340.120395351 315.384849424 440.953553034 378.703125 497.293945312 c 0
 469.956127865 578.49056558 651.619140625 540.514925205 651.619140625 393.6875 c 0
469.67578125 169.2890625 m 0
 566.721818691 216.476019632 595.242668163 54.1535075832 500 55.0693359375 c 1
 439.614011045 50.5211198937 415.783330192 145.638880565 469.67578125 169.2890625 c 0
EndSplineSet
Validated: 524321
EndChar

StartChar: uniF4A4
Encoding: 62628 62628 106
Width: 1000
VWidth: 982
Flags: HW
LayerCount: 2
Fore
SplineSet
192.716796875 300.123046875 m 0
 191.834206723 184.750757106 7.70723446318 182.92749706 7.234375 300.123046875 c 0
 8.85443985006 422.373208659 197.414560431 413.710792222 192.716796875 300.123046875 c 0
592.48828125 300.123046875 m 0
 594.365839263 182.741598918 406.820318805 184.207394004 407.51171875 300.123046875 c 1
 398.478296221 410.328193248 591.403732673 424.745341262 592.48828125 300.123046875 c 0
992.765625 300.123046875 m 1
 993.062453968 185.564483328 806.412607994 180.813642191 807.283203125 300.123046875 c 0
 808.801539014 422.24257277 997.780878985 413.791041876 992.765625 300.123046875 c 1
EndSplineSet
Validated: 524321
EndChar

StartChar: uniF4A5
Encoding: 62629 62629 107
Width: 1000
VWidth: 981
Flags: HW
LayerCount: 2
Fore
SplineSet
130.552734375 296.967773438 m 2
 130.552734375 497.780273438 131.81640625 616.04296875 134.342773438 651.7578125 c 128
 138.42191263 709.379395562 155.502242635 737.350729853 195.243164062 749.806640625 c 0
 262.728793573 770.95851505 528.167444792 765.607643248 595.520507812 748.794921875 c 1
 606.623886506 754.445408958 866.97570073 493.449411917 860.85546875 481.943359375 c 1
 874.850816192 396.015950752 866.797063343 350.698119649 869.447265625 189.823242188 c 1
 869.447265625 166.57421875 l 1
 858.381121944 -41.7944513416 894.268098303 -66.4365547992 824.466796875 -142.729492188 c 1
 800.712890625 -159.913085938 l 1
 199.287109375 -159.913085938 l 1
 175.533203125 -142.729492188 l 1
 100.547854622 -52.0844289489 144.440106309 -15.6037284525 130.552734375 237.330078125 c 1
 130.552734375 296.967773438 l 2
500 667.931640625 m 1
 365.05859375 667.931640625 l 2
 273.75 667.931640625 227.421875 665.573242188 226.073242188 660.85546875 c 0
 224.051757812 656.138671875 223.377929688 533.158203125 224.051757812 291.9140625 c 2
 224.051757812 -68.94140625 l 1
 773.926757812 -68.94140625 l 1
 773.926757812 389.961914062 l 1
 704.691870154 391.314591508 638.48421789 392.662277786 569.239257812 394.004882812 c 1
 545.486328125 412.198242188 l 1
 496.876216858 458.110700667 503.069167652 467.390062528 500 570.89453125 c 1
 500 667.931640625 l 1
592.48828125 560.786132812 m 1
 599.537403513 461.089407226 576.19059731 487.13326919 674.36328125 483.96484375 c 1
 740.5703125 483.96484375 l 1
 691.340500769 533.287766394 641.980918948 584.503379885 592.48828125 633.563476562 c 1
 592.48828125 560.786132812 l 1
EndSplineSet
Validated: 524321
EndChar

StartChar: uniF4A6
Encoding: 62630 62630 108
Width: 1000
VWidth: 981
Flags: HW
LayerCount: 2
Fore
SplineSet
407.3046875 597.942382812 m 128
 461.965184735 569.616670574 434.401736742 483.404189806 375.716796875 484.732421875 c 0
 338.88301133 484.732421875 310.440370768 518.38768037 316.333007812 556.499023438 c 128
 321.631015405 590.801408314 363.493741273 620.645730175 407.3046875 597.942382812 c 128
653.686523438 597.942382812 m 128
 708.671215656 569.743772013 681.113578749 483.447082665 622.352539062 484.732421875 c 0
 585.536990086 484.732421875 556.573712084 518.390387442 562.461914062 556.499023438 c 128
 567.788462051 590.962678801 609.657542647 620.522414511 653.686523438 597.942382812 c 128
407.3046875 351.306640625 m 128
 461.966258077 322.984147349 434.4021082 236.769054166 375.716796875 238.098632812 c 0
 339.018057082 238.098632812 310.418388082 272.210401741 316.333007812 310.1171875 c 128
 321.650404511 344.231253526 363.629985486 373.936368257 407.3046875 351.306640625 c 128
653.686523438 351.306640625 m 128
 708.672309279 323.111315845 681.113950952 236.811945439 622.352539062 238.098632812 c 0
 585.672676323 238.098632812 556.551836802 272.213676993 562.461914062 310.1171875 c 128
 567.807991351 344.391867806 609.794251373 373.813491209 653.686523438 351.306640625 c 128
407.3046875 105.177734375 m 128
 461.964511548 76.8508928881 434.402063508 -9.36043398671 375.716796875 -8.0322265625 c 0
 338.882470821 -8.0322265625 310.440449757 25.6225109945 316.333007812 63.7353515625 c 128
 321.631147774 98.0349782303 363.493930259 127.882168526 407.3046875 105.177734375 c 128
653.686523438 105.177734375 m 128
 708.670542504 76.9779927817 681.113906998 -9.3175408043 622.352539062 -8.0322265625 c 0
 585.536447035 -8.0322265625 556.57379066 25.6252158859 562.461914062 63.7353515625 c 128
 567.788597657 98.1962520789 609.65773116 127.758851324 653.686523438 105.177734375 c 128
EndSplineSet
Validated: 524321
EndChar

StartChar: uniF4A7
Encoding: 62631 62631 109
Width: 1000
VWidth: 981
Flags: HW
LayerCount: 2
Fore
SplineSet
499.747070312 669.642578125 m 129
 570.323382361 648.803708637 549.0234375 587.673006859 549.0234375 478.348632812 c 2
 549.0234375 344.416992188 l 1
 825.4765625 344.416992188 l 1
 879.583921402 343.183568452 883.624232305 269.900059242 836.090820312 257.48828125 c 0
 825.646484375 253.782226562 775.106445312 251.927734375 684.471679688 251.927734375 c 2
 549.0234375 251.927734375 l 1
 549.0234375 120.524414062 l 2
 549.0234375 32.5849609375 547.170898438 -17.955078125 543.46484375 -31.0947265625 c 0
 539.674179946 -76.8575503632 465.06866654 -84.5622464728 456.536132812 -31.0947265625 c 0
 452.829101562 -17.955078125 450.9765625 32.5849609375 450.9765625 120.524414062 c 2
 450.9765625 251.927734375 l 1
 315.528320312 251.927734375 l 2
 224.893554688 251.927734375 174.353515625 253.782226562 163.909179688 257.48828125 c 0
 117.277772206 269.357595072 120.163686286 344.416992188 174.26953125 344.416992188 c 130
 450.9765625 344.416992188 l 1
 450.9765625 478.348632812 l 1
 459.694427521 587.756844086 430.293138634 648.192846323 499.747070312 669.642578125 c 129
EndSplineSet
Validated: 524321
EndChar

StartChar: uniF4A8
Encoding: 62632 62632 110
Width: 1000
VWidth: 981
Flags: HW
LayerCount: 2
Fore
SplineSet
446.93359375 416.7109375 m 1
 845.379555791 449.592557872 931.208428009 309.753239499 919.987304688 -34.359375 c 128
 917.984770723 -77.9143114753 834.322265625 -96.0403430378 834.322265625 -38.1494140625 c 128
 834.322265625 139.016857614 818.380843673 323.211914062 652.630859375 323.211914062 c 130
 234.665039062 323.211914062 l 1
 413.349353318 146.371375761 l 130
 452.388486691 106.475368885 412.221761725 40.7088823262 363.037109375 67.4794921875 c 0
 350.795368694 74.1425231968 77.9912109375 320.676549825 77.9912109375 370.213867188 c 0
 77.9912109375 425.452416837 308.056144322 613.604071438 340.798828125 654.75390625 c 128
 384.484504288 709.656502768 462.583028511 644.798780205 413.245720711 595.204771037 c 130
 235.67578125 416.7109375 l 1
 446.93359375 416.7109375 l 1
EndSplineSet
Validated: 524321
EndChar

StartChar: uniF4A9
Encoding: 62633 62633 111
Width: 1000
VWidth: 981
Flags: HW
LayerCount: 2
Fore
SplineSet
7.65625 421.296875 m 1
 21.1576497776 670.627206266 -45.8014024473 744.85808637 158.012695312 760.419921875 c 128
 207.037109375 761.4296875 321.172851562 761.935546875 500.420898438 761.935546875 c 2
 564.608398438 761.935546875 l 1
 835.445268954 747.910140891 877.704498761 793.41084747 971.455078125 715.438476562 c 1
 990.154296875 693.201171875 l 1
 990.154296875 171.62890625 l 129
 986.827528103 145.231005251 969.06258279 123.573206176 947.700195312 105.926757812 c 2
 924.452148438 86.72265625 l 1
 655.073242188 86.72265625 l 1
 655.073242188 63.4736328125 l 1
 648.033365245 -5.06270581124 773.508328886 -82.0191133193 731.89453125 -146.7734375 c 1
 717.23828125 -161.935546875 l 1
 284.616210938 -161.935546875 l 1
 269.959960938 -146.7734375 l 1
 225.844875573 -84.7514653896 353.03451394 -4.67447950901 342.737304688 63.4736328125 c 1
 342.737304688 83.6884765625 l 1
 76.3916015625 83.6884765625 l 1
 54.1533203125 105.926757812 l 2
 -16.7609760753 177.317228961 18.7159192447 200.423237757 7.65625 400.069335938 c 1
 7.65625 421.296875 l 1
897.666992188 179.71484375 m 1
 897.666992188 666.919921875 l 1
 502.442382812 666.919921875 l 1
 238.288085938 668.266601562 105.19921875 667.256835938 103.177734375 661.866210938 c 0
 101.15625 657.149414062 100.481445312 575.611328125 101.15625 417.252929688 c 2
 101.15625 179.71484375 l 1
 897.666992188 179.71484375 l 1
565.618164062 84.7001953125 m 1
 439.267578125 84.7001953125 l 1
 437.833813437 61.7266653322 414.527412679 -20.6084098554 406.921875 -37.607421875 c 2
 391.254882812 -69.9521484375 l 1
 610.598632812 -69.9521484375 l 1
 598.974609375 -45.693359375 l 1
 584.487304688 -18.7392578125 573.368164062 16.9765625 565.618164062 61.4521484375 c 1
 565.618164062 84.7001953125 l 1
EndSplineSet
Validated: 524321
EndChar

StartChar: uniF4AB
Encoding: 62635 62635 112
Width: 1000
VWidth: 981
Flags: HW
LayerCount: 2
Fore
SplineSet
727.134765625 38.6591796875 m 1
 639.402185346 81.9895021119 718.470351434 136.632592484 773.126953125 191.290039062 c 2
 836.301757812 254.465820312 l 1
 166.140625 254.465820312 l 1
 233.360351562 185.224609375 l 2
 277.499023438 139.401367188 302.768554688 111.436523438 309.169921875 101.328125 c 0
 325.511589915 67.9322221721 293.356401827 33.2860415415 262.673828125 40.17578125 c 1
 258.03113037 33.2267456869 8.44408215854 275.380050563 16.54296875 279.735351562 c 1
 -2.31024469031 338.367338889 31.9976541251 333.269147196 112.31640625 423.267578125 c 128
 192.475298976 513.08688407 213.16158761 531.549251869 264.694335938 560.736328125 c 129
 347.584546692 524.609838358 307.542146201 484.645773501 233.360351562 415.686523438 c 1
 165.130859375 345.942382812 l 1
 835.291992188 345.942382812 l 1
 767.061523438 415.686523438 l 2
 721.239257812 462.18359375 695.96875 490.150390625 691.251953125 499.583984375 c 0
 674.010202017 536.340155677 719.519491673 576.657146645 753.416015625 551.134765625 c 1
 756.48843223 558.820022397 996.658747859 314.588502407 988.932617188 310.563476562 c 1
 988.824426177 242.915832708 729.2046415 21.5714470497 727.134765625 38.6591796875 c 1
EndSplineSet
Validated: 524321
EndChar

StartChar: uniF4B0
Encoding: 62640 62640 113
Width: 1000
VWidth: 982
Flags: HW
LayerCount: 2
Fore
SplineSet
693.01171875 573.560546875 m 0
 620.975006051 718.726663202 410.716927424 723.311708539 306.88671875 620.057617188 c 257
 251.485034294 645.959862989 260.211543725 685.316668533 318.2578125 729.728515625 c 128
 496.455336985 866.069427395 793.480250877 739.858984181 801.924804688 529.337890625 c 128
 802.79347098 486.99831423 825.892291615 326.624752427 789.54296875 305.69921875 c 0
 672.424247694 238.276456827 732.967673713 493.042563909 693.01171875 573.560546875 c 0
503.9921875 -7.6494140625 m 2
 281.953125 -7.6494140625 159.370795194 -10.5962546217 140.103515625 -3.1015625 c 0
 41.4247817011 35.2830328486 60.1328847957 126.401702693 136.060546875 215.736328125 c 1
 192.666015625 300.643554688 l 1
 192.666015625 465.404296875 l 1
 123.42578125 515.439453125 l 1
 69.2488303721 559.131069537 27.6231495357 570.975011025 7.6884765625 631.428710938 c 129
 22.82400437 665.015185071 54.4427283147 678.983539265 92.0908203125 649.37109375 c 0
 206.8430171 559.111720838 937.17957182 53.9517144185 990.690429688 -9.6708984375 c 1
 994.03607991 -74.1934486936 934.665109454 -85.1054454338 885.063476562 -36.4580078125 c 1
 845.13671875 -7.6494140625 l 1
 503.9921875 -7.6494140625 l 2
429.192382812 83.828125 m 2
 607.092773438 83.828125 697.391601562 85.849609375 700.0859375 89.892578125 c 1
 688.78540279 110.352428727 384.136396592 326.35809463 320.53125 372.411132812 c 2
 284.143554688 399.197265625 l 1
 284.143554688 349.66796875 l 1
 279.84544614 250.339892164 267.526632111 242.872745395 214.397460938 163.680664062 c 2
 160.825195312 83.828125 l 1
 429.192382812 83.828125 l 2
617.201171875 -88.513671875 m 1
 610.233264169 -209.989250306 422.483477406 -220.22383514 388.760742188 -116.310546875 c 0
 365.880111667 -45.806136732 398.184994543 -80.8447243279 508.034179688 -70.82421875 c 1
 617.201171875 -70.82421875 l 1
 617.201171875 -88.513671875 l 1
EndSplineSet
Validated: 524321
EndChar

StartChar: uniF4B1
Encoding: 62641 62641 114
Width: 1000
VWidth: 981
Flags: HW
LayerCount: 2
Fore
SplineSet
807.51953125 397.00390625 m 1
 807.51953125 300.47265625 l 1
 856.037109375 226.684570312 l 1
 919.366071883 146.14278177 973.155379316 42.8854910196 860.081054688 -2.26171875 c 0
 829.214164442 -14.5859486178 168.282911574 -14.0815974052 140.391601562 -3.2734375 c 0
 40.846072784 35.3014445134 59.8870414436 126.753026889 136.34765625 215.565429688 c 1
 191.942382812 300.47265625 l 1
 191.942382812 397.00390625 l 1
 169.14089896 692.511789313 379.627283614 861.732149815 626.586914062 762.15625 c 128
 756.981022439 709.580407347 818.433741555 599.286033546 807.51953125 397.00390625 c 1
284.430664062 408.627929688 m 0
 284.430664062 224.943858997 282.550976826 274.542922891 211.65234375 159.465820312 c 1
 161.112304688 83.65625 l 1
 839.359375 83.65625 l 1
 787.80859375 159.465820312 l 1
 756.137695312 207.984375 736.426757812 240.161132812 728.676757812 255.998046875 c 0
 709.200132944 292.371058611 718.275721447 538.168435684 693.298828125 574.399414062 c 0
 654.478035447 630.712074008 613.868177638 683.890371187 541.678710938 693.673828125 c 0
 371.649979682 716.716923557 284.430664062 609.988959359 284.430664062 408.627929688 c 0
617.489257812 -88.685546875 m 1
 609.716812171 -209.682712065 423.037202729 -220.704543472 389.047851562 -116.481445312 c 0
 366.064852447 -46.0076265826 398.472115667 -81.0166818028 508.322265625 -70.9970703125 c 1
 617.489257812 -70.9970703125 l 1
 617.489257812 -88.685546875 l 1
EndSplineSet
Validated: 524321
EndChar

StartChar: uniF4B3
Encoding: 62643 62643 115
Width: 1000
VWidth: 981
Flags: HW
LayerCount: 2
Fore
SplineSet
942.114257812 96.8291015625 m 128
 1005.1271364 54.4710399241 1006.4885648 16.2518039772 950.453125 -7.283203125 c 1
 945.319243124 -17.4884093966 814.014021301 79.0023147155 813.490234375 72.5693359375 c 1
 804.61926073 67.9922486036 809.51219175 -84.4351420168 802.118164062 -91.1796875 c 129
 795.98150522 -122.391659313 770.533992864 -140.297805831 738.69140625 -119.987304688 c 0
 720.54888969 -108.415267284 543.156153902 22.9280510316 523.895507812 36.6865234375 c 2
 499.131835938 54.3759765625 l 1
 393.50390625 -24.97265625 l 1
 276.328741461 -99.6534199426 254.727251447 -153.883521407 210.547851562 -117.965820312 c 1
 191.848632812 -103.814453125 l 1
 191.848632812 526.924804688 l 1
 122.608398438 576.958984375 l 2
 66.5669267745 618.23693992 -45.2340587495 687.935435454 49.83203125 731.611328125 c 1
 153.471268693 683.548479357 827.257956617 174.036973895 942.114257812 96.8291015625 c 128
284.336914062 249.965820312 m 2
 284.336914062 111.486328125 286.6953125 37.19140625 289.390625 27.083984375 c 1
 340.921790437 35.4948718734 448.270937056 142.583716101 476.893554688 149.138671875 c 128
 550.810263153 169.555755377 643.271862839 52.3038162131 714.9375 14.9541015625 c 1
 714.9375 149.390625 l 1
 532.48828125 281.30078125 l 2
 492.393554688 310.276367188 420.458007812 362.1640625 316.682617188 436.962890625 c 1
 284.336914062 460.716796875 l 1
 284.336914062 249.965820312 l 2
807.424804688 527.430664062 m 2
 807.424804688 441.51171875 805.572265625 393.666992188 801.866210938 383.895507812 c 1
 729.954075788 325.674656729 708.948027816 377.65471548 715.948242188 512.7734375 c 1
 715.948242188 636.090820312 l 1
 346.500976562 636.090820312 l 1
 334.37109375 654.791015625 l 1
 316.988009234 677.261617177 318.064412933 689.120500649 334.37109375 712.911132812 c 1
 349.532226562 731.611328125 l 1
 709.125 731.611328125 l 129
 757.563444642 726.272185701 764.328563074 707.987609773 788.725585938 680.56640625 c 1
 807.424804688 655.801757812 l 1
 807.424804688 527.430664062 l 2
EndSplineSet
Validated: 524321
EndChar

